<?xml version="1.0" encoding="UTF-8"?>
<!DOCTYPE svg PUBLIC "-//W3C//DTD SVG 1.1//EN" "http://www.w3.org/Graphics/SVG/1.1/DTD/svg11.dtd">
<!-- Creator: CorelDRAW X6 -->
<svg xmlns="http://www.w3.org/2000/svg" xml:space="preserve" width="8.30642in" height="6.42436in" version="1.1" style="shape-rendering:geometricPrecision; text-rendering:geometricPrecision; image-rendering:optimizeQuality; fill-rule:evenodd; clip-rule:evenodd"
viewBox="0 0 8276 6400"
 xmlns:xlink="http://www.w3.org/1999/xlink">
 <defs>
  <style type="text/css">
   <![CDATA[
    .str1 {stroke:#D8654E;stroke-width:8.19386;stroke-linecap:round;stroke-linejoin:round}
    .str2 {stroke:#D8654E;stroke-width:16.3838;stroke-linecap:round;stroke-linejoin:round}
    .str3 {stroke:#845D42;stroke-width:24.5776;stroke-linecap:round;stroke-linejoin:round}
    .str6 {stroke:#FFE5BD;stroke-width:26.2525;stroke-linecap:round;stroke-linejoin:round}
    .str7 {stroke:#30A6B8;stroke-width:70.0773;stroke-linecap:round;stroke-linejoin:round}
    .str5 {stroke:#F5705F;stroke-width:76.0511;stroke-linecap:round;stroke-linejoin:round}
    .str0 {stroke:#FCB28D;stroke-width:114.235;stroke-linecap:round;stroke-linejoin:round}
    .str4 {stroke:white;stroke-width:131.078;stroke-linecap:round;stroke-linejoin:round}
    .fil2 {fill:none;fill-rule:nonzero}
    .fil0 {fill:#BAE6FF}
    .fil5 {fill:#1A2A40;fill-rule:nonzero}
    .fil4 {fill:#268391;fill-rule:nonzero}
    .fil12 {fill:#2D2620;fill-rule:nonzero}
    .fil6 {fill:#30A6B8;fill-rule:nonzero}
    .fil20 {fill:#37BFD4;fill-rule:nonzero}
    .fil8 {fill:#3E89C9;fill-rule:nonzero}
    .fil29 {fill:#414042;fill-rule:nonzero}
    .fil28 {fill:#555457;fill-rule:nonzero}
    .fil33 {fill:#58595B;fill-rule:nonzero}
    .fil32 {fill:#6D6E71;fill-rule:nonzero}
    .fil30 {fill:#808285;fill-rule:nonzero}
    .fil31 {fill:#939598;fill-rule:nonzero}
    .fil34 {fill:#A7A9AC;fill-rule:nonzero}
    .fil15 {fill:#C2C2C2;fill-rule:nonzero}
    .fil19 {fill:#C4230E;fill-rule:nonzero}
    .fil16 {fill:#D1D1D1;fill-rule:nonzero}
    .fil37 {fill:#D8654E;fill-rule:nonzero}
    .fil9 {fill:#E5E5E5;fill-rule:nonzero}
    .fil18 {fill:#ED2A11;fill-rule:nonzero}
    .fil1 {fill:#F1F1F1;fill-rule:nonzero}
    .fil17 {fill:#F5705F;fill-rule:nonzero}
    .fil13 {fill:#FC9B7E;fill-rule:nonzero}
    .fil3 {fill:#FCB28D;fill-rule:nonzero}
    .fil23 {fill:#FD9B2B;fill-rule:nonzero}
    .fil22 {fill:#FDAC37;fill-rule:nonzero}
    .fil21 {fill:#FDC87C;fill-rule:nonzero}
    .fil7 {fill:white;fill-rule:nonzero}
    .fil25 {fill:url(#id0)}
    .fil11 {fill:url(#id1)}
    .fil35 {fill:url(#id2)}
    .fil14 {fill:url(#id3)}
    .fil26 {fill:url(#id4)}
    .fil10 {fill:url(#id5)}
    .fil36 {fill:url(#id6)}
    .fil27 {fill:url(#id7)}
    .fil24 {fill:url(#id8)}
   ]]>
  </style>
  <linearGradient id="id0" gradientUnits="userSpaceOnUse" x1="7238.35" y1="2582.11" x2="7265.58" y2="2352.33">
   <stop offset="0" style="stop-color:#D8654E"/>
   <stop offset="0.529412" style="stop-color:#EA8B6D"/>
   <stop offset="0.839216" style="stop-color:#FCB28D"/>
   <stop offset="1" style="stop-color:#FCB28D"/>
  </linearGradient>
  <linearGradient id="id1" gradientUnits="userSpaceOnUse" xlink:href="#id0" x1="444.712" y1="2570.19" x2="352.03" y2="2352.59">
  </linearGradient>
  <linearGradient id="id2" gradientUnits="userSpaceOnUse" xlink:href="#id0" x1="2732.69" y1="2485.7" x2="2609.58" y2="2281.14">
  </linearGradient>
  <linearGradient id="id3" gradientUnits="userSpaceOnUse" x1="51.0302" y1="2631.46" x2="117.715" y2="2624.38">
   <stop offset="0" style="stop-color:#D8654E"/>
   <stop offset="0.368627" style="stop-color:#EA8B6D"/>
   <stop offset="0.670588" style="stop-color:#FCB28D"/>
   <stop offset="1" style="stop-color:#FCB28D"/>
  </linearGradient>
  <linearGradient id="id4" gradientUnits="userSpaceOnUse" xlink:href="#id3" x1="7629.41" y1="2536.42" x2="7560.05" y2="2548.96">
  </linearGradient>
  <linearGradient id="id5" gradientUnits="userSpaceOnUse" x1="386.135" y1="2698.93" x2="216.959" y2="2886.23">
   <stop offset="0" style="stop-color:#D8654E"/>
   <stop offset="0.568627" style="stop-color:#EA8B6D"/>
   <stop offset="1" style="stop-color:#FCB28D"/>
  </linearGradient>
  <linearGradient id="id6" gradientUnits="userSpaceOnUse" xlink:href="#id3" x1="2350.86" y1="2599.14" x2="2420" y2="2581.87">
  </linearGradient>
  <linearGradient id="id7" gradientUnits="userSpaceOnUse" xlink:href="#id5" x1="2642.46" y1="2661.51" x2="2495.78" y2="2780.52">
  </linearGradient>
  <linearGradient id="id8" gradientUnits="userSpaceOnUse" xlink:href="#id5" x1="7350.24" y1="2711.11" x2="7514.79" y2="2812.34">
  </linearGradient>
 </defs>
 <g id="Layer_x0020_1">
  <metadata id="CorelCorpID_0Corel-Layer"/>
  <path id="blob.svg" class="fil0" d="M5959 264c294,369 226,1158 397,1725 170,564 575,905 848,1400 278,500 425,1155 171,1579 -250,420 -904,603 -1471,837 -571,230 -1055,511 -1583,579 -527,67 -1090,-72 -1562,-361 -472,-290 -849,-726 -1202,-1214 -357,-492 -694,-1035 -769,-1622 -80,-587 103,-1221 567,-1527 464,-301 1209,-277 1757,-499 547,-223 900,-691 1400,-952 499,-262 1154,-314 1447,55z"/>
  <g id="_331208448">
   <polygon class="fil1" points="3251,4524 6688,4524 6688,2055 3251,2055 "/>
   <path class="fil2 str0" d="M500 2959c364,34 877,-290 796,-662"/>
   <path class="fil3" d="M1209 2085l0 0c-28,10 -42,41 -32,69l49 132c11,30 46,43 75,29l14 -8c27,-13 37,-46 23,-72l-63 -124c-13,-24 -41,-35 -66,-26z"/>
   <path class="fil4" d="M1390 2438c-2,15 -5,30 -8,44 -5,23 -12,45 -21,67 -9,24 -20,49 -34,72 -9,16 -19,32 -30,48 -13,19 -27,38 -42,56 -4,4 -7,8 -11,12 -8,9 -16,18 -25,27 -15,15 -31,31 -48,45 -12,11 -25,22 -38,32 -17,13 -34,26 -52,38 -14,10 -28,18 -42,27 -18,11 -36,22 -55,31l-1 1c-14,7 -29,15 -43,21 -20,9 -39,18 -59,26 -15,6 -31,11 -46,17 -21,7 -42,13 -62,18 -17,5 -33,9 -50,12 -22,5 -44,9 -66,12 -17,2 -35,4 -52,5 -24,2 -48,3 -71,2 -14,0 -28,-1 -42,-2 -6,-1 -11,-2 -17,-4 -17,-5 -32,-14 -44,-28 -15,-19 -22,-42 -20,-66 1,-7 2,-14 4,-20 6,-18 17,-33 32,-44 4,-3 8,-5 12,-7 15,-8 32,-12 50,-10 0,0 1,0 1,0 19,1 38,2 57,1 22,0 45,-2 69,-5 17,-3 33,-6 51,-9 21,-5 42,-10 63,-17 16,-4 31,-10 47,-16 20,-7 40,-15 59,-24 15,-7 29,-14 43,-21l1 -1c19,-10 38,-20 55,-32 15,-8 28,-18 41,-27 18,-13 35,-26 51,-40 14,-11 26,-23 38,-35 8,-8 17,-17 25,-26 6,-8 13,-16 20,-24 11,-14 22,-29 32,-46 13,-22 25,-46 34,-71 8,-23 14,-46 16,-71l3 1 79 14 61 11 35 6z"/>
   <path class="fil5" d="M449 4181c-6,0 -12,0 -18,0 -122,-4 -217,-105 -214,-227 8,-280 -19,-560 -80,-831 -27,-119 48,-237 167,-264 118,-27 236,48 263,167 69,307 100,624 91,941 -4,116 -96,208 -209,214z"/>
   <path class="fil6" d="M202 3894c3,-259 -24,-517 -81,-768 -14,-61 -3,-125 31,-178 12,-19 26,-36 43,-50 29,-27 65,-46 105,-55 13,-3 27,-5 41,-5 31,-2 62,3 91,13 74,27 133,90 151,171 50,221 80,448 89,676 1,10 1,19 1,29 2,48 3,95 3,143l-474 24z"/>
   <path class="fil7" d="M424 2937l-15 -93c7,2 15,4 23,7l82 585 -262 -441 83 -76 89 18z"/>
   <path class="fil8" d="M369 2974c-1,-6 -6,-11 -12,-11 -7,1 -12,6 -11,12 0,7 5,11 12,11 6,0 11,-6 11,-12z"/>
   <path class="fil8" d="M388 3038c-1,-6 -6,-11 -12,-11 -7,1 -12,6 -11,12 0,7 5,12 12,11 6,0 11,-5 11,-12z"/>
   <path class="fil8" d="M410 3108c0,-7 -5,-11 -12,-11 -6,0 -11,6 -10,12 0,6 5,11 12,11 6,-1 11,-6 10,-12z"/>
   <path class="fil9" d="M300 2843c13,-3 27,-5 41,-5 23,-1 46,1 68,6l15 93 -89 -18 -83 76 -57 -97c29,-27 65,-46 105,-55z"/>
   <path class="fil10" d="M281 2663c27,-5 52,14 56,41l26 162c4,27 -14,52 -41,57 -27,4 -52,-15 -56,-41l-26 -163c-4,-27 15,-52 41,-56z"/>
   <path class="fil3" d="M388 2802l40 -14c97,-35 147,-141 113,-237l-85 -237c-29,-83 -119,-125 -201,-96l-110 39c-82,29 -125,119 -96,201l78 220c38,106 155,162 261,124z"/>
   <path class="fil3" d="M388 2802l40 -14c97,-35 147,-141 113,-237l-85 -237c-29,-83 -119,-125 -201,-96l-110 39c-82,29 -125,119 -96,201l78 220c38,106 155,162 261,124z"/>
   <path class="fil3" d="M388 2802l40 -14c97,-35 147,-141 113,-237l-85 -237c-29,-83 -119,-125 -201,-96l-110 39c-82,29 -125,119 -96,201l78 220c38,106 155,162 261,124z"/>
   <path class="fil2 str1" d="M444 2456c5,0 11,-1 16,-3 6,-2 11,-5 15,-8"/>
   <path class="fil2 str1" d="M275 2516c5,0 11,-1 16,-3 6,-2 11,-5 15,-8"/>
   <path class="fil2 str2" d="M392 2645c5,5 11,10 17,13 6,3 14,5 21,5 7,0 14,-1 22,-3 7,-3 13,-7 19,-12 5,-5 10,-10 13,-17 3,-6 5,-13 5,-21"/>
   <line class="fil2 str3" x1="277" y1="2398" x2="235" y2= "2433" />
   <line class="fil2 str3" x1="466" y1="2354" x2="428" y2= "2347" />
   <path class="fil11" d="M379 2497l14 17c2,3 5,4 7,3l26 -5 13 -3c0,2 1,4 1,6 2,11 1,28 -16,38 -4,2 -5,6 -3,10 2,3 6,4 9,3 1,0 1,0 1,0 24,-14 27,-38 24,-55 -1,-5 -3,-10 -5,-13 0,-1 0,-2 -1,-2 -2,-2 -4,-3 -7,-2l-11 2 -17 3 -12 3 -11 -14c0,0 -37,-51 -37,-125 0,-4 -4,-7 -8,-7 -4,0 -7,3 -7,7 0,79 39,132 40,134z"/>
   <path class="fil12" d="M283 2493l0 0c-8,2 -15,-3 -17,-11l-5 -25c-2,-8 3,-16 11,-17l0 0c8,-2 15,3 17,11l5 25c2,8 -3,16 -11,17z"/>
   <path class="fil12" d="M456 2438l0 0c-8,2 -16,-3 -17,-11l-6 -25c-2,-8 3,-16 11,-18l0 0c8,-1 16,4 17,12l6 25c2,8 -3,15 -11,17z"/>
   <path class="fil13" d="M183 2667c-1,-23 17,-44 41,-45 23,-1 43,17 45,41 1,24 -17,44 -41,45 -24,1 -44,-17 -45,-41z"/>
   <path class="fil12" d="M505 2140c-15,23 -33,46 -55,67 -6,5 -11,9 -16,14l-14 -32c-21,-49 -77,-73 -127,-54l-197 75c-38,14 -58,56 -46,94 -19,-5 -37,-14 -50,-24 4,17 13,33 27,44 -4,3 -8,7 -12,12 -12,16 -15,39 -8,59l71 201c11,29 44,44 73,32 27,-12 39,-44 29,-72l-47 -134c-9,-24 4,-51 28,-60l57 -20c9,-4 19,-4 27,-2 10,9 21,16 33,21 33,11 68,4 93,-16 -11,-1 -21,-3 -32,-6l84 -35c4,-2 7,-4 10,-6 11,-6 21,-13 30,-22 38,-36 52,-88 42,-136z"/>
   <path class="fil12" d="M410 2128c-41,75 -97,132 -154,161 76,18 157,-16 196,-87 29,-56 26,-121 -3,-171 -9,32 -22,65 -39,97z"/>
   <path class="fil3" d="M136 2610c10,28 -5,60 -33,70 -29,10 -60,-5 -70,-34 -11,-28 4,-60 33,-70 29,-10 60,5 70,34z"/>
   <path class="fil14" d="M105 2607c-11,-12 -30,-11 -42,0 -11,12 -11,30 1,42 11,11 30,11 41,0 12,-12 12,-31 0,-42z"/>
   <path class="fil2 str4" d="M552 4038c0,0 70,823 214,1388"/>
   <path class="fil5" d="M1168 5553l-488 -27c2,-23 4,-60 5,-77 1,-24 7,-23 7,-23 14,-3 10,7 56,13 47,6 73,-33 89,-55 8,-10 21,-12 32,-11l148 102 127 13c19,22 24,48 24,65z"/>
   <path class="fil6" d="M678 5525l0 8 -1 20c0,1 0,2 0,3l0 38 154 0 0 -21 315 18c23,-4 25,-31 24,-38l-492 -28z"/>
   <path class="fil5" d="M625 4032c-4,-40 -39,-69 -79,-66 -40,3 -69,39 -66,78 3,32 64,745 192,1300l136 -53c-122,-543 -183,-1251 -183,-1259z"/>
   <path class="fil2 str4" d="M290 4016c0,0 -145,813 -151,1396"/>
   <path class="fil5" d="M362 4029c7,-39 -20,-77 -59,-84 -39,-7 -77,19 -84,59 -6,31 -130,736 -150,1305l146 -16c21,-557 145,-1256 147,-1264z"/>
   <polygon class="fil5" points="424,3741 270,3751 268,3721 422,3712 "/>
   <path class="fil5" d="M673 3727l-61 4 -2 -29 62 -4c1,10 1,19 1,29z"/>
   <path class="fil5" d="M535 5553l-488 -27c1,-23 3,-60 4,-77 2,-24 8,-23 8,-23 14,-3 10,7 56,13 46,6 72,-33 89,-55 8,-10 20,-12 31,-11l149 102 126 13c20,22 24,48 25,65z"/>
   <path class="fil6" d="M45 5525l-1 8 -1 20c0,1 1,2 1,3l0 38 154 0 0 -21 315 18c23,-4 24,-31 24,-38l-492 -28z"/>
   <polygon class="fil7" points="3519,780 1026,780 1026,4699 3871,4699 3871,1133 "/>
   <polygon class="fil1" points="3519,1133 3871,1133 3519,780 "/>
   <polygon class="fil6" points="1771,1264 3126,1264 3126,1188 1771,1188 "/>
   <polygon class="fil15" points="1823,1619 3510,1619 3510,1569 1823,1569 "/>
   <polygon class="fil15" points="1823,1759 3510,1759 3510,1708 1823,1708 "/>
   <polygon class="fil15" points="1823,1898 3510,1898 3510,1847 1823,1847 "/>
   <polygon class="fil15" points="1387,2037 3510,2037 3510,1987 1387,1987 "/>
   <polygon class="fil15" points="1387,2177 3510,2177 3510,2126 1387,2126 "/>
   <polygon class="fil15" points="1823,2456 3510,2456 3510,2405 1823,2405 "/>
   <polygon class="fil15" points="1823,2595 3510,2595 3510,2544 1823,2544 "/>
   <polygon class="fil15" points="1823,2735 3510,2735 3510,2684 1823,2684 "/>
   <polygon class="fil15" points="1387,2874 3510,2874 3510,2823 1387,2823 "/>
   <polygon class="fil15" points="1387,3013 3510,3013 3510,2963 1387,2963 "/>
   <polygon class="fil15" points="1387,3153 3510,3153 3510,3102 1387,3102 "/>
   <polygon class="fil15" points="1387,3292 3510,3292 3510,3242 1387,3242 "/>
   <polygon class="fil15" points="1387,3432 3034,3432 3034,3381 1387,3381 "/>
   <polygon class="fil15" points="1387,3571 3034,3571 3034,3520 1387,3520 "/>
   <polygon class="fil16" points="1385,1898 1711,1898 1711,1572 1385,1572 "/>
   <line class="fil2 str5" x1="1341" y1="1632" x2="1546" y2= "1838" />
   <line class="fil2 str5" x1="1683" y1="1653" x2="1546" y2= "1838" />
   <polygon class="fil16" points="1385,2733 1711,2733 1711,2407 1385,2407 "/>
   <line class="fil2 str5" x1="1341" y1="2467" x2="1546" y2= "2672" />
   <line class="fil2 str5" x1="1683" y1="2488" x2="1546" y2= "2672" />
   <path class="fil2 str0" d="M205 3053c189,313 754,533 1005,246"/>
   <path class="fil4" d="M1152 3459c-12,8 -26,14 -40,20 -21,9 -43,17 -66,23 -25,7 -51,12 -78,16 -18,2 -37,4 -57,4 -22,1 -46,1 -70,-1 -5,0 -10,-1 -16,-1 -12,-1 -24,-3 -36,-4 -21,-3 -43,-7 -65,-12 -16,-4 -32,-8 -49,-12 -20,-6 -41,-12 -61,-19 -16,-6 -31,-12 -46,-18 -20,-8 -39,-16 -58,-26l-1 0c-15,-7 -29,-14 -43,-22 -19,-10 -37,-21 -55,-32 -14,-9 -28,-18 -42,-28 -18,-12 -35,-25 -52,-38 -13,-11 -26,-22 -39,-33 -16,-15 -33,-30 -48,-46 -13,-13 -24,-26 -36,-39 -15,-18 -30,-37 -43,-56 -8,-12 -16,-24 -23,-35 -3,-5 -5,-10 -7,-16 -7,-16 -8,-35 -3,-52 5,-24 20,-43 40,-56 6,-3 13,-6 19,-8 18,-6 37,-6 55,0 4,1 8,2 12,4 16,8 29,20 38,35 0,0 1,1 1,1 9,16 20,31 32,47 14,17 29,35 46,52 11,12 24,24 37,35 16,14 33,28 51,41 13,10 27,20 41,29 17,11 36,22 54,33 14,7 29,15 43,22l1 0c19,10 39,18 58,26 16,6 31,12 47,17 21,6 42,12 62,17 17,4 34,7 50,9 12,2 24,4 36,5 10,1 21,1 32,2 18,0 36,0 55,-2 26,-2 52,-7 78,-15 23,-6 45,-16 67,-28l1 2 35 72 28 56 15 31z"/>
   <path class="fil3" d="M1392 3231l0 0c-9,-29 -39,-45 -67,-36l-135 41c-30,9 -46,44 -33,73l7 15c12,27 43,39 70,27l128 -56c25,-11 38,-39 30,-64z"/>
   <path class="fil1" d="M7667 5553l-2497 0 0 -730 2497 0c129,0 234,104 234,233l0 263c0,129 -105,234 -234,234z"/>
   <polygon class="fil17" points="5298,5445 5812,5445 5812,4931 5298,4931 "/>
   <polygon class="fil18" points="5946,5445 6460,5445 6460,4931 5946,4931 "/>
   <polygon class="fil19" points="6594,5445 7108,5445 7108,4931 6594,4931 "/>
   <path class="fil1" d="M7233 5274l0 -2496 730 0 0 2496c0,130 -105,234 -234,234l-262 0c-129,0 -234,-104 -234,-234z"/>
   <polygon class="fil20" points="7341,3419 7855,3419 7855,2905 7341,2905 "/>
   <polygon class="fil6" points="7341,4068 7855,4068 7855,3554 7341,3554 "/>
   <polygon class="fil4" points="7341,4716 7855,4716 7855,4202 7341,4202 "/>
   <path class="fil7" d="M7395 5501l-1826 -1703 497 -534 1826 1703c95,88 100,236 12,330l-179 192c-88,94 -236,100 -330,12z"/>
   <polygon class="fil21" points="6112,4156 5736,3806 6086,3430 6462,3781 "/>
   <polygon class="fil22" points="6586,4599 6210,4248 6560,3872 6936,4223 "/>
   <polygon class="fil23" points="7060,5041 6684,4690 7034,4314 7410,4665 "/>
   <path class="fil2 str0" d="M7311 2977c-73,358 -531,756 -864,570"/>
   <path class="fil3" d="M6219 3517l0 0c2,-30 27,-53 57,-51l140 9c32,2 55,31 49,63l-2 16c-6,29 -34,48 -63,43l-137 -25c-27,-5 -46,-28 -44,-55z"/>
   <path class="fil22" d="M6554 3678c15,3 30,4 45,5 23,2 46,2 70,0 26,-2 52,-6 79,-12 18,-4 36,-9 55,-15 21,-6 43,-15 65,-24 5,-2 10,-5 15,-7 11,-5 22,-10 33,-16 19,-10 38,-21 57,-33 14,-8 28,-18 42,-27 17,-13 34,-26 51,-39 13,-10 26,-21 38,-32 16,-14 31,-29 46,-44l1 -1c11,-11 22,-23 32,-35 15,-16 28,-32 42,-49 10,-13 20,-26 29,-39 13,-18 25,-36 36,-54 9,-15 18,-29 26,-44 11,-20 21,-40 30,-60 8,-16 15,-32 21,-49 8,-22 16,-45 22,-67 4,-14 7,-27 10,-41 1,-5 1,-11 1,-17 1,-18 -4,-35 -14,-50 -14,-20 -34,-34 -58,-39 -6,-1 -13,-2 -20,-1 -19,0 -37,6 -52,18 -3,2 -6,5 -10,8 -12,13 -20,28 -24,45 0,1 0,2 0,2 -4,18 -8,36 -15,55 -7,21 -15,43 -25,64 -7,15 -15,31 -24,46 -10,19 -21,37 -33,56 -10,14 -19,27 -29,40 -13,17 -27,34 -41,50 -10,12 -21,23 -33,35l0 1c-15,15 -31,30 -47,43 -12,11 -25,22 -38,32 -17,13 -35,26 -53,37 -15,9 -29,18 -44,26 -11,5 -21,11 -32,16 -9,4 -19,8 -30,12 -16,7 -34,13 -52,17 -25,7 -51,12 -79,13 -23,1 -47,0 -72,-5l0 2 -9 80 -7 62 -5 35z"/>
   <path class="fil5" d="M7681 4135c6,-1 11,-3 17,-4 116,-38 179,-162 142,-278 -87,-267 -139,-543 -157,-821 -8,-121 -112,-213 -234,-206 -121,8 -213,113 -206,234 20,314 80,627 178,929 35,110 149,173 260,146z"/>
   <path class="fil21" d="M7838 3790c-76,-247 -123,-502 -139,-759 -4,-63 -32,-120 -79,-162 -17,-15 -36,-27 -55,-36 -36,-18 -76,-26 -117,-23 -13,1 -27,3 -40,6 -31,7 -60,21 -84,38 -64,47 -102,124 -97,207 14,226 49,452 104,674 2,9 5,19 7,28 12,46 25,92 38,137l462 -110z"/>
   <path class="fil2 str0" d="M7602 2954c354,91 729,568 526,892"/>
   <path class="fil22" d="M8265 3744c3,-14 6,-29 7,-44 3,-23 4,-46 3,-70 0,-26 -3,-52 -7,-79 -3,-18 -7,-37 -13,-56 -5,-22 -13,-44 -21,-66 -2,-5 -4,-10 -6,-15 -4,-11 -9,-23 -14,-34 -9,-19 -19,-39 -30,-59 -8,-14 -17,-29 -26,-43 -11,-18 -23,-36 -36,-53 -9,-13 -20,-26 -30,-39 -13,-17 -27,-33 -41,-48l-1 -1c-11,-12 -22,-24 -34,-35 -15,-15 -30,-29 -46,-43 -13,-11 -26,-22 -38,-32 -17,-14 -35,-27 -52,-39 -14,-9 -28,-19 -43,-28 -19,-12 -38,-23 -58,-32 -16,-9 -32,-17 -48,-23 -22,-10 -44,-19 -66,-26 -14,-4 -27,-8 -40,-12 -6,-1 -11,-2 -17,-2 -18,-1 -36,3 -51,12 -21,12 -36,32 -42,55 -1,7 -2,14 -2,20 -1,19 5,37 15,53 3,4 5,7 8,10 12,13 27,22 44,26 1,1 1,1 2,1 18,5 36,10 54,17 21,8 42,18 63,29 15,8 30,16 44,26 19,11 37,23 54,36 14,10 27,20 40,31 16,14 32,28 47,43 11,11 22,23 33,35l1 0c15,16 28,32 41,49 11,13 21,26 30,40 12,18 24,36 34,54 9,15 17,30 24,46 5,11 10,21 14,32 4,10 8,20 11,31 6,16 11,34 15,53 5,25 8,51 8,79 0,24 -2,48 -8,72l2 0 80 13 61 11 35 5z"/>
   <path class="fil7" d="M7356 2935l-12 -94c-7,4 -14,9 -20,13l85 585 128 -497 -101 -50 -80 43z"/>
   <path class="fil8" d="M7419 2955c-1,-6 3,-12 9,-14 6,-1 12,2 13,8 2,7 -2,13 -8,14 -6,2 -12,-2 -14,-8z"/>
   <path class="fil8" d="M7419 3022c-1,-6 2,-13 8,-14 7,-2 13,2 14,8 2,7 -2,13 -8,14 -6,2 -13,-2 -14,-8z"/>
   <path class="fil8" d="M7417 3095c-2,-6 2,-13 8,-14 6,-2 12,2 14,8 1,7 -3,13 -9,14 -6,2 -12,-2 -13,-8z"/>
   <path class="fil3" d="M8165 4051l0 0c-29,9 -58,-7 -67,-36l-40 -135c-10,-30 10,-62 42,-68l16 -3c29,-5 57,15 62,44l24 138c5,26 -11,52 -37,60z"/>
   <path class="fil9" d="M7448 2810c-13,1 -27,3 -40,6 -23,5 -44,14 -64,25l12 94 80 -43 101 50 28 -109c-36,-18 -76,-26 -117,-23z"/>
   <path class="fil24" d="M7415 2631c-27,4 -45,28 -42,55l21 164c4,27 29,46 56,42 27,-3 46,-28 42,-55l-21 -163c-4,-27 -29,-46 -56,-43z"/>
   <path class="fil3" d="M7352 2795l-42 -2c-103,-6 -181,-94 -175,-196l14 -252c5,-87 80,-153 167,-148l117 7c87,4 153,79 148,166l-13 232c-6,113 -103,199 -216,193z"/>
   <path class="fil3" d="M7352 2795l-42 -2c-103,-6 -181,-94 -175,-196l14 -252c5,-87 80,-153 167,-148l117 7c87,4 153,79 148,166l-13 232c-6,113 -103,199 -216,193z"/>
   <path class="fil3" d="M7352 2795l-42 -2c-103,-6 -181,-94 -175,-196l14 -252c5,-87 80,-153 167,-148l117 7c87,4 153,79 148,166l-13 232c-6,113 -103,199 -216,193z"/>
   <path class="fil2 str1" d="M7202 2478c-6,2 -11,3 -17,3 -6,-1 -12,-2 -16,-5"/>
   <path class="fil2 str1" d="M7381 2488c-6,2 -11,3 -17,3 -6,-1 -12,-2 -16,-4"/>
   <path class="fil2 str2" d="M7304 2645c-3,7 -7,13 -12,17 -6,5 -12,9 -19,11 -7,3 -14,4 -22,4 -8,-1 -15,-3 -21,-6 -7,-3 -13,-8 -18,-13 -4,-5 -8,-12 -11,-19"/>
   <line class="fil2 str3" x1="7345" y1="2376" x2="7395" y2= "2397" />
   <line class="fil2 str3" x1="7152" y1="2387" x2="7186" y2= "2369" />
   <path class="fil12" d="M7389 2590c-2,-6 -4,-11 -7,-15 6,54 -59,59 -76,33 -3,-5 -5,-10 -8,-13 -6,-8 -18,-12 -30,-9 -7,1 -12,5 -16,10 -4,-5 -9,-10 -15,-12 -12,-5 -24,-2 -31,5 -3,3 -5,8 -9,13 -20,24 -84,11 -72,-42 -3,4 -7,9 -8,14 -13,39 4,70 42,84 35,13 75,2 91,-25 12,28 51,45 87,36 39,-10 60,-40 52,-79z"/>
   <path class="fil25" d="M7275 2500l-8 20c-2,3 -4,5 -7,5l-26 2 -13 1c0,2 0,4 1,6 1,12 6,27 26,32 4,1 6,5 5,9 -1,3 -4,6 -7,5 -1,0 -1,0 -2,0 -26,-6 -36,-28 -37,-45 -1,-6 -1,-10 0,-14 0,-1 0,-2 1,-3 1,-2 3,-4 6,-4l11 -1 17 -1 13 -1 6 -16c0,-1 21,-60 1,-131 -1,-4 1,-8 5,-9 4,-1 8,1 9,5 22,76 0,137 -1,140z"/>
   <path class="fil12" d="M7366 2469l0 0c8,0 14,-7 13,-15l-2 -26c0,-8 -7,-14 -15,-13l0 0c-8,0 -14,7 -13,15l2 26c0,8 7,14 15,13z"/>
   <path class="fil12" d="M7185 2465l0 0c8,-1 14,-8 13,-16l-2 -26c0,-8 -7,-14 -15,-13l0 0c-8,1 -14,8 -13,16l1 25c1,8 8,14 16,14z"/>
   <path class="fil13" d="M7511 2608c-5,-23 -28,-37 -52,-32 -23,6 -37,29 -31,52 5,23 28,37 51,32 23,-6 38,-29 32,-52z"/>
   <path class="fil12" d="M7054 2193c21,17 45,34 72,48 6,3 13,6 19,9l4 -34c7,-54 54,-92 107,-88l210 17c41,3 72,37 70,78 18,-11 32,-24 42,-38 2,18 -3,36 -13,50 4,2 9,4 14,8 17,12 26,33 25,54l-12 213c-2,31 -30,55 -61,51 -30,-3 -50,-31 -48,-60l8 -142c1,-26 -19,-48 -45,-50l-60 -3c-10,-1 -19,1 -27,6 -6,11 -15,21 -26,29 -27,20 -63,23 -92,11 9,-4 19,-9 28,-15l-90 -10c-4,-1 -8,-2 -12,-3 -12,-3 -23,-7 -35,-13 -46,-24 -74,-70 -78,-118z"/>
   <path class="fil3" d="M7540 2540c-2,30 21,56 52,58 30,1 56,-22 58,-52 1,-31 -22,-56 -52,-58 -30,-2 -56,21 -58,52z"/>
   <path class="fil26" d="M7569 2528c8,-14 26,-19 40,-11 14,8 19,26 12,40 -8,14 -26,19 -41,11 -14,-7 -19,-25 -11,-40z"/>
   <path class="fil2 str4" d="M7551 4038c0,0 -69,823 -213,1388"/>
   <path class="fil5" d="M6936 5553l487 -27c-1,-23 -3,-60 -4,-77 -1,-24 -8,-23 -8,-23 -13,-3 -9,7 -56,13 -46,6 -72,-33 -89,-55 -8,-10 -20,-12 -31,-11l-148 102 -127 13c-20,22 -24,48 -24,65z"/>
   <path class="fil23" d="M7426 5525l0 8 1 20c0,1 0,2 0,3l0 38 -154 0 0 -21 -315 18c-24,-4 -25,-31 -25,-38l493 -28z"/>
   <path class="fil5" d="M7479 4032c3,-40 38,-69 78,-66 40,3 70,39 66,78 -2,32 -63,745 -191,1300l-137 -53c123,-543 183,-1251 184,-1259z"/>
   <path class="fil2 str4" d="M7779 4014c0,0 143,813 148,1396"/>
   <path class="fil5" d="M7535 5553l488 -27c-1,-23 -3,-60 -4,-77 -2,-24 -8,-23 -8,-23 -13,-3 -10,7 -56,13 -46,6 -72,-33 -89,-55 -8,-10 -20,-12 -31,-11l-148 102 -127 13c-20,22 -24,48 -25,65z"/>
   <path class="fil23" d="M8025 5525l1 8 1 20c0,1 0,2 -1,3l0 38 -154 0 0 -21 -315 18c-23,-4 -24,-31 -24,-38l492 -28z"/>
   <path class="fil5" d="M7708 4027c-7,-39 19,-77 58,-84 40,-7 77,19 84,59 6,31 129,736 148,1305l-146 -16c-20,-557 -143,-1256 -144,-1264z"/>
   <path class="fil2 str0" d="M2622 2884c316,183 918,106 1001,-266"/>
   <path class="fil3" d="M3751 2428l0 0c-23,-19 -57,-15 -75,8l-87 111c-20,25 -13,62 14,79l14 8c25,16 58,8 74,-17l73 -120c14,-23 8,-53 -13,-69z"/>
   <path class="fil18" d="M3649 2786c-8,12 -17,24 -26,36 -14,18 -30,36 -47,52 -19,18 -39,35 -61,51 -15,11 -31,21 -48,31 -19,12 -40,23 -62,33 -5,2 -10,4 -14,6 -11,5 -23,10 -34,14 -20,8 -41,15 -63,21 -16,5 -32,9 -48,13 -21,5 -42,9 -64,13 -16,2 -32,4 -48,6 -21,3 -43,4 -64,5l-1 1c-16,0 -32,1 -48,1 -21,0 -43,-1 -64,-2 -16,-1 -33,-2 -49,-4 -22,-2 -43,-5 -64,-9 -17,-3 -34,-6 -50,-10 -22,-5 -44,-11 -65,-17 -17,-6 -34,-11 -50,-18 -22,-8 -44,-18 -65,-28 -13,-6 -25,-13 -37,-20 -5,-3 -9,-6 -14,-10 -13,-11 -23,-27 -28,-45 -6,-23 -2,-47 10,-68 3,-6 7,-11 12,-16 13,-14 29,-23 48,-27 4,0 9,-1 13,-1 17,-1 34,3 50,12 0,0 1,0 1,1 16,9 33,17 51,25 20,9 42,17 65,24 16,5 32,9 50,13 20,5 42,9 64,12 16,2 33,4 49,5 21,2 43,3 64,3 16,0 32,0 48,-1l1 0c22,-1 43,-3 64,-6 16,-2 33,-4 49,-7 21,-4 42,-9 63,-15 16,-5 32,-10 48,-16 12,-4 23,-8 34,-13 9,-4 19,-9 28,-14 16,-8 32,-17 48,-28 22,-14 43,-31 62,-50 16,-17 31,-36 44,-57l2 1 66 47 51 35 29 21z"/>
   <path class="fil5" d="M2501 4115c-6,0 -12,-1 -18,-2 -119,-22 -198,-137 -176,-257 51,-276 67,-557 49,-834 -8,-122 83,-227 205,-235 121,-8 226,84 235,205 21,314 2,632 -56,944 -21,114 -126,191 -239,179z"/>
   <path class="fil17" d="M2301 3794c43,-256 56,-515 39,-771 -5,-63 16,-124 58,-172 14,-16 31,-31 49,-43 34,-21 72,-34 113,-37 13,-1 27,-1 41,1 31,3 61,12 88,27 69,38 117,109 123,192 15,226 10,455 -16,681 -1,10 -2,20 -3,30 -6,47 -13,94 -20,141l-472 -49z"/>
   <path class="fil7" d="M2667 2883l0 -95c7,4 15,7 22,11l-9 591 -191 -477 94 -62 84 32z"/>
   <path class="fil8" d="M2607 2911c1,-7 -4,-12 -10,-13 -6,0 -12,4 -12,10 -1,7 4,12 10,13 6,1 12,-4 12,-10z"/>
   <path class="fil8" d="M2616 2977c1,-6 -4,-12 -10,-12 -6,-1 -12,3 -13,10 0,6 4,12 11,12 6,1 12,-4 12,-10z"/>
   <path class="fil8" d="M2628 3049c1,-6 -4,-12 -10,-12 -6,-1 -12,3 -13,10 0,6 4,12 11,12 6,1 12,-4 12,-10z"/>
   <path class="fil9" d="M2560 2771c13,-1 27,-1 41,1 23,2 45,8 66,16l0 95 -84 -32 -94 62 -42 -105c34,-21 72,-34 113,-37z"/>
   <path class="fil27" d="M2569 2589c27,0 49,22 49,50l0 164c0,28 -22,50 -49,50 -27,0 -49,-22 -49,-50l0 -164c0,-28 22,-50 49,-50z"/>
   <path class="fil2 str4" d="M2643 4038c0,0 70,823 214,1388"/>
   <path class="fil5" d="M3259 5553l-488 -27c2,-23 4,-60 5,-77 1,-24 7,-23 7,-23 14,-3 10,7 56,13 47,6 73,-33 89,-55 8,-10 21,-12 32,-11l148 102 127 13c19,22 24,48 24,65z"/>
   <path class="fil18" d="M2769 5525l0 8 -1 20c0,1 0,2 0,3l0 38 154 0 0 -21 315 18c23,-4 25,-31 24,-38l-492 -28z"/>
   <path class="fil5" d="M2716 4032c-4,-40 -39,-69 -79,-66 -40,3 -69,39 -66,78 3,32 64,745 192,1300l136 -53c-122,-543 -183,-1251 -183,-1259z"/>
   <path class="fil2 str4" d="M2416 4014c0,0 -144,813 -149,1396"/>
   <path class="fil5" d="M2659 5553l-487 -27c1,-23 3,-60 4,-77 1,-24 8,-23 8,-23 13,-3 9,7 56,13 46,6 72,-33 89,-55 8,-10 20,-12 31,-11l148 102 127 13c20,22 24,48 24,65z"/>
   <path class="fil18" d="M2169 5525l0 8 -1 20c0,1 0,2 0,3l0 38 154 0 0 -21 315 18c24,-4 25,-31 25,-38l-493 -28z"/>
   <path class="fil5" d="M2487 4027c7,-39 -19,-77 -59,-84 -39,-7 -77,19 -84,59 -5,31 -129,736 -147,1305l146 -16c20,-557 143,-1256 144,-1264z"/>
   <path class="fil28" d="M3245 3909l0 40c0,76 62,137 137,137l128 0 0 -177 -265 0z"/>
   <path class="fil29" d="M3510 3909l0 177 129 0c75,0 136,-61 136,-137l0 -40 -265 0z"/>
   <path class="fil30" d="M3510 3493l0 433 245 0c90,0 163,-73 163,-163l0 -270 -408 0z"/>
   <path class="fil31" d="M3103 3493l0 270c0,90 73,163 163,163l244 0 0 -433 -407 0z"/>
   <path class="fil32" d="M3107 3538c-15,0 -27,13 -27,28 0,15 12,27 27,27l403 0 0 -55 -403 0z"/>
   <path class="fil33" d="M3914 3538l-404 0 0 55 404 0c15,0 27,-12 27,-27 0,-15 -12,-28 -27,-28z"/>
   <path class="fil32" d="M3107 3644c-15,0 -27,12 -27,27 0,15 12,28 27,28l403 0 0 -55 -403 0z"/>
   <path class="fil33" d="M3914 3644l-404 0 0 55 404 0c15,0 27,-13 27,-28 0,-15 -12,-27 -27,-27z"/>
   <path class="fil32" d="M3107 3749c-15,0 -27,12 -27,27 0,15 12,28 27,28l403 0 0 -55 -403 0z"/>
   <path class="fil33" d="M3914 3749l-404 0 0 55 404 0c15,0 27,-13 27,-28 0,-15 -12,-27 -27,-27z"/>
   <path class="fil23" d="M4399 2166c0,235 -92,449 -241,608 -124,132 -196,305 -196,486l0 127c0,41 -16,78 -41,106l-821 0c-25,-28 -41,-65 -41,-106l0 -126c0,-123 -32,-244 -92,-350 -28,-47 -60,-91 -99,-131 -157,-165 -252,-390 -246,-637 12,-474 402,-859 875,-866 164,-2 317,40 450,114 270,153 452,443 452,775z"/>
   <path class="fil22" d="M4026 1803c0,596 -470,1082 -1059,1108 -28,-47 -60,-91 -99,-131 -157,-165 -252,-390 -246,-637 12,-474 402,-859 875,-866 164,-2 317,40 450,114 51,128 79,267 79,412z"/>
   <path class="fil2 str6" d="M3133 2333c60,0 60,52 120,52 60,0 60,-52 120,-52 60,0 60,52 121,52 60,0 60,-52 120,-52 60,0 60,52 120,52 60,0 60,-52 121,-52"/>
   <path class="fil31" d="M3571 2576l-76 0 0 569 32 0 0 -523 44 0c13,0 23,-11 23,-23 0,-13 -10,-23 -23,-23z"/>
   <path class="fil34" d="M3418 2576c-13,0 -23,10 -23,23 0,12 10,23 23,23l45 0 0 523 32 0 0 -569 -77 0z"/>
   <line class="fil2 str6" x1="3821" y1="2340" x2="3527" y2= "3145" />
   <line class="fil2 str6" x1="3168" y1="2340" x2="3463" y2= "3145" />
   <path class="fil34" d="M3427 3202l0 287 68 0 0 -355c-38,0 -68,31 -68,68z"/>
   <path class="fil31" d="M3562 3202c0,-37 -30,-68 -67,-68l0 355 67 0 0 -287z"/>
   <path class="fil2 str0" d="M2401 2955c141,336 668,637 958,389"/>
   <path class="fil18" d="M3279 3494c-13,5 -28,10 -42,14 -22,6 -45,10 -69,13 -26,3 -52,5 -79,4 -19,0 -38,-2 -57,-4 -23,-2 -46,-6 -69,-11 -6,-1 -11,-3 -16,-4 -12,-2 -23,-6 -35,-9 -21,-6 -42,-13 -63,-21 -15,-6 -31,-12 -46,-19 -20,-8 -39,-18 -58,-28 -15,-7 -29,-15 -44,-24 -18,-10 -36,-22 -53,-34l-1 -1c-14,-9 -27,-18 -39,-27 -17,-13 -34,-26 -50,-40 -13,-11 -25,-22 -37,-33 -16,-15 -32,-30 -46,-46 -12,-12 -23,-25 -34,-38 -15,-17 -28,-35 -41,-52 -11,-15 -21,-29 -30,-44 -13,-21 -24,-41 -35,-62 -6,-13 -12,-25 -17,-38 -2,-5 -4,-11 -5,-16 -4,-18 -3,-36 4,-53 9,-22 27,-40 49,-49 6,-2 13,-5 19,-5 19,-4 38,-1 55,7 4,2 7,4 11,7 14,9 26,23 32,39 1,1 1,1 1,2 7,17 16,34 25,50 11,20 24,39 38,58 10,14 20,28 32,41 14,16 28,32 44,48 12,12 24,23 36,34 16,14 33,28 50,41 12,9 26,19 39,28l1 0c18,12 36,24 54,34 14,8 29,16 43,23 20,10 40,19 60,26 16,7 32,12 48,17 11,4 23,7 35,9 10,3 20,5 31,7 17,3 36,5 55,6 25,2 52,1 79,-3 24,-3 47,-9 70,-19l1 3 25 76 19 59 10 34z"/>
   <path class="fil3" d="M3568 3350l0 0c4,-30 -16,-57 -45,-61l-139 -20c-32,-5 -61,19 -62,51l0 17c-1,30 23,54 52,55l140 3c27,1 50,-18 54,-45z"/>
   <path class="fil3" d="M2710 2721l38 -20c91,-47 126,-159 79,-250l-117 -223c-40,-78 -135,-108 -212,-67l-104 54c-77,40 -107,135 -67,212l107 207c53,100 176,139 276,87z"/>
   <path class="fil3" d="M2710 2721l38 -20c91,-47 126,-159 79,-250l-117 -223c-40,-78 -135,-108 -212,-67l-104 54c-77,40 -107,135 -67,212l107 207c53,100 176,139 276,87z"/>
   <path class="fil3" d="M2710 2721l38 -20c91,-47 126,-159 79,-250l-117 -223c-40,-78 -135,-108 -212,-67l-104 54c-77,40 -107,135 -67,212l107 207c53,100 176,139 276,87z"/>
   <path class="fil2 str1" d="M2717 2370c6,0 11,-2 17,-5 5,-2 9,-6 13,-10"/>
   <path class="fil2 str1" d="M2558 2453c6,0 11,-2 17,-5 5,-2 9,-6 13,-10"/>
   <path class="fil35" d="M2659 2420l16 15c2,2 5,3 8,2l25 -9 12 -4c1,1 1,3 2,5 3,11 5,28 -11,40 -3,2 -3,7 -1,10 2,3 6,4 9,2 1,0 1,0 1,0 22,-17 21,-41 16,-57 -2,-5 -4,-10 -6,-13 -1,-1 -1,-1 -2,-2 -2,-2 -4,-2 -7,-1l-10 4 -17 6 -12 4 -12 -12c-1,-1 -44,-46 -55,-119 0,-4 -4,-7 -8,-7 -4,1 -7,5 -6,9 11,78 57,125 58,127z"/>
   <path class="fil12" d="M2564 2430l0 0c-8,2 -16,-1 -19,-9l-9 -24c-2,-8 1,-16 9,-19l0 0c8,-3 16,1 19,9l8 24c3,8 -1,16 -8,19z"/>
   <path class="fil12" d="M2727 2351l0 0c-8,3 -16,-1 -19,-9l-9 -24c-2,-7 2,-16 9,-19l0 0c8,-2 16,2 19,9l9 24c2,8 -2,16 -9,19z"/>
   <path class="fil13" d="M2488 2616c-4,-23 11,-46 35,-50 23,-5 45,10 50,34 4,23 -11,45 -34,50 -24,4 -46,-11 -51,-34z"/>
   <path class="fil12" d="M2689 2123c-5,5 -9,11 -14,16l-18 -30c-28,-46 -87,-62 -134,-36l-184 103c-36,18 -50,62 -32,99 -20,-3 -36,14 -21,23 -3,3 -6,7 -9,13 -11,18 -10,41 -1,59l99 189c15,29 51,39 79,21 23,-16 30,-49 16,-74l-65 -126c-12,-23 -3,-52 20,-64l53 -28c9,-4 18,-6 27,-5 10,8 22,13 36,16 22,5 45,-10 55,-20 10,-11 22,-21 35,-29l45 -27c3,-2 6,-5 9,-8 10,-7 19,-16 27,-26 32,-41 -4,-90 -23,-66z"/>
   <path class="fil3" d="M2434 2565c14,27 4,60 -23,74 -27,14 -60,4 -74,-23 -14,-27 -4,-60 23,-74 27,-14 60,-4 74,23z"/>
   <path class="fil36" d="M2403 2567c-13,-10 -31,-7 -41,6 -10,13 -7,31 6,41 13,10 31,7 41,-6 10,-13 7,-31 -6,-41z"/>
   <path class="fil37" d="M2768 2563c0,18 -11,33 -25,33 -14,0 -25,-15 -25,-33 0,-19 11,-34 25,-34 14,0 25,15 25,34z"/>
   <path class="fil2 str3" d="M2489 2383c0,0 5,-40 42,-44"/>
   <path class="fil2 str3" d="M2657 2307c0,0 5,-41 42,-45"/>
   <path class="fil2 str7" d="M4567 2297l1593 0c101,0 183,82 183,182l0 0c0,101 -82,183 -183,183l-1687 0c-77,0 -140,63 -140,140l0 0c0,77 63,140 140,140l865 0"/>
   <path class="fil5" d="M5303 3665l-262 250 -273 -148 64 -355 472 -370 -235 435c-29,-3 -59,11 -74,39 -20,36 -6,81 30,101 36,19 81,6 101,-31 15,-27 10,-60 -9,-83l235 -435 -49 597z"/>
   <polygon class="fil17" points="4909,3833 4765,3756 4656,3883 4558,4076 4728,4168 4898,4259 5008,4067 5050,3909 "/>
   <path class="fil20" d="M4558 4076l-669 1322c-36,76 -6,166 68,205 74,39 166,12 207,-60l735 -1284 -341 -183z"/>
  </g>
 </g>
</svg>
