<?xml version="1.0" encoding="UTF-8"?>
<!DOCTYPE svg PUBLIC "-//W3C//DTD SVG 1.1//EN" "http://www.w3.org/Graphics/SVG/1.1/DTD/svg11.dtd">
<!-- Creator: CorelDRAW X6 -->
<svg xmlns="http://www.w3.org/2000/svg" xml:space="preserve" width="9.41187in" height="6.84172in" version="1.1" style="shape-rendering:geometricPrecision; text-rendering:geometricPrecision; image-rendering:optimizeQuality; fill-rule:evenodd; clip-rule:evenodd"
viewBox="0 0 9527 6925"
 xmlns:xlink="http://www.w3.org/1999/xlink">
 <defs>
  <style type="text/css">
   <![CDATA[
    .fil11 {fill:#283C4F;fill-rule:nonzero}
    .fil20 {fill:#285C8B;fill-rule:nonzero}
    .fil51 {fill:#295985;fill-rule:nonzero}
    .fil117 {fill:#2A3E51;fill-rule:nonzero}
    .fil77 {fill:#2A547F;fill-rule:nonzero}
    .fil10 {fill:#2A807D;fill-rule:nonzero}
    .fil63 {fill:#2B588A;fill-rule:nonzero}
    .fil70 {fill:#2C495B;fill-rule:nonzero}
    .fil50 {fill:#2C4B6C;fill-rule:nonzero}
    .fil48 {fill:#2C4C6F;fill-rule:nonzero}
    .fil55 {fill:#2C4E74;fill-rule:nonzero}
    .fil23 {fill:#2C4F75;fill-rule:nonzero}
    .fil65 {fill:#2C566C;fill-rule:nonzero}
    .fil121 {fill:#2D3450;fill-rule:nonzero}
    .fil47 {fill:#2D4C71;fill-rule:nonzero}
    .fil49 {fill:#2D5A7F;fill-rule:nonzero}
    .fil58 {fill:#2E587D;fill-rule:nonzero}
    .fil60 {fill:#2F496F;fill-rule:nonzero}
    .fil120 {fill:#304A73;fill-rule:nonzero}
    .fil61 {fill:#304C75;fill-rule:nonzero}
    .fil115 {fill:#324B46;fill-rule:nonzero}
    .fil69 {fill:#325362;fill-rule:nonzero}
    .fil67 {fill:#325464;fill-rule:nonzero}
    .fil57 {fill:#326590;fill-rule:nonzero}
    .fil83 {fill:#327B72;fill-rule:nonzero}
    .fil68 {fill:#345D6F;fill-rule:nonzero}
    .fil66 {fill:#346475;fill-rule:nonzero}
    .fil27 {fill:#34827D;fill-rule:nonzero}
    .fil26 {fill:#356A97;fill-rule:nonzero}
    .fil35 {fill:#358079;fill-rule:nonzero}
    .fil29 {fill:#35817B;fill-rule:nonzero}
    .fil46 {fill:#358D83;fill-rule:nonzero}
    .fil34 {fill:#36988E;fill-rule:nonzero}
    .fil116 {fill:#375C54;fill-rule:nonzero}
    .fil38 {fill:#388076;fill-rule:nonzero}
    .fil45 {fill:#38958A;fill-rule:nonzero}
    .fil7 {fill:#389F94;fill-rule:nonzero}
    .fil33 {fill:#486F8C;fill-rule:nonzero}
    .fil8 {fill:#4AA2CA;fill-rule:nonzero}
    .fil32 {fill:#5786A7;fill-rule:nonzero}
    .fil22 {fill:#5988A9;fill-rule:nonzero}
    .fil84 {fill:#5BB3A8;fill-rule:nonzero}
    .fil93 {fill:#688CA9;fill-rule:nonzero}
    .fil17 {fill:#6BA6C9;fill-rule:nonzero}
    .fil30 {fill:#6DA3C6;fill-rule:nonzero}
    .fil101 {fill:#6DAAD2;fill-rule:nonzero}
    .fil9 {fill:#70B0B9;fill-rule:nonzero}
    .fil5 {fill:#75B0D3;fill-rule:nonzero}
    .fil18 {fill:#7AAECA;fill-rule:nonzero}
    .fil31 {fill:#7BABC7;fill-rule:nonzero}
    .fil102 {fill:#7DB2D1;fill-rule:nonzero}
    .fil85 {fill:#82C5BE;fill-rule:nonzero}
    .fil112 {fill:#842F30;fill-rule:nonzero}
    .fil94 {fill:#86AAC4;fill-rule:nonzero}
    .fil97 {fill:#86C7ED;fill-rule:nonzero}
    .fil52 {fill:#89B3CB;fill-rule:nonzero}
    .fil15 {fill:#8AB5CF;fill-rule:nonzero}
    .fil99 {fill:#8BBAD6;fill-rule:nonzero}
    .fil3 {fill:#8BCBEF;fill-rule:nonzero}
    .fil43 {fill:#977A3C;fill-rule:nonzero}
    .fil98 {fill:#98D2F2;fill-rule:nonzero}
    .fil40 {fill:#997F3D;fill-rule:nonzero}
    .fil16 {fill:#9BBECF;fill-rule:nonzero}
    .fil53 {fill:#9CBBCB;fill-rule:nonzero}
    .fil4 {fill:#9DD4F3;fill-rule:nonzero}
    .fil100 {fill:#9FC3D5;fill-rule:nonzero}
    .fil92 {fill:#A0BDD0;fill-rule:nonzero}
    .fil74 {fill:#A2D6F4;fill-rule:nonzero}
    .fil64 {fill:#A6D6F3;fill-rule:nonzero}
    .fil86 {fill:#ABD9D4;fill-rule:nonzero}
    .fil95 {fill:#ABDBF6;fill-rule:nonzero}
    .fil13 {fill:#ACC4D3;fill-rule:nonzero}
    .fil56 {fill:#AFBFC8;fill-rule:nonzero}
    .fil108 {fill:#B0C6D3;fill-rule:nonzero}
    .fil1 {fill:#B0DEF7;fill-rule:nonzero}
    .fil91 {fill:#B2B3B3;fill-rule:nonzero}
    .fil111 {fill:#B33837;fill-rule:nonzero}
    .fil87 {fill:#B63E38;fill-rule:nonzero}
    .fil39 {fill:#BA3838;fill-rule:nonzero}
    .fil109 {fill:#BACCD4;fill-rule:nonzero}
    .fil75 {fill:#BAE2F8;fill-rule:nonzero}
    .fil62 {fill:#BDE3F8;fill-rule:nonzero}
    .fil41 {fill:#C0953D;fill-rule:nonzero}
    .fil106 {fill:#C1D2DA;fill-rule:nonzero}
    .fil42 {fill:#C2C8CC;fill-rule:nonzero}
    .fil96 {fill:#C2E8FB;fill-rule:nonzero}
    .fil21 {fill:#C3993C;fill-rule:nonzero}
    .fil54 {fill:#C4CACF;fill-rule:nonzero}
    .fil28 {fill:#C4CCD1;fill-rule:nonzero}
    .fil14 {fill:#C6CFD4;fill-rule:nonzero}
    .fil119 {fill:#C8C0CA;fill-rule:nonzero}
    .fil2 {fill:#C8EAF7;fill-rule:nonzero}
    .fil107 {fill:#CBD7DA;fill-rule:nonzero}
    .fil114 {fill:#CC3539;fill-rule:nonzero}
    .fil25 {fill:#CEDFEA;fill-rule:nonzero}
    .fil105 {fill:#D0E5F6;fill-rule:nonzero}
    .fil6 {fill:#D2DDE0;fill-rule:nonzero}
    .fil103 {fill:#D2E8F8;fill-rule:nonzero}
    .fil37 {fill:#D43E39;fill-rule:nonzero}
    .fil113 {fill:#D46C39;fill-rule:nonzero}
    .fil72 {fill:#D7DEC4;fill-rule:nonzero}
    .fil59 {fill:#DAF1FC;fill-rule:nonzero}
    .fil36 {fill:#E0CAC9;fill-rule:nonzero}
    .fil104 {fill:#E1EFF6;fill-rule:nonzero}
    .fil24 {fill:#E4EEF3;fill-rule:nonzero}
    .fil76 {fill:#E9F6FD;fill-rule:nonzero}
    .fil118 {fill:#EA9637;fill-rule:nonzero}
    .fil44 {fill:#EEEFF0;fill-rule:nonzero}
    .fil12 {fill:#EF4940;fill-rule:nonzero}
    .fil88 {fill:#F16862;fill-rule:nonzero}
    .fil89 {fill:#F58E88;fill-rule:nonzero}
    .fil90 {fill:#F8B1AE;fill-rule:nonzero}
    .fil79 {fill:#F9A237;fill-rule:nonzero}
    .fil19 {fill:#F9BB40;fill-rule:nonzero}
    .fil82 {fill:#FAF5AF;fill-rule:nonzero}
    .fil71 {fill:#FBAE38;fill-rule:nonzero}
    .fil80 {fill:#FBCC63;fill-rule:nonzero}
    .fil110 {fill:#FBD250;fill-rule:nonzero}
    .fil81 {fill:#FCE994;fill-rule:nonzero}
    .fil0 {fill:#FEFEFE;fill-rule:nonzero}
    .fil73 {fill:#FFC949;fill-rule:nonzero}
    .fil78 {fill:#FFFEFA;fill-rule:nonzero}
   ]]>
  </style>
 </defs>
 <g id="Layer_x0020_1">
  <metadata id="CorelCorpID_0Corel-Layer"/>
  <g id="_277567248">
   <polygon class="fil0" points="460,1326 1453,6925 1468,6925 475,1323 "/>
   <polygon class="fil0" points="1034,1224 2045,6925 2060,6925 1049,1221 "/>
   <polygon class="fil0" points="1608,1122 2637,6925 2652,6925 1623,1120 "/>
   <polygon class="fil0" points="2182,1020 3229,6925 3244,6925 2197,1018 "/>
   <polygon class="fil0" points="2756,919 3821,6925 3836,6925 2771,916 "/>
   <polygon class="fil0" points="3330,817 4414,6925 4429,6925 3345,814 "/>
   <polygon class="fil0" points="3905,715 5006,6925 5021,6925 3919,713 "/>
   <polygon class="fil0" points="4479,613 5598,6925 5613,6925 4493,611 "/>
   <polygon class="fil0" points="5053,512 6190,6925 6205,6925 5067,509 "/>
   <polygon class="fil0" points="5627,410 6782,6925 6797,6925 5641,407 "/>
   <polygon class="fil0" points="6201,308 7367,6885 7381,6882 6215,305 "/>
   <polygon class="fil0" points="6775,206 7941,6783 7955,6780 6789,204 "/>
   <polygon class="fil0" points="7349,104 8515,6681 8530,6678 7363,102 "/>
   <polygon class="fil0" points="7923,3 9089,6579 9104,6577 7937,0 "/>
   <polygon class="fil0" points="5411,6925 9527,6196 9524,6181 5327,6925 "/>
   <polygon class="fil0" points="2776,6925 9447,5742 9444,5728 2692,6925 "/>
   <polygon class="fil0" points="886,6793 9366,5289 9364,5275 884,6779 "/>
   <polygon class="fil0" points="806,6340 9286,4836 9283,4822 803,6325 "/>
   <polygon class="fil0" points="726,5887 9205,4383 9203,4369 723,5872 "/>
   <polygon class="fil0" points="645,5434 9125,3930 9123,3916 643,5419 "/>
   <polygon class="fil0" points="565,4981 9045,3477 9042,3463 562,4966 "/>
   <polygon class="fil0" points="485,4528 8964,3024 8962,3009 482,4513 "/>
   <polygon class="fil0" points="404,4074 8884,2571 8882,2556 402,4060 "/>
   <polygon class="fil0" points="324,3621 8804,2118 8801,2103 321,3607 "/>
   <polygon class="fil0" points="244,3168 8723,1665 8721,1650 241,3154 "/>
   <polygon class="fil0" points="163,2715 8643,1212 8641,1197 161,2701 "/>
   <polygon class="fil0" points="83,2262 8563,758 8560,744 80,2248 "/>
   <polygon class="fil0" points="3,1809 8482,305 8480,291 0,1794 "/>
   <path class="fil1" d="M7606 5891l-400 0 -1 -6c198,-25 382,-93 542,-196l34 193c-57,6 -116,9 -175,9zm-415 0l-41 0c14,-1 27,-2 40,-4l1 4zm605 -10l-35 -200c61,-41 119,-87 173,-138l368 -65 42 239c-168,85 -353,142 -548,164zm562 -171l-42 -234 459 -82c-120,128 -261,235 -417,316zm-405 -185c32,-32 63,-65 92,-100 29,-17 58,-34 86,-53 45,-30 91,-64 134,-101l34 193 -346 61zm361 -64l-36 -201c85,-76 161,-165 209,-265 3,-6 6,-12 9,-19l300 -53 65 371c-22,28 -45,56 -70,82l-477 85zm559 -183l-63 -357 290 -52c-56,150 -133,287 -227,409z"/>
   <path class="fil2" d="M7206 5891l-15 0 -1 -4c5,0 10,-1 15,-2l1 6z"/>
   <path class="fil2" d="M7781 5882l-34 -193c5,-3 9,-5 14,-8l35 200c-5,0 -10,1 -15,1z"/>
   <path class="fil2" d="M8344 5717l-42 -239 14 -2 42 234c-5,3 -9,5 -14,7zm-45 -253l-34 -193c4,-4 9,-7 13,-11l36 201 -15 3z"/>
   <path class="fil2" d="M8861 5294l-65 -371 14 -2 63 357c-4,6 -8,11 -12,16z"/>
   <path class="fil2" d="M7934 5543c6,-6 13,-12 19,-18l346 -61 15 -3 477 -85c-5,6 -11,12 -16,18l-459 82 -14 2 -368 65z"/>
   <path class="fil1" d="M2485 5815c-11,-2 -21,-5 -31,-7l-19 -105c33,15 66,29 99,42l-49 70zm-47 -11c-143,-38 -282,-88 -413,-148l237 -42c51,30 103,57 157,82l19 108z"/>
   <path class="fil2" d="M2454 5808c-5,-2 -10,-3 -16,-4l-19 -108c6,2 11,5 16,7l19 105z"/>
   <path class="fil1" d="M2002 5646c-64,-30 -126,-62 -186,-96l-56 -314 13 -2c137,142 295,267 469,369l-240 43zm-202 -106c-127,-73 -246,-156 -358,-248l304 -53 54 301z"/>
   <path class="fil2" d="M1816 5550c-5,-3 -11,-6 -16,-10l-54 -301 14 -3 56 314z"/>
   <path class="fil1" d="M1428 5280c-110,-92 -212,-192 -305,-300l-17 -95 354 -63c79,134 173,260 279,375l4 27 -315 56zm330 -59l-1 -4c1,1 3,3 4,4l-3 0zm-654 -262c-18,-22 -35,-43 -52,-65l40 -7 12 72z"/>
   <path class="fil2" d="M1123 4980c-6,-7 -13,-14 -19,-21l-12 -72 14 -2 17 95z"/>
   <path class="fil2" d="M1743 5224l-4 -27c6,7 12,14 18,20l1 4 -15 3z"/>
   <path class="fil1" d="M8503 4960c5,-12 9,-25 13,-37 1,-4 3,-9 4,-13 37,-125 19,-278 -72,-377 -1,-2 -2,-3 -3,-4 -2,-3 -4,-7 -6,-10l276 -49 78 439 -290 51zm304 -54l-77 -438 473 -84c-5,80 -16,162 -33,245 -17,77 -38,152 -64,224l-299 53z"/>
   <polygon class="fil2" points="8793,4909 8715,4470 8730,4468 8807,4906 "/>
   <path class="fil1" d="M1041 4881c-100,-127 -188,-263 -264,-405l200 -36 -29 66c-15,35 -1,75 31,94l-1 1 9 4c1,0 1,0 1,0l58 25 43 243 -48 8zm62 -11l-41 -233 387 167c1,1 2,3 3,4l-349 62z"/>
   <polygon class="fil2" points="1089,4873 1046,4630 1062,4637 1103,4870 "/>
   <path class="fil1" d="M8430 4506c-8,-10 -16,-20 -24,-30 -16,-17 -33,-31 -51,-42 0,0 0,0 0,0 -7,-4 -13,-7 -20,-11 -14,-118 -44,-231 -87,-337l387 -69 78 439 -283 50zm297 -53l-78 -439 476 -84 -2 -14 -476 84 -78 -439 420 -74c151,258 231,563 214,884l0 -2 -476 84zm-485 -381c-42,-101 -97,-195 -162,-281l197 43 49 -230 229 -40 77 439 -390 69z"/>
   <path class="fil2" d="M8713 4456l-78 -439 14 -3 78 439 -14 3zm-81 -453l-77 -439 14 -3 78 439 -15 3z"/>
   <path class="fil1" d="M770 4462c-71,-135 -130,-276 -177,-421l338 -60 71 401 -18 42 -214 38zm243 -105l-68 -379 221 -39c12,113 33,224 62,333l-81 -35c-1,0 -1,0 -1,0l-9 -4 0 1c-7,-2 -14,-3 -20,-3 -30,0 -57,17 -70,46l-34 80z"/>
   <polygon class="fil2" points="1002,4382 931,3981 945,3978 1013,4357 "/>
   <path class="fil1" d="M589 4027c-45,-142 -78,-287 -98,-435l360 -64 77 439 -339 60zm354 -63l-78 -439 302 -53c-17,152 -18,304 -3,453l-221 39z"/>
   <polygon class="fil2" points="928,3967 851,3528 865,3525 943,3964 "/>
   <path class="fil1" d="M8329 3589l102 -471 43 -7 78 438 -223 40zm237 -42l-77 -439 157 -28c132,112 246,245 335,393l-415 74z"/>
   <polygon class="fil2" points="8552,3549 8474,3111 8489,3108 8566,3547 "/>
   <path class="fil1" d="M6544 3308l0 -86 73 78c-13,2 -26,3 -39,5 -11,2 -22,3 -34,3zm1890 -205l21 -98 17 91 -38 7zm52 -9l-22 -127 3 -16c57,35 112,75 164,117l-145 26z"/>
   <polygon class="fil2" points="8472,3096 8455,3005 8464,2967 8486,3094 "/>
   <path class="fil2" d="M8496 4976c2,-5 4,-10 7,-16l290 -51 14 -3 299 -53c-2,6 -4,11 -6,16l-290 52 -14 2 -300 53z"/>
   <path class="fil2" d="M2025 5656c-8,-3 -16,-7 -23,-10l240 -43c7,4 13,8 20,11l-237 42zm6414 -1137c-3,-4 -6,-9 -9,-13l283 -50 14 -3 476 -84 0 2c0,4 0,8 0,13l-473 84 -15 2 -276 49z"/>
   <path class="fil2" d="M1442 5292c-5,-4 -9,-8 -14,-12l315 -56 15 -3 3 0c4,4 8,8 12,13l-13 2 -14 3 -304 53zm6806 -1206c-2,-5 -4,-10 -6,-14l390 -69 15 -3 476 -84 2 14 -476 84 -14 3 -387 69z"/>
   <path class="fil2" d="M1052 4894c-4,-4 -7,-8 -11,-13l48 -8 14 -3 349 -62c3,5 5,9 8,14l-354 63 -14 2 -40 7zm7274 -1290l3 -15 223 -40 14 -2 415 -74c2,5 5,9 8,14l-420 74 -14 3 -229 40z"/>
   <path class="fil2" d="M777 4476c-2,-5 -5,-9 -7,-14l214 -38 -7 16 -200 36zm7654 -1358l3 -15 38 -7 14 -2 145 -26c5,4 10,8 15,12l-157 28 -15 3 -43 7z"/>
   <path class="fil2" d="M593 4041c-1,-5 -3,-10 -4,-14l339 -60 15 -3 221 -39c1,5 1,10 2,14l-221 39 -14 3 -338 60z"/>
   <path class="fil1" d="M489 3577c-20,-148 -27,-298 -21,-449l302 -53 78 438 -359 64zm373 -66l-77 -439 499 -88c-57,156 -95,314 -115,473l-307 54z"/>
   <polygon class="fil2" points="848,3513 770,3075 785,3072 862,3511 "/>
   <path class="fil1" d="M469 3113c8,-154 29,-309 66,-464l155 -27 78 438 -299 53zm313 -55l-78 -439 560 -99 63 357c-13,30 -25,60 -37,91l-508 90zm556 -205l-60 -336 280 -49c-28,39 -55,80 -80,121 -54,86 -100,174 -140,264z"/>
   <polygon class="fil2" points="768,3060 690,2622 704,2619 782,3058 "/>
   <path class="fil2" d="M1327 2877l-63 -357 14 -3 60 336c-4,8 -7,16 -11,24z"/>
   <path class="fil1" d="M539 2634c25,-105 58,-210 97,-313l51 286 -148 27zm163 -29l-55 -311c19,-48 39,-95 61,-143l476 -84 77 438 -559 100zm574 -102l-78 -439 560 -99 40 226c-31,29 -60,59 -88,90 -29,-31 -44,-57 -44,-57 0,0 -7,46 -2,109 -33,38 -64,77 -93,118l-295 52zm535 -324l-39 -216 446 -79c-155,85 -290,184 -407,295z"/>
   <path class="fil2" d="M687 2607l-51 -286c4,-9 7,-18 11,-27l55 311 -15 2z"/>
   <polygon class="fil2" points="1261,2505 1184,2067 1198,2064 1276,2503 "/>
   <path class="fil2" d="M1798 2191l-40 -226 14 -2 39 216c-5,4 -9,8 -13,12z"/>
   <path class="fil1" d="M5585 1816c-5,-20 -11,-40 -18,-59l100 -18 -82 77zm-23 -73c-34,-98 -84,-187 -146,-264 -36,-52 -77,-99 -123,-141l220 -39c110,97 210,199 301,302l-128 120 -124 22z"/>
   <path class="fil2" d="M491 3592c-1,-5 -2,-10 -2,-15l359 -64 14 -2 307 -54c0,5 -1,10 -2,15l-302 53 -14 3 -360 64z"/>
   <path class="fil2" d="M468 3128c1,-5 1,-10 1,-15l299 -53 14 -2 508 -90c-2,5 -4,10 -6,16l-499 88 -15 3 -302 53z"/>
   <path class="fil2" d="M535 2649c1,-5 2,-10 4,-15l148 -27 15 -2 559 -100 15 -2 295 -52c-5,5 -9,11 -13,17l-280 49 -14 3 -560 99 -14 3 -155 27zm5032 -892c-1,-5 -3,-9 -5,-14l124 -22 -19 18 -100 18z"/>
   <path class="fil1" d="M716 2135c42,-89 90,-177 144,-264 52,-84 109,-166 171,-244l72 -13 78 438 -465 83zm480 -85l-78 -439 559 -99 78 439 -559 99zm574 -102l-78 -439 273 -48 28 185 325 140 8 42c-23,11 -45,22 -67,33l-489 87zm569 -127l-5 -28 11 5 0 0 -13 -18 -14 -81 56 76 -51 -378 502 -89 59 332c-202,44 -383,105 -545,181zm-27 -67l-123 -163c-14,-19 -34,-33 -57,-38 -16,-3 -31,-14 -40,-32 -3,-8 -5,-16 -5,-24 0,-13 4,-26 13,-37 3,-3 6,-6 9,-8l0 0c11,-9 23,-13 36,-13 17,0 35,8 46,23 9,13 13,28 11,42 -3,24 5,49 20,68l76 101 14 81zm587 -117l-59 -331 560 -99 62 352c-141,10 -290,28 -449,56 -39,6 -77,14 -114,22zm1057 -77c-80,-6 -162,-9 -248,-9 -75,0 -151,2 -231,7l-63 -354 560 -99 60 342c-28,35 -53,73 -75,113l-3 0zm90 -129l-58 -329 560 -99 25 144c-217,25 -398,129 -527,284zm1233 -105c-25,-21 -50,-40 -77,-58l-42 -235c124,78 236,164 339,254l-220 39zm-94 -69c-120,-74 -264,-116 -425,-116 -1,0 -2,0 -2,0 -14,0 -27,0 -40,1 -14,-1 -27,-1 -40,-1 -1,0 -2,0 -2,0 -30,0 -60,1 -88,4l-26 -145 415 -73c57,30 113,62 166,95l42 235z"/>
   <polygon class="fil2" points="1181,2052 1103,1614 1118,1611 1196,2050 "/>
   <polygon class="fil2" points="1755,1951 1677,1512 1692,1509 1770,1948 "/>
   <path class="fil2" d="M2326 1828l-8 -42 16 7 5 28c-4,3 -9,5 -13,7zm6 -48l-20 -26 -14 -81 20 26 14 81z"/>
   <path class="fil2" d="M2884 1640l-59 -332 15 -2 59 331c-5,1 -10,2 -15,3z"/>
   <path class="fil2" d="M3462 1559l-62 -352 14 -3 63 354c-5,1 -10,1 -15,1z"/>
   <path class="fil2" d="M4034 1447l-60 -342 14 -3 58 329c-4,5 -8,10 -12,16z"/>
   <path class="fil2" d="M4573 1147l-25 -144 14 -3 26 145c-5,0 -10,1 -15,2z"/>
   <path class="fil2" d="M5202 1268c-6,-4 -11,-7 -17,-11l-42 -235c6,4 11,7 17,11l42 235z"/>
   <path class="fil1" d="M1045 1609c16,-19 31,-38 47,-56l9 46 -56 10zm70 -12l-10 -59c360,-411 880,-723 1621,-851 309,-54 589,-78 845,-78 354,0 661,46 929,126l45 254 -559 99 -67 -375 -14 2 66 375 -560 100 -66 -376 -15 3 67 375 -560 99 -66 -375 -15 3 67 375 -521 92 -44 -22 -61 -346 -15 2 60 336 -167 -85 -124 93 12 82 -274 49 -66 -375 -15 2 67 376 -560 99zm711 -350c0,10 4,20 12,27l75 68c7,6 15,9 24,9 8,0 15,-2 22,-7l95 -71c9,-7 14,-18 14,-29 0,-6 -1,-11 -4,-16l-44 -91c-7,-13 -19,-20 -33,-20 -7,0 -15,2 -21,7l-126 95c-9,7 -14,18 -14,28zm2734 -261l-44 -247c159,49 305,108 439,177l-395 70z"/>
   <path class="fil2" d="M1101 1599l-9 -46c5,-5 9,-10 13,-15l10 59 -14 2z"/>
   <polygon class="fil2" points="1675,1498 1608,1122 1623,1120 1689,1495 "/>
   <polygon class="fil2" points="2258,1364 2242,1356 2182,1020 2197,1018 "/>
   <polygon class="fil2" points="2823,1294 2756,919 2771,916 2837,1291 "/>
   <polygon class="fil2" points="3397,1192 3330,817 3345,814 3411,1190 "/>
   <polygon class="fil2" points="3971,1090 3905,715 3919,713 3986,1088 "/>
   <path class="fil2" d="M4545 989l-45 -254c5,1 11,3 16,4l44 247 -15 3z"/>
   <path class="fil2" d="M708 2151c3,-5 6,-11 8,-16l465 -83 15 -2 559 -99 15 -3 489 -87c-14,8 -28,15 -41,23l-446 79 -14 2 -560 99 -14 3 -476 84zm3251 -590c-1,0 -2,-1 -3,-1l3 0c0,0 0,0 0,1zm1334 -223c-5,-4 -10,-8 -14,-12l220 -39c5,4 10,8 14,12l-220 39z"/>
   <path class="fil2" d="M1031 1627c5,-6 9,-12 14,-18l56 -10 14 -2 560 -99 14 -3 274 -49 2 15 -273 48 -15 3 -559 99 -15 3 -72 13zm1292 -230l0 0 -21 -11 521 -92 14 -3 560 -99 14 -2 560 -100 15 -2 559 -99 15 -3 395 -70c7,4 14,7 22,11l-415 73 -14 3 -560 99 -14 3 -560 99 -14 3 -560 99 -15 2 -502 89z"/>
   <path class="fil1" d="M7028 5897l-181 0 -3 -6 306 0c-40,4 -81,6 -122,6z"/>
   <path class="fil3" d="M7150 5891l-306 0 -97 -137 407 -72 36 205c-13,2 -26,3 -40,4zm55 -6l-37 -206 560 -99 19 109c-160,103 -344,171 -542,196zm-468 -144l-201 -286 -22 -127 361 -64c1,1 2,1 2,2 8,11 15,22 23,32 64,85 139,148 220,193l31 176 -414 74zm1024 -60l-19 -104 192 -34c-54,51 -112,97 -173,138zm-595 -16l-30 -165c109,56 228,81 351,81 0,0 0,0 0,0 0,0 0,0 0,0 78,0 158,-10 236,-29l2 13 -559 100zm574 -102l-3 -14c107,-27 211,-70 308,-124 -29,35 -60,68 -92,100l-213 38zm-1224 -137l-62 -88 45 -8 17 96z"/>
   <polygon class="fil4" points="6536,5455 6516,5426 6499,5330 6514,5328 "/>
   <path class="fil4" d="M7190 5887l-36 -205 14 -3 37 206c-5,1 -10,2 -15,2zm-39 -220l-31 -176c5,3 11,6 16,9l30 165 -15 2z"/>
   <path class="fil4" d="M7747 5689l-19 -109 14 -3 19 104c-5,3 -9,5 -14,8zm-22 -124l-2 -13c5,-1 9,-2 14,-3l3 14 -15 2z"/>
   <path class="fil4" d="M6747 5754l-10 -13 414 -74 15 -2 559 -100 15 -2 213 -38c-6,6 -13,12 -19,18l-192 34 -14 3 -560 99 -14 3 -407 72z"/>
   <path class="fil3" d="M2534 5745c-33,-13 -66,-27 -99,-42l-20 -116 263 -46 -144 204zm-115 -49c-54,-25 -106,-52 -157,-82l138 -24 19 106zm4026 -371l-89 -127c-40,-56 -104,-89 -173,-89l-300 0 -24 -132 560 -100 78 439 -52 9zm66 -12l-78 -438 302 -54c-13,143 23,290 123,421 2,3 4,6 7,9l-354 62zm-643 -204l-577 0 -6 -31 560 -99 23 130zm-592 0l-162 0 157 -28 5 28zm2881 -323c-37,0 -71,-10 -96,-27 -1,-3 -2,-7 -2,-10 -8,-51 30,-102 91,-127l29 163c-7,1 -15,1 -22,1zm36 -3l-29 -166c10,-3 21,-6 32,-7 11,-2 22,-3 32,-3 37,0 71,10 97,28 0,3 1,6 2,9 9,63 -50,124 -134,139z"/>
   <path class="fil4" d="M2435 5703c-5,-2 -10,-5 -16,-7l-19 -106 15 -3 20 116z"/>
   <polygon class="fil4" points="5291,5109 5276,5109 5271,5081 5285,5078 "/>
   <polygon class="fil4" points="5883,5109 5868,5109 5845,4979 5859,4977 "/>
   <polygon class="fil4" points="6497,5316 6419,4877 6433,4875 6511,5313 "/>
   <path class="fil4" d="M8179 4785l-29 -163c5,-2 9,-3 14,-5l29 166c-1,0 -2,0 -4,1 -3,0 -7,1 -10,1z"/>
   <path class="fil3" d="M2242 5603c-174,-102 -332,-227 -469,-369l477 -85 78 34 70 392 -156 28zm170 -30l-66 -376c13,10 28,15 44,15 2,0 3,0 5,-1l16 7c9,4 20,6 30,6 29,0 57,-17 69,-45l23 -54 62 -17c16,-5 30,-14 40,-27l259 -46 28 159c-1,1 -2,3 -3,4l-229 326 -278 49zm523 -394l-26 -147 559 -99 31 176 -407 0c-61,0 -118,25 -157,70zm2095 -70l-331 0 -50 -279 466 0 0 -189 75 -13 78 438 -238 43zm-346 0l-578 0 -49 -280 151 -27 0 28 426 0 50 279zm-593 0l-577 0 -31 -178 559 -100 49 278zm1192 -45l-78 -439 253 -45 316 0 68 385 -559 99zm574 -102l-68 -382 527 0c17,0 33,-1 49,-5l51 288 -559 99zm574 -102l-51 -289c83,-24 147,-95 161,-183l372 -66 12 71c-103,118 -172,263 -189,413l-305 54zm1448 -406c-5,0 -10,0 -16,-1 -41,-5 -71,-23 -96,-49 -34,-55 -61,-118 -104,-164 -10,-16 -20,-31 -32,-45l430 -76 50 282c-50,8 -100,21 -144,35 -29,9 -58,18 -88,18zm456 -31c-43,-21 -91,-29 -140,-29 -23,0 -46,2 -70,5l-50 -283 173 -30c43,106 73,219 87,337zm-1397 -44l-11 -59 87 -16c-27,24 -53,48 -76,75z"/>
   <path class="fil4" d="M2398 5575l-70 -392 3 1 2 2c4,4 8,8 13,11l66 376 -14 2z"/>
   <path class="fil4" d="M2922 5194l-28 -159 15 -3 26 147c-5,5 -9,10 -13,15z"/>
   <polygon class="fil4" points="3514,5109 3499,5109 3468,4933 3483,4931 "/>
   <polygon class="fil4" points="4106,5109 4091,5109 4042,4831 4057,4829 "/>
   <polygon class="fil4" points="4699,5109 4684,5109 4634,4830 4649,4830 "/>
   <polygon class="fil4" points="5268,5066 5190,4628 5205,4625 5283,5064 "/>
   <polygon class="fil4" points="5842,4965 5774,4580 5789,4580 5857,4962 "/>
   <path class="fil4" d="M6416 4863l-51 -288c5,-1 10,-2 15,-4l51 289 -15 3z"/>
   <path class="fil4" d="M6925 4393l-12 -71 14 -2 11 59c-5,4 -9,9 -13,14z"/>
   <path class="fil4" d="M8111 4401l-50 -282 14 -3 50 283c-5,0 -9,1 -14,2z"/>
   <path class="fil3" d="M1761 5221c-1,-1 -3,-3 -4,-4l-54 -304 123 53 160 69 28 12 0 0 60 26 152 66 -465 82zm-22 -24c-106,-115 -200,-241 -279,-375l22 -4 205 88 52 291zm707 -123c-6,0 -13,-1 -19,-4 -7,-3 -13,-8 -19,-14 -21,-24 -19,-61 5,-82 4,-4 8,-6 13,-9 0,0 1,0 1,0 5,-1 10,-2 15,-2 26,0 49,17 56,43 5,16 2,31 -5,44 -11,15 -29,24 -47,24zm199 -10c6,-15 8,-32 3,-49l-3 -11c13,-27 9,-59 -11,-83l-16 -18 -17 -62 0 0 -57 -211 270 -48 78 438 -247 44zm261 -46l-78 -439 59 -10c23,7 47,11 72,11l447 0 60 339 -560 99zm574 -102l-59 -336 577 0 42 237 -560 99zm574 -102l-41 -234 195 0 0 207 -154 27zm1061 -188l0 -46 67 0 6 33 -73 13zm87 -15l-5 -31 177 0 -172 31zm1341 -238c1,-7 1,-14 1,-21l0 -432 288 -51 78 439 -367 65zm382 -68l-78 -438 87 -16 0 6 42 0 0 45 -3 0 0 104c0,37 31,68 68,68l102 0c37,0 67,-31 67,-68l0 -204 196 -34 63 351c-7,-1 -13,-1 -20,-1 -44,0 -88,8 -130,20 -103,29 -199,81 -283,148l-111 19zm694 -123c-14,-14 -30,-27 -48,-36 -27,-15 -57,-23 -87,-26l-63 -355 295 -52 284 61 58 330 -439 78zm454 -80l-58 -325 65 14c65,86 120,180 162,281l-169 30z"/>
   <path class="fil4" d="M1757 5217c-6,-6 -12,-13 -18,-20l-52 -291 16 7 54 304z"/>
   <polygon class="fil4" points="2892,5020 2814,4582 2828,4579 2906,5018 "/>
   <polygon class="fil4" points="3466,4919 3406,4580 3421,4580 3480,4916 "/>
   <polygon class="fil4" points="4040,4817 3998,4580 4013,4580 4054,4814 "/>
   <polygon class="fil4" points="5188,4613 5182,4580 5197,4580 5202,4611 "/>
   <polygon class="fil4" points="6910,4308 6832,3869 6847,3867 6925,4305 "/>
   <path class="fil4" d="M7484 4120c-5,-1 -10,-1 -15,-1l-63 -351 15 -3 63 355z"/>
   <polygon class="fil4" points="8058,4104 8000,3774 8015,3777 8073,4102 "/>
   <path class="fil3" d="M1452 4808c-1,-1 -2,-3 -3,-4l9 3 -6 1zm1088 -193l-4 -17 -9 -29 0 0 -65 -243 -8 -29 0 0 -30 -113 307 -55 0 223c0,65 27,125 72,166l8 49 -271 48zm286 -50l-6 -32c13,10 27,19 41,25l-35 7zm-1116 -85l-91 -39 -14 -80 6 6 43 49 56 64zm-107 -46l-172 -74 150 -27 6 7 16 94zm4941 -529l0 -452 186 -33 28 30 72 405 -286 50zm300 -53l-68 -382 33 34 -3 12 17 4 111 118 0 198 -90 16zm366 -65l0 -131 46 -43 16 4c0,0 0,0 0,0l112 24 20 112 -194 34zm208 -37l-19 -106 279 60 -260 46z"/>
   <polygon class="fil4" points="1619,4441 1603,4434 1587,4340 1605,4361 "/>
   <path class="fil4" d="M2811 4567l-8 -49c5,6 11,10 17,15l6 32 -15 2z"/>
   <polygon class="fil4" points="6830,3855 6758,3450 6764,3457 6764,3460 6768,3461 6776,3470 6844,3852 "/>
   <polygon class="fil4" points="7404,3753 7384,3641 7399,3644 7418,3750 "/>
   <path class="fil3" d="M1407 4349l-179 -77c-29,-109 -50,-220 -62,-333l155 -27 -6 6c-29,25 -34,67 -13,98l-1 1 103 117 165 186 -162 29zm613 -123l-45 -52 -289 -327 221 -39 13 48 8 30 66 243 8 29 0 0 18 68zm400 -57l-23 -85 -16 -60 0 0 -66 -242 -12 -44 350 -62 78 436 0 2 -311 55zm311 -141l-63 -355 63 -11 0 366zm3813 -590l0 -130c12,0 23,-1 34,-3 13,-2 26,-3 39,-5l101 107 -174 31z"/>
   <polygon class="fil4" points="2731,4112 2653,3676 2668,3673 2731,4028 "/>
   <path class="fil3" d="M1164 3925c-15,-149 -14,-301 3,-453l258 -46 60 341 -142 126 -179 32zm511 -91l-67 -75c0,0 0,0 0,0l-6 -7 -1 0c-14,-12 -32,-18 -49,-18 -18,0 -36,6 -50,19l-4 3 -59 -332 560 -100 31 175 -119 32c-37,10 -60,46 -55,83l-1 0 2 9c0,0 1,1 1,1l21 78 24 92 -228 40zm624 -111l-44 -164 -13 -49 -1 0c-12,-28 -40,-46 -69,-46 -7,0 -14,0 -20,2l-108 29 -31 -173 550 -98 12 12 76 425 -352 62zm366 -64l-72 -408 138 124 0 272 -66 12z"/>
   <polygon class="fil4" points="1485,3767 1425,3426 1439,3424 1498,3756 "/>
   <polygon class="fil4" points="2030,3499 1999,3324 2013,3322 2044,3495 "/>
   <polygon class="fil4" points="2651,3661 2575,3236 2593,3251 2665,3659 "/>
   <polygon class="fil3" points="2731,3227 2703,3200 2731,3195 "/>
   <path class="fil4" d="M6454 5338l-9 -13 52 -9 14 -3 354 -62c3,4 7,8 10,13l-361 64 -15 2 -45 8z"/>
   <path class="fil4" d="M2262 5614c-7,-3 -13,-7 -20,-11l156 -28 14 -2 278 -49 -12 17 -263 46 -15 3 -138 24zm2852 -505l-84 0 238 -43 15 -2 559 -99 15 -3 559 -99 15 -3 305 -54c0,5 -1,10 -1,15l-302 54 -14 2 -560 100 -14 2 -560 99 -14 3 -157 28z"/>
   <path class="fil4" d="M1773 5234c-4,-5 -8,-9 -12,-13l465 -82 24 10 -477 85zm862 -153c4,-5 7,-11 10,-17l247 -44 14 -2 560 -99 14 -3 560 -99 14 -3 154 -27 0 15 -151 27 -15 2 -559 100 -15 2 -559 99 -15 3 -259 46zm2480 -440l0 -15 73 -13 14 -2 172 -31 84 0 -253 45 -15 3 -75 13zm1426 -253c1,-5 2,-10 2,-15l367 -65 15 -3 111 -19c-7,6 -15,12 -22,18l-87 16 -14 2 -372 66zm1090 -193c-4,-4 -8,-9 -12,-13l439 -78 15 -2 169 -30c2,4 4,9 6,14l-173 30 -14 3 -430 76z"/>
   <path class="fil4" d="M1460 4822c-3,-5 -5,-9 -8,-14l6 -1 24 11 -22 4zm1084 -192l-4 -15 271 -48 15 -2 35 -7c9,4 17,8 26,11l-59 10 -14 3 -270 48zm4000 -710l0 -15 286 -50 14 -3 90 -16 0 15 -87 16 -15 2 -288 51zm666 -118l0 -15 194 -34 14 -3 260 -46 38 9 -295 52 -15 3 -196 34z"/>
   <path class="fil4" d="M1431 4360l-24 -11 162 -29 12 13 -150 27zm993 -176l-4 -15 311 -55 0 15 -307 55zm4120 -731l0 -15 174 -31 12 13 -186 33z"/>
   <path class="fil4" d="M1166 3939c-1,-4 -1,-9 -2,-14l179 -32 -22 19 -155 27zm520 -92l-11 -13 228 -40 4 14 -221 39zm617 -109l-4 -15 352 -62 14 -2 66 -12 0 15 -63 11 -15 3 -350 62z"/>
   <path class="fil3" d="M1169 3457c20,-159 58,-317 115,-473l60 -11 78 439 -253 45zm268 -48l-78 -439 559 -99 78 439 -559 99zm574 -102l-78 -438 195 -35 421 378 -538 95z"/>
   <polygon class="fil4" points="1422,3412 1344,2973 1359,2970 1437,3409 "/>
   <polygon class="fil4" points="1996,3310 1918,2871 1933,2869 2011,3307 "/>
   <path class="fil3" d="M2690 3187l-131 -128 -52 -292 224 -40 0 453 -41 7zm-149 -146l-243 -237 194 -35 49 272z"/>
   <polygon class="fil4" points="2559,3059 2541,3041 2492,2769 2507,2767 "/>
   <path class="fil3" d="M1290 2968c12,-31 24,-61 37,-91l15 82 -52 9zm66 -12l-18 -103c40,-90 86,-178 140,-264 25,-41 52,-82 80,-121l130 -23c9,26 22,52 39,77 53,77 108,125 157,155l32 180 -560 99zm574 -102l-30 -168c40,21 76,30 104,34l0 0c14,4 27,10 38,15l-11 12 83 75 -184 32z"/>
   <path class="fil4" d="M1342 2959l-15 -82c4,-8 7,-16 11,-24l18 103 -14 3z"/>
   <path class="fil4" d="M1916 2857l-32 -180c5,3 11,6 16,9l30 168 -14 3z"/>
   <path class="fil3" d="M2285 2791l-154 -151 -12 12c-8,-29 -20,-65 -37,-97l0 0c-21,-42 -78,-88 -142,-128 -12,-7 -23,-14 -34,-21l506 -90 78 439 -205 36zm219 -39l-77 -438 304 -54 0 452 -227 40z"/>
   <polygon class="fil4" points="2490,2755 2412,2316 2427,2314 2504,2752 "/>
   <path class="fil3" d="M1571 2451c29,-41 60,-80 93,-118 3,30 8,64 19,98l-112 20zm315 -56c-14,-8 -28,-15 -41,-22l-34 -194c117,-111 252,-210 407,-295l114 -21 78 439 -524 93zm-57 -30c-4,-2 -8,-3 -12,-5 -46,-22 -82,-53 -107,-79 28,-31 57,-61 88,-90l31 174zm595 -66l-78 -438 560 -99 30 168c-116,12 -205,109 -205,228l0 87 -307 54zm526 -370l-30 -170 560 -99 48 269 -569 0c-3,0 -6,0 -9,0zm895 0l-302 0 -49 -272 456 -81c-55,105 -92,225 -105,353z"/>
   <path class="fil4" d="M1845 2373c-5,-2 -11,-5 -16,-8l-31 -174c4,-4 8,-8 13,-12l34 194z"/>
   <polygon class="fil4" points="2410,2302 2332,1863 2346,1861 2424,2299 "/>
   <path class="fil4" d="M2936 1930l-30 -168 14 -3 30 170c-4,0 -9,1 -14,1z"/>
   <polygon class="fil4" points="3543,1929 3528,1929 3480,1660 3494,1657 "/>
   <path class="fil4" d="M1167 3472c1,-5 2,-10 2,-15l253 -45 15 -3 559 -99 15 -3 538 -95 14 12 -550 98 -14 2 -560 100 -14 2 -258 46zm1536 -272l-13 -13 41 -7 0 15 -28 5z"/>
   <path class="fil4" d="M1284 2984c2,-6 4,-11 6,-16l52 -9 14 -3 560 -99 14 -3 184 -32 14 12 -195 35 -15 2 -559 99 -15 3 -60 11zm1014 -180l-13 -13 205 -36 14 -3 227 -40 0 15 -224 40 -15 2 -194 35z"/>
   <path class="fil4" d="M1558 2468c4,-6 8,-12 13,-17l112 -20c1,4 3,9 5,14l-130 23zm348 -62c-7,-4 -14,-7 -20,-11l524 -93 14 -3 307 -54 0 15 -304 54 -15 2 -506 90z"/>
   <path class="fil3" d="M2259 1861c22,-11 44,-22 67,-33l3 21 -70 12zm85 -15l-5 -25c162,-76 343,-137 545,-181l19 107 -559 99zm574 -102l-19 -107c37,-8 75,-16 114,-22 159,-28 308,-46 449,-56l15 86 -559 99zm574 -101l-15 -85c80,-5 156,-7 231,-7 86,0 168,3 248,9l-464 83z"/>
   <path class="fil4" d="M2329 1849l-3 -21c4,-2 9,-4 13,-7l5 25 -15 3z"/>
   <path class="fil4" d="M2903 1747l-19 -107c5,-1 10,-2 15,-3l19 107 -15 3z"/>
   <path class="fil4" d="M3477 1645l-15 -86c5,0 10,0 15,-1l15 85 -15 2z"/>
   <path class="fil4" d="M2218 1884c13,-8 27,-15 41,-23l70 -12 15 -3 559 -99 15 -3 559 -99 15 -2 464 -83c1,0 2,1 3,1 -3,5 -6,10 -9,15l-456 81 -14 3 -560 99 -14 3 -560 99 -14 2 -114 21z"/>
   <path class="fil0" d="M1666 2224c0,0 -28,170 61,298 103,149 210,189 277,198 66,9 92,62 92,62l38 -73c0,0 -17,-86 -52,-154 -35,-69 -164,-148 -265,-195 -101,-48 -151,-136 -151,-136z"/>
   <path class="fil5" d="M2042 2735c-11,-5 -24,-11 -38,-15l0 0c16,2 29,7 40,13l-2 2zm40 -180c-21,-42 -78,-88 -142,-128 64,40 121,86 142,128z"/>
   <path class="fil6" d="M2044 2733c-11,-6 -24,-11 -40,-13l0 0c-2,0 -4,-1 -6,-2 28,-13 32,-82 17,-143 -20,-86 -170,-186 -260,-252 -41,-30 -69,-67 -89,-98l0 -1c0,0 50,88 151,136 39,18 82,41 123,67 64,40 121,86 142,128l0 0c17,32 29,68 37,97l-14 15 -61 66z"/>
   <path class="fil7" d="M3387 3918c-13,14 -38,12 -56,-4l-1300 -1167 100 -107 1249 1222c18,17 21,41 7,56z"/>
   <polygon class="fil8" points="2119,2652 2119,2652 2131,2640 "/>
   <polygon class="fil9" points="2105,2667 2105,2667 2119,2652 2119,2652 "/>
   <polygon class="fil10" points="2731,3279 2105,2667 2119,2652 2131,2640 2731,3227 "/>
   <path class="fil11" d="M2018 2727c0,0 46,-11 95,-107l30 12c12,5 17,19 11,30 -17,29 -51,81 -94,107 -11,6 -25,1 -30,-11l-12 -31z"/>
   <path class="fil12" d="M1734 2538c13,19 27,35 40,51 -2,-21 -14,-56 -27,-75 -23,-31 30,-22 69,4 40,26 8,-31 -4,-61 -12,-31 88,27 138,25 49,-2 -22,-76 -120,-122 -110,-51 -165,-146 -165,-146 0,0 -29,185 69,324z"/>
   <path class="fil13" d="M8467 2951c-2,-2 -5,-4 -7,-5l-21 -117 40 -186 57 -10 -69 318zm-24 -15c-8,-5 -16,-10 -24,-14l12 -55 12 69z"/>
   <path class="fil14" d="M8460 2946c-6,-3 -11,-7 -17,-10l-12 -69 8 -38 21 117z"/>
   <path class="fil13" d="M8483 2627l101 -470 57 -10 -102 470 -56 10zm105 -486l101 -470 34 -6 -2 -15 -29 5 36 -163 52 11 -136 628 -56 10z"/>
   <polygon class="fil14" points="8479,2643 8483,2627 8539,2617 8536,2633 "/>
   <polygon class="fil14" points="8584,2157 8588,2141 8644,2131 8641,2147 "/>
   <polygon class="fil14" points="8689,1671 8692,1655 8721,1650 8723,1665 "/>
   <path class="fil15" d="M8277 3834l-197 -43c-15,-19 -30,-38 -46,-57l200 44 36 -164 56 -10 -49 230zm-4 -235l102 -470 56 -11 -102 471 -56 10zm105 -486l41 -191c8,4 16,9 24,14l12 69 -21 98 -56 10zm86 -146l-4 -21c2,1 5,3 7,5l-3 16z"/>
   <path class="fil16" d="M8455 3005l-12 -69c6,3 11,7 17,10l4 21 -9 38z"/>
   <polygon class="fil16" points="8270,3614 8273,3599 8329,3589 8326,3604 "/>
   <polygon class="fil16" points="8375,3129 8378,3113 8434,3103 8431,3118 "/>
   <path class="fil17" d="M8080 3791l-65 -14 -9 -49 28 6c16,19 31,38 46,57zm-80 -17l-284 -61 120 -22 155 34 9 49z"/>
   <polygon class="fil18" points="8015,3777 8000,3774 7991,3725 8006,3728 "/>
   <path class="fil17" d="M7678 3704l-279 -60 -8 -49 407 88 -120 21zm-294 -63l-112 -24c1,0 22,-13 28,-41l75 16 9 49z"/>
   <polygon class="fil18" points="7399,3644 7384,3641 7375,3592 7391,3595 "/>
   <polygon class="fil18" points="7716,3713 7678,3704 7798,3683 7836,3691 "/>
   <path class="fil17" d="M7272 3617l-16 -4 41 -38 3 1c-6,28 -27,41 -28,41 0,0 0,0 0,0zm-449 -97l-17 -4 3 -12 14 16z"/>
   <polygon class="fil19" points="6764,3460 7267,1129 8737,1447 8234,3778 "/>
   <path class="fil20" d="M7267 1129l343 74c0,0 183,295 75,398 -280,266 451,406 344,711 -73,210 -474,97 -503,214 -39,158 278,431 57,560 -193,113 -449,218 -364,325 85,107 11,150 11,150l-466 -101 503 -2331z"/>
   <path class="fil0" d="M8298 1603l-76 408c-12,63 32,126 96,131 30,2 59,-8 82,-45 38,-63 -54,-166 54,-181 112,-15 136,-97 48,-140 -79,-38 172,-109 120,-212 -37,-74 -125,-84 -197,-77 -63,6 -115,54 -127,116z"/>
   <path class="fil0" d="M7937 2732l-57 306c-9,48 24,95 72,99 22,2 45,-6 62,-33 29,-48 -41,-126 40,-137 85,-11 103,-73 36,-105 -59,-29 130,-82 91,-159 -28,-56 -94,-63 -148,-58 -48,4 -87,40 -96,87z"/>
   <path class="fil21" d="M7420 3459c0,0 3,-38 -37,-61l400 -374 49 50 -412 385z"/>
   <path class="fil21" d="M8082 2840c5,-7 13,-15 24,-23l-24 23z"/>
   <path class="fil14" d="M8009 2908l-49 -50 162 -152 48 51 -64 60c-11,8 -19,16 -24,23l-73 68z"/>
   <path class="fil17" d="M7210 3656l0 -52 46 9 -46 43zm-276 -18l-111 -118 13 3 98 104 0 11zm-125 -134l-33 -34 -1 -7 6 1 30 31 -2 9z"/>
   <polygon class="fil18" points="6776,3470 6768,3461 6775,3463 "/>
   <path class="fil22" d="M7256 3613l-46 -9 0 -44 4 -3 16 4c0,0 0,0 0,0l67 14 -41 38zm-420 -90l-13 -3 -14 -16 2 -9 25 28z"/>
   <path class="fil15" d="M6617 3300l-73 -78 0 -11 83 88c-4,0 -7,1 -10,1z"/>
   <polygon class="fil17" points="6758,3450 6730,3420 6739,3419 6756,3437 "/>
   <polygon class="fil18" points="6764,3457 6758,3450 6756,3437 6766,3448 "/>
   <path class="fil17" d="M6718 3407l-101 -107c3,0 6,-1 10,-1l100 107 -9 1z"/>
   <polygon class="fil18" points="6730,3420 6718,3407 6727,3406 6739,3419 "/>
   <path class="fil21" d="M7297 3575l-67 -14c1,0 24,-14 29,-46l124 -117c40,23 37,61 37,61l0 1 -123 115z"/>
   <path class="fil23" d="M7230 3561l-16 -4 45 -42c-5,32 -28,46 -29,46 0,0 0,0 0,0zm-449 -97l-6 -1 -7 -2 -4 -4 2 -9 15 16z"/>
   <polygon class="fil0" points="7030,3729 5400,1989 6498,961 8128,2701 "/>
   <path class="fil7" d="M5400 1989l256 -240c0,0 347,17 370,164 31,205 198,150 376,96 154,-48 316,-95 404,26 131,180 -190,446 -110,536 107,122 512,17 493,273 -17,222 -77,492 60,483 136,-9 129,76 129,76l-348 326 -1630 -1740z"/>
   <path class="fil19" d="M6681 1737c-65,61 -167,57 -228,-8 -61,-65 -58,-167 7,-228 65,-61 168,-58 229,7 61,65 57,168 -8,229z"/>
   <polygon class="fil24" points="4208,4830 5115,4830 5115,4490 4208,4490 "/>
   <polygon class="fil25" points="4208,4660 5115,4660 5115,4580 4208,4580 "/>
   <path class="fil0" d="M6316 4580l-3357 0c-126,0 -228,-102 -228,-228l0 -2194c0,-127 102,-229 228,-229l3357 0c126,0 228,102 228,229l0 2194c0,126 -102,228 -228,228z"/>
   <path class="fil20" d="M6316 1929l-3357 0c-126,0 -228,102 -228,229l0 1933 3813 0 0 -1933c0,-127 -102,-229 -228,-229z"/>
   <path class="fil0" d="M5464 4966l-1615 0c0,-83 68,-151 151,-151l1313 0c83,0 151,68 151,151z"/>
   <path class="fil26" d="M2731 3694l0 -1536c0,-127 102,-229 228,-229l886 0c-2,20 -4,41 -5,62 -11,230 65,442 197,606 19,26 38,51 59,75 9,11 18,21 26,32 0,0 0,0 0,0 0,0 1,1 1,1 20,28 38,56 55,85 -710,448 -1447,904 -1447,904zm1138 -1321l0 8 23 0 0 -8 -23 0zm-69 0l0 8 23 0 0 -8 -23 0zm-70 0l0 8 23 0 0 -8 -23 0zm-70 0l0 8 24 0 0 -8 -24 0z"/>
   <path class="fil17" d="M7150 3902l-113 0 0 -45 113 0 0 45zm-173 0l-1 0 0 -45 1 0 0 45z"/>
   <path class="fil27" d="M7099 2919l-8 -13 3 -10 5 23zm-10 -16l0 -1 4 -7 0 0 -4 8z"/>
   <path class="fil28" d="M7168 3127l0 -78c1,-8 2,-16 3,-24l39 66 -42 36z"/>
   <path class="fil29" d="M7168 3049l0 -14 -44 -75 8 0 -38 -65 77 130c-1,8 -2,16 -3,24z"/>
   <path class="fil30" d="M7210 3902l-60 0 0 -45 18 0 0 -47 42 -8 0 100zm-42 -107l0 -99 42 -40 0 131 -42 8z"/>
   <polygon class="fil31" points="7168,3810 7168,3795 7210,3787 7210,3802 "/>
   <polygon class="fil32" points="7168,3696 7168,3600 7173,3596 7210,3604 7210,3656 "/>
   <polygon class="fil33" points="7210,3604 7173,3596 7210,3560 "/>
   <path class="fil28" d="M7168 3600l0 0 42 -40 0 0 -37 36 -5 4zm42 -279c-21,-11 -35,-35 -42,-68l0 -126 42 -36 0 230z"/>
   <path class="fil29" d="M7168 3600l0 -347c7,33 21,57 42,68l0 239 -42 40z"/>
   <polygon class="fil29" points="7132,2960 7124,2960 7099,2919 7094,2896 7094,2895 "/>
   <polygon class="fil29" points="7093,2895 7093,2895 7094,2895 "/>
   <polygon class="fil30" points="7037,3902 6977,3902 6977,3857 7037,3857 "/>
   <polygon class="fil29" points="7091,2906 7090,2904 7090,2904 7089,2903 7093,2895 7094,2896 "/>
   <polygon class="fil34" points="7094,2895 7094,2895 7094,2895 "/>
   <polygon class="fil35" points="7094,2896 7093,2895 7094,2895 7094,2895 "/>
   <path class="fil17" d="M7143 4074l-102 0c-37,0 -68,-31 -68,-68l0 -93 0 21 237 0 0 72c0,37 -30,68 -67,68z"/>
   <polygon class="fil17" points="7210,3934 6973,3934 6973,3902 7210,3902 "/>
   <polygon class="fil0" points="7168,3857 6934,3857 6934,3035 7051,2839 7168,3035 "/>
   <polygon class="fil12" points="7168,3857 6934,3857 6934,3035 6995,3085 7051,3034 7108,3086 7168,3035 "/>
   <polygon class="fil12" points="7090,2904 7012,2904 7051,2839 "/>
   <polygon class="fil36" points="7108,3086 7108,3086 7066,2904 7090,2904 7168,3035 "/>
   <polygon class="fil37" points="7168,3857 7108,3857 7108,3086 7168,3035 "/>
   <path class="fil37" d="M7090 2904l-24 0 -15 -64 0 -1 39 65zm-39 -65l0 0 0 0 0 0z"/>
   <polygon class="fil36" points="6994,3085 6934,3035 6934,3035 7013,2904 7036,2904 "/>
   <polygon class="fil37" points="6994,3857 6934,3857 6934,3035 6994,3085 6994,3086 "/>
   <polygon class="fil37" points="7036,2904 7013,2904 7051,2839 7051,2840 "/>
   <polygon class="fil38" points="7051,2839 7051,2839 7052,2839 "/>
   <polygon class="fil39" points="7051,2840 7051,2839 7051,2839 7051,2839 "/>
   <path class="fil19" d="M7101 4017l-102 0c-38,0 -68,-30 -68,-67l0 -93 237 0 0 93c0,37 -30,67 -67,67z"/>
   <polygon class="fil20" points="6931,3878 7168,3878 7168,3846 6931,3846 "/>
   <polygon class="fil14" points="7471,2697 7471,2697 7468,2681 7468,2682 7472,2697 7472,2697 "/>
   <polygon class="fil21" points="8031,3283 7832,3074 7832,3074 8031,3283 "/>
   <polygon class="fil40" points="7832,3074 7783,3024 7784,3023 7832,3074 "/>
   <polygon class="fil14" points="7783,3024 7471,2697 7472,2697 7784,3023 "/>
   <path class="fil21" d="M8075 3241l-41 -42 83 -78 40 42 -82 78zm133 -111l0 0z"/>
   <polygon class="fil41" points="8157,3163 8117,3121 8160,3079 8208,3130 8208,3130 8200,3121 "/>
   <polygon class="fil42" points="7472,2697 7472,2697 7468,2682 7482,2696 "/>
   <polygon class="fil41" points="8031,3283 7832,3074 7838,3069 7997,3235 8034,3199 8075,3241 "/>
   <polygon class="fil43" points="7832,3074 7784,3023 7789,3018 7838,3069 "/>
   <polygon class="fil42" points="7784,3023 7472,2697 7482,2696 7789,3018 "/>
   <path class="fil21" d="M8150 3381c-18,0 -36,-7 -49,-21l-64 -67 15 16 171 -164 49 52c26,27 25,70 -2,95l-73 71c-14,12 -30,18 -47,18zm67 -242l-9 -9 0 0 9 9z"/>
   <polygon class="fil21" points="8052,3309 8037,3293 8029,3285 8031,3283 8031,3283 8075,3241 8157,3163 8200,3121 8208,3130 8217,3139 8223,3145 "/>
   <polygon class="fil0" points="8166,3073 7997,3235 7429,2641 7378,2418 7598,2479 "/>
   <polygon class="fil7" points="8166,3073 7997,3235 7429,2641 7508,2635 7513,2559 7590,2557 7598,2479 "/>
   <polygon class="fil7" points="7451,2438 7395,2492 7378,2418 "/>
   <polygon class="fil44" points="7590,2557 7434,2455 7451,2438 7598,2479 "/>
   <polygon class="fil45" points="8123,3115 7590,2557 7598,2479 8166,3073 "/>
   <polygon class="fil45" points="7434,2455 7379,2418 7379,2418 7451,2438 "/>
   <polygon class="fil45" points="7379,2418 7378,2418 7379,2418 "/>
   <polygon class="fil44" points="7430,2641 7429,2641 7395,2492 7413,2475 7507,2635 "/>
   <polygon class="fil45" points="7997,3235 7430,2641 7507,2635 7508,2636 8040,3193 "/>
   <polygon class="fil45" points="7395,2492 7379,2418 7379,2418 7413,2475 "/>
   <polygon class="fil44" points="7379,2418 7379,2418 7378,2418 "/>
   <polygon class="fil46" points="7379,2418 7379,2418 7379,2418 7379,2418 "/>
   <path class="fil20" d="M8228 3236l-74 70c-27,26 -70,25 -95,-2l-64 -67 171 -164 64 67c26,27 25,70 -2,96z"/>
   <polygon class="fil12" points="8181,3089 8009,3253 7987,3229 8158,3065 "/>
   <polygon class="fil24" points="6205,4029 6205,4037 6197,4037 6197,4045 6213,4045 6213,4029 "/>
   <path class="fil24" d="M6150 4037l-23 0 0 8 23 0 0 -8zm-70 0l-24 0 0 8 24 0 0 -8zm-71 0l-24 0 0 8 24 0 0 -8zm-71 0l-23 0 0 8 23 0 0 -8zm-70 0l-24 0 0 8 24 0 0 -8zm-71 0l-23 0 0 8 23 0 0 -8zm-70 0l-24 0 0 8 24 0 0 -8zm-71 0l-24 0 0 8 24 0 0 -8zm-71 0l-23 0 0 8 23 0 0 -8zm-70 0l-24 0 0 8 24 0 0 -8z"/>
   <polygon class="fil24" points="5444,4037 5436,4037 5436,4029 5429,4029 5429,4045 5444,4045 "/>
   <path class="fil24" d="M5436 3982l0 -24 -7 0 0 24 7 0zm0 -72l0 -24 -7 0 0 24 7 0zm0 -72l0 -24 -7 0 0 24 7 0zm0 -72l0 -23 -7 0 0 23 7 0zm0 -71l0 -24 -7 0 0 24 7 0zm0 -72l0 -24 -7 0 0 24 7 0zm0 -72l0 -24 -7 0 0 24 7 0zm0 -71l0 -24 -7 0 0 24 7 0zm0 -72l0 -24 -7 0 0 24 7 0zm0 -72l0 -24 -7 0 0 24 7 0zm0 -72l0 -24 -7 0 0 24 7 0zm0 -71l0 -24 -7 0 0 24 7 0zm0 -72l0 -24 -7 0 0 24 7 0zm0 -72l0 -24 -7 0 0 24 7 0zm0 -71l0 -24 -7 0 0 24 7 0zm0 -72l0 -24 -7 0 0 24 7 0z"/>
   <polygon class="fil24" points="5436,2834 5436,2826 5444,2826 5444,2819 5429,2819 5429,2834 "/>
   <path class="fil24" d="M5491 2826l24 0 0 -7 -24 0 0 7zm71 0l23 0 0 -7 -23 0 0 7zm70 0l24 0 0 -7 -24 0 0 7zm71 0l24 0 0 -7 -24 0 0 7zm71 0l23 0 0 -7 -23 0 0 7zm70 0l24 0 0 -7 -24 0 0 7zm71 0l23 0 0 -7 -23 0 0 7zm70 0l24 0 0 -7 -24 0 0 7zm71 0l24 0 0 -7 -24 0 0 7zm71 0l23 0 0 -7 -23 0 0 7z"/>
   <polygon class="fil24" points="6197,2826 6205,2826 6205,2834 6213,2834 6213,2819 6197,2819 "/>
   <path class="fil24" d="M6205 2882l0 24 8 0 0 -24 -8 0zm0 72l0 24 8 0 0 -24 -8 0zm0 71l0 24 8 0 0 -24 -8 0zm0 72l0 24 8 0 0 -24 -8 0zm0 72l0 24 8 0 0 -24 -8 0zm0 71l0 24 8 0 0 -24 -8 0zm0 72l0 24 8 0 0 -24 -8 0zm0 72l0 24 8 0 0 -24 -8 0zm0 72l0 24 8 0 0 -24 -8 0zm0 71l0 24 8 0 0 -24 -8 0zm0 72l0 24 8 0 0 -24 -8 0zm0 72l0 24 8 0 0 -24 -8 0zm0 72l0 23 8 0 0 -23 -8 0zm0 71l0 24 8 0 0 -24 -8 0zm0 72l0 24 8 0 0 -24 -8 0zm0 72l0 24 8 0 0 -24 -8 0z"/>
   <polygon class="fil24" points="5897,3912 5897,3920 5889,3920 5889,3927 5904,3927 5904,3912 "/>
   <path class="fil24" d="M5843 3920l-24 0 0 7 24 0 0 -7zm-70 0l-23 0 0 7 23 0 0 -7zm-70 0l-23 0 0 7 23 0 0 -7zm-69 0l-24 0 0 7 24 0 0 -7zm-70 0l-23 0 0 7 23 0 0 -7zm-70 0l-23 0 0 7 23 0 0 -7zm-69 0l-24 0 0 7 24 0 0 -7zm-70 0l-23 0 0 7 23 0 0 -7zm-70 0l-23 0 0 7 23 0 0 -7zm-69 0l-23 0 0 7 23 0 0 -7zm-70 0l-23 0 0 7 23 0 0 -7zm-70 0l-23 0 0 7 23 0 0 -7zm-69 0l-23 0 0 7 23 0 0 -7zm-70 0l-23 0 0 7 23 0 0 -7zm-69 0l-24 0 0 7 24 0 0 -7zm-70 0l-23 0 0 7 23 0 0 -7zm-70 0l-23 0 0 7 23 0 0 -7zm-69 0l-24 0 0 7 24 0 0 -7zm-70 0l-23 0 0 7 23 0 0 -7zm-70 0l-23 0 0 7 23 0 0 -7zm-69 0l-24 0 0 7 24 0 0 -7zm-70 0l-23 0 0 7 23 0 0 -7zm-70 0l-23 0 0 7 23 0 0 -7zm-69 0l-23 0 0 7 23 0 0 -7zm-70 0l-23 0 0 7 23 0 0 -7zm-70 0l-23 0 0 7 23 0 0 -7zm-69 0l-23 0 0 7 23 0 0 -7zm-70 0l-23 0 0 7 23 0 0 -7zm-70 0l-23 0 0 7 23 0 0 -7zm-69 0l-23 0 0 7 23 0 0 -7zm-70 0l-23 0 0 7 23 0 0 -7zm-69 0l-24 0 0 7 24 0 0 -7z"/>
   <polygon class="fil24" points="3614,3920 3606,3920 3606,3912 3598,3912 3598,3927 3614,3927 "/>
   <path class="fil24" d="M3606 3865l0 -23 -8 0 0 23 8 0zm0 -70l0 -24 -8 0 0 24 8 0zm0 -71l0 -23 -8 0 0 23 8 0zm0 -70l0 -23 -8 0 0 23 8 0zm0 -70l0 -24 -8 0 0 24 8 0zm0 -71l0 -23 -8 0 0 23 8 0zm0 -70l0 -23 -8 0 0 23 8 0zm0 -70l0 -24 -8 0 0 24 8 0zm0 -71l0 -23 -8 0 0 23 8 0zm0 -70l0 -23 -8 0 0 23 8 0zm0 -70l0 -24 -8 0 0 24 8 0zm0 -70l0 -24 -8 0 0 24 8 0zm0 -71l0 -23 -8 0 0 23 8 0zm0 -70l0 -24 -8 0 0 24 8 0zm0 -70l0 -24 -8 0 0 24 8 0zm0 -71l0 -23 -8 0 0 23 8 0zm0 -70l0 -23 -8 0 0 23 8 0zm0 -70l0 -24 -8 0 0 24 8 0zm0 -71l0 -23 -8 0 0 23 8 0zm0 -70l0 -23 -8 0 0 23 8 0zm0 -70l0 -24 -8 0 0 24 8 0z"/>
   <polygon class="fil24" points="3606,2388 3606,2381 3614,2381 3614,2373 3598,2373 3598,2388 "/>
   <path class="fil24" d="M3660 2381l24 0 0 -8 -24 0 0 8zm70 0l23 0 0 -8 -23 0 0 8zm70 0l23 0 0 -8 -23 0 0 8zm69 0l23 0 0 -8 -23 0 0 8zm70 0l23 0 0 -8 -23 0 0 8zm70 0l23 0 0 -8 -23 0 0 8zm69 0l23 0 0 -8 -23 0 0 8zm70 0l23 0 0 -8 -23 0 0 8zm70 0l23 0 0 -8 -23 0 0 8zm69 0l23 0 0 -8 -23 0 0 8zm70 0l23 0 0 -8 -23 0 0 8zm69 0l24 0 0 -8 -24 0 0 8zm70 0l23 0 0 -8 -23 0 0 8zm70 0l23 0 0 -8 -23 0 0 8zm69 0l24 0 0 -8 -24 0 0 8zm70 0l23 0 0 -8 -23 0 0 8zm70 0l23 0 0 -8 -23 0 0 8zm69 0l24 0 0 -8 -24 0 0 8zm70 0l23 0 0 -8 -23 0 0 8zm70 0l23 0 0 -8 -23 0 0 8zm69 0l23 0 0 -8 -23 0 0 8zm70 0l23 0 0 -8 -23 0 0 8zm70 0l23 0 0 -8 -23 0 0 8zm69 0l23 0 0 -8 -23 0 0 8zm70 0l23 0 0 -8 -23 0 0 8zm69 0l24 0 0 -8 -24 0 0 8zm70 0l23 0 0 -8 -23 0 0 8zm70 0l23 0 0 -8 -23 0 0 8zm69 0l24 0 0 -8 -24 0 0 8zm70 0l23 0 0 -8 -23 0 0 8zm70 0l23 0 0 -8 -23 0 0 8zm69 0l24 0 0 -8 -24 0 0 8z"/>
   <polygon class="fil24" points="5889,2381 5897,2381 5897,2388 5904,2388 5904,2373 5889,2373 "/>
   <path class="fil24" d="M5897 2435l0 24 7 0 0 -24 -7 0zm0 71l0 23 7 0 0 -23 -7 0zm0 70l0 23 7 0 0 -23 -7 0zm0 70l0 24 7 0 0 -24 -7 0zm0 71l0 23 7 0 0 -23 -7 0zm0 70l0 23 7 0 0 -23 -7 0zm0 70l0 24 7 0 0 -24 -7 0zm0 70l0 24 7 0 0 -24 -7 0zm0 71l0 23 7 0 0 -23 -7 0zm0 70l0 24 7 0 0 -24 -7 0zm0 70l0 24 7 0 0 -24 -7 0zm0 71l0 23 7 0 0 -23 -7 0zm0 70l0 23 7 0 0 -23 -7 0zm0 70l0 24 7 0 0 -24 -7 0zm0 71l0 23 7 0 0 -23 -7 0zm0 70l0 23 7 0 0 -23 -7 0zm0 70l0 24 7 0 0 -24 -7 0zm0 71l0 23 7 0 0 -23 -7 0zm0 70l0 23 7 0 0 -23 -7 0zm0 70l0 24 7 0 0 -24 -7 0zm0 71l0 23 7 0 0 -23 -7 0z"/>
   <path class="fil23" d="M4752 3726c-1,0 -1,0 -1,0 0,0 0,0 1,0zm-1 0c-1,0 -1,0 -1,0 0,0 0,0 1,0zm-1 0c-1,0 -1,0 -1,0 0,0 0,0 1,0zm-1 0c-1,0 -1,0 -1,0 0,0 0,0 1,0zm-1 0c-1,0 -1,0 -1,0 0,0 0,0 1,0zm-1 0c-1,0 -1,0 -1,0 0,0 0,0 1,0zm-1 0c-1,0 -1,0 -1,0 0,0 0,0 1,0zm-1 0c-1,0 -1,0 -1,0 0,0 0,0 1,0zm-1 0c-1,0 -2,0 -2,0 0,0 1,0 2,0zm-2 0c-1,0 -1,0 -1,0 0,0 0,0 1,0zm-1 0c-1,0 -1,0 -1,0 0,0 0,0 1,0zm-1 0c-1,0 -1,0 -2,0 1,0 1,0 2,0zm-2 0c0,0 -1,0 -1,0 0,0 1,0 1,0zm-1 0c0,0 -1,0 -1,0 0,0 1,0 1,0zm-1 0c-134,-5 -248,-69 -300,-160 0,0 0,0 0,0 52,91 166,155 300,160zm361 -270c0,-1 0,-1 0,-1 0,0 0,0 0,1l0 0zm0 -1c0,0 0,0 0,0 0,0 0,0 0,0zm0 -1c0,0 0,0 0,-1 0,1 0,1 0,1zm0 -1c0,0 0,0 0,0 0,0 0,0 0,0zm0 0c0,-3 0,-5 0,-8l0 0c0,3 0,5 0,8z"/>
   <path class="fil47" d="M4751 3726c0,0 0,0 0,0 0,0 0,0 0,0zm-1 0c0,0 0,0 0,0 0,0 0,0 0,0zm-1 0c0,0 0,0 0,0 0,0 0,0 0,0zm-1 0c0,0 0,0 0,0 0,0 0,0 0,0zm-1 0c0,0 0,0 0,0 0,0 0,0 0,0zm-1 0c0,0 0,0 0,0 0,0 0,0 0,0zm-1 0c0,0 0,0 0,0 0,0 0,0 0,0zm-1 0c0,0 0,0 0,0 0,0 0,0 0,0zm-2 0c0,0 0,0 0,0 0,0 0,0 0,0zm-1 0c0,0 0,0 0,0 0,0 0,0 0,0zm-1 0c0,0 0,0 0,0 0,0 0,0 0,0zm-2 0l0 0 0 0zm-1 0c0,0 0,0 0,0 0,0 0,0 0,0zm-1 0c0,0 0,0 0,0 0,0 0,0 0,0zm361 -271c0,0 0,0 0,0 0,0 0,0 0,0zm0 0c0,0 0,-1 0,-1 0,0 0,1 0,1zm0 -2c0,0 0,0 0,0 0,0 0,0 0,0zm0 0c0,0 0,0 0,0l0 0z"/>
   <path class="fil48" d="M4752 3726l0 0c-1,0 -1,0 -1,0 0,0 0,0 0,0 -1,0 -1,0 -1,0 0,0 0,0 0,0 -1,0 -1,0 -1,0 0,0 0,0 0,0 -1,0 -1,0 -1,0 0,0 0,0 0,0 -1,0 -1,0 -1,0 0,0 0,0 0,0 -1,0 -1,0 -1,0 0,0 0,0 0,0 -1,0 -1,0 -1,0 0,0 0,0 0,0 -1,0 -1,0 -1,0 0,0 0,0 0,0 -1,0 -2,0 -2,0 0,0 0,0 0,0 -1,0 -1,0 -1,0 0,0 0,0 0,0 -1,0 -1,0 -1,0 0,0 0,0 0,0 -1,0 -1,0 -2,0l0 0c0,0 -1,0 -1,0 0,0 0,0 0,0 0,0 -1,0 -1,0 0,0 0,0 0,0 -134,-5 -248,-69 -300,-160 60,62 154,104 261,108 0,0 0,0 0,0 0,0 1,0 1,0 0,0 0,0 0,0 0,0 0,0 1,0 0,0 0,0 0,0 0,0 1,0 2,0 0,0 0,0 0,0 0,0 0,0 1,0 0,0 0,0 0,0 0,0 0,0 1,0 0,0 0,0 0,0 0,0 1,0 2,0 0,0 0,0 0,0 0,0 0,0 1,0 0,0 0,0 0,0 0,0 0,0 1,0 0,0 0,0 0,0 0,0 0,0 1,0 0,0 0,0 0,0 0,0 0,0 1,0 0,0 0,0 0,0 0,0 0,0 1,0 0,0 0,0 0,0 0,0 0,0 1,0 0,0 0,0 0,0 0,0 0,0 1,0 0,0 0,0 0,0 0,0 0,0 1,0l0 0c172,0 315,-99 341,-229l43 0c0,3 0,5 0,8 0,0 0,0 0,0 0,0 0,0 0,0 0,0 0,0 0,0 0,1 0,1 0,1 0,0 0,1 0,1 0,0 0,0 0,0 0,0 0,0 0,0 0,0 0,0 0,1 0,149 -155,270 -345,270z"/>
   <path class="fil15" d="M5585 1816c-5,-20 -11,-40 -18,-59l0 0c7,19 13,39 18,59l0 0zm-23 -73c-34,-98 -83,-187 -145,-263 -1,0 -1,-1 -1,-1 62,77 112,166 146,264l0 0z"/>
   <path class="fil16" d="M5567 1757c-1,-5 -3,-9 -5,-14l0 0c2,5 4,9 5,14l0 0z"/>
   <polygon class="fil14" points="5585,1816 5585,1816 5585,1816 5585,1816 "/>
   <path class="fil27" d="M5609 1929l0 0c-6,-39 -14,-77 -24,-113l0 0c10,36 18,74 24,113z"/>
   <path class="fil23" d="M5618 2016c-2,-29 -5,-58 -9,-87l0 0c4,29 7,58 9,87z"/>
   <path class="fil49" d="M4122 2704l0 0c-8,-11 -17,-21 -26,-32 -21,-24 -40,-49 -59,-75 7,8 13,16 20,23 9,11 17,21 26,32 0,0 0,0 0,0 13,17 27,34 39,52z"/>
   <path class="fil23" d="M5619 2029c0,0 0,0 0,0l0 0zm0 -3c0,0 0,0 0,0 0,0 0,0 0,0zm0 -1c0,-1 0,-1 0,-1 0,0 0,0 0,1zm0 -2c0,0 0,0 0,0 0,0 0,0 0,0zm0 -1c0,-1 0,-1 0,-1 0,0 0,0 0,1zm0 -2c0,0 0,0 0,-1 0,1 0,1 0,1zm0 -1c0,0 0,-1 0,-1 0,0 0,1 0,1zm0 -1c0,-1 -1,-1 -1,-2 0,1 1,1 1,2z"/>
   <path class="fil23" d="M4207 3281c-11,-11 -19,-24 -23,-40 12,7 25,11 38,11l39 0c-5,2 -9,5 -13,9l-35 0c-8,0 -15,-1 -22,-4 4,9 9,17 16,24zm1089 -2c15,-15 24,-37 24,-61l0 3c0,23 -9,43 -24,58zm-104 -18l-16 0c-4,-4 -8,-7 -12,-9l37 0c18,0 34,-6 47,-16 -15,15 -35,25 -56,25zm128 -43c0,-25 -9,-48 -25,-64 16,15 25,37 25,60l0 4z"/>
   <path class="fil47" d="M5240 3304l-37 0 34 0c23,0 44,-9 59,-25 -14,16 -34,25 -56,25zm-1015 -9c-6,-4 -13,-9 -18,-14 5,5 12,10 19,13 0,1 0,1 -1,1zm1070 -141c-5,-4 -10,-8 -16,-12 0,0 0,0 0,0 6,3 11,7 16,12z"/>
   <path class="fil48" d="M5237 3304l-34 0c-1,0 -2,-1 -3,-1 -3,-15 -10,-29 -20,-39 -1,-1 -3,-2 -4,-3l16 0c21,0 41,-10 56,-25 3,-3 6,-6 9,-9 15,-15 24,-35 24,-58l0 -7c0,-7 -1,-13 -2,-20 6,4 11,8 16,12 16,16 25,39 25,64l0 0c0,24 -9,46 -24,61 -15,16 -36,25 -59,25zm-1011 -10c-7,-3 -14,-8 -19,-13 -7,-7 -12,-15 -16,-24 7,3 14,4 22,4l35 0c-10,9 -18,20 -22,33z"/>
   <path class="fil23" d="M4283 3425c-10,-10 -18,-24 -20,-39 8,4 18,7 28,7l77 0c-1,3 -1,7 -1,11 0,1 0,2 0,4l-79 0c-6,0 -13,-1 -19,-3 4,7 9,14 14,20zm937 -1c13,-14 20,-33 20,-53l0 2c0,20 -7,38 -20,51zm-90 -16l-72 0c0,-2 0,-3 0,-4l0 0c0,-1 0,-1 0,-1 0,0 0,0 0,0 0,0 0,0 0,-1 0,0 0,0 0,0 0,0 0,0 0,-1 0,0 0,0 0,0 0,0 0,0 0,0 0,0 0,0 0,0 0,-3 0,-6 -1,-8l76 0c18,0 35,-8 48,-22 7,-7 13,-17 17,-28 -5,37 -34,65 -68,65zm110 -37c0,-22 -8,-41 -21,-55 13,13 21,31 21,52l0 3z"/>
   <path class="fil47" d="M5172 3445l-75 0 72 0c20,0 38,-8 51,-21 -13,13 -30,21 -48,21zm-801 0l-41 0c-18,0 -35,-8 -47,-20 13,12 31,20 50,20l38 0 0 0z"/>
   <path class="fil47" d="M5219 3316c-5,-5 -11,-9 -17,-12l1 0c6,3 11,7 16,12z"/>
   <path class="fil50" d="M5203 3304l-1 0c-1,0 -1,0 -2,-1 0,0 0,0 0,0 1,0 2,1 3,1z"/>
   <path class="fil48" d="M5169 3445l-115 0c2,-12 3,-25 4,-37l72 0c34,0 63,-28 68,-65 2,-6 3,-14 3,-22l0 -6c0,-4 0,-8 -1,-12 1,1 1,1 2,1l0 0c6,3 12,7 17,12 13,14 21,33 21,55l0 0c0,20 -7,39 -20,53 -13,13 -31,21 -51,21zm-798 0l-38 0c-19,0 -37,-8 -50,-20 -5,-6 -10,-13 -14,-20 6,2 13,3 19,3l79 0c1,12 2,25 4,37z"/>
   <path class="fil51" d="M5620 2043c0,-5 0,-10 -1,-14 1,4 1,9 1,14zm-1 -14c0,-1 0,-2 0,-3 0,1 0,2 0,3zm0 -3c0,-1 0,-1 0,-1 0,0 0,0 0,1zm0 -2c0,0 0,-1 0,-1 0,0 0,1 0,1zm0 -1c0,-1 0,-1 0,-1 0,0 0,0 0,1zm0 -2c0,0 0,0 0,-1 0,1 0,1 0,1zm0 -2c0,0 0,0 0,0 0,0 0,0 0,0zm0 -1c0,0 0,0 0,0 0,0 0,0 0,0zm-1 -2l0 0c0,0 0,0 0,0z"/>
   <path class="fil52" d="M5563 1837c-5,-26 -11,-51 -18,-76l22 -4c7,19 13,39 18,59l-22 21zm-22 -90c-28,-98 -70,-188 -124,-267 62,76 111,165 145,263l-21 4z"/>
   <path class="fil53" d="M5545 1761c-1,-5 -2,-10 -4,-14l21 -4c2,5 4,9 5,14l-22 4z"/>
   <polygon class="fil54" points="5563,1837 5563,1837 5585,1816 5585,1816 "/>
   <path class="fil29" d="M5609 1929l-33 0c-3,-31 -8,-62 -13,-92l22 -21c10,36 18,74 24,113z"/>
   <path class="fil55" d="M5158 3079l-66 0 110 -214c45,-88 98,-171 162,-245 136,-157 218,-361 218,-584 0,-15 0,-30 -1,-45l0 0c-1,-18 -2,-35 -4,-52l0 0c0,0 0,-1 0,-1 0,0 0,0 0,0 0,-1 0,-1 0,-2 0,0 0,0 0,0 0,-1 0,-1 0,-1 0,0 0,-1 0,-1 0,0 0,0 0,0 0,-1 0,-1 0,-1 0,-1 0,-1 0,-1 -1,-1 -1,-2 -1,-3l33 0c4,29 7,58 9,87l0 0c0,1 1,1 1,2 0,0 0,0 0,0 0,0 0,1 0,1 0,0 0,0 0,0 0,1 0,1 0,1 0,1 0,1 0,1 0,0 0,0 0,1 0,0 0,0 0,1 0,0 0,0 0,0 0,0 0,1 0,1 0,0 0,0 0,1 0,0 0,0 0,1 0,0 0,0 0,0 0,1 0,2 0,3 0,0 0,0 0,0 1,4 1,9 1,14l0 0c1,15 1,30 1,45 0,223 -82,428 -218,584 -64,75 -117,158 -162,245l-83 162zm383 -706l0 8 23 0 0 -8 -23 0z"/>
   <polygon class="fil56" points="5541,2381 5564,2381 5564,2373 5541,2373 "/>
   <path class="fil57" d="M4123 2705c0,0 -1,-1 -1,-1 0,0 0,0 0,0 0,0 0,0 0,0 1,1 1,1 1,1z"/>
   <path class="fil58" d="M4122 2704c0,0 0,0 0,0l0 0c0,0 0,0 0,0z"/>
   <path class="fil59" d="M4367 3404c0,149 155,270 346,270 190,0 345,-121 345,-270 0,-150 -155,-271 -345,-271 -191,0 -346,121 -346,271z"/>
   <path class="fil60" d="M4712 3674c0,0 0,0 0,0 0,0 0,0 0,0zm-1 0c0,0 0,0 0,0 0,0 0,0 0,0zm-1 0c0,0 0,0 0,0 0,0 0,0 0,0zm-1 0c0,0 0,0 0,0 0,0 0,0 0,0zm-1 0c0,0 0,0 0,0 0,0 0,0 0,0zm-1 0c0,0 0,0 0,0 0,0 0,0 0,0zm-1 0c0,0 0,0 0,0 0,0 0,0 0,0zm-1 0c0,0 0,0 0,0 0,0 0,0 0,0zm-2 0c0,0 0,0 0,0 0,0 0,0 0,0zm-1 0c0,0 0,0 0,0 0,0 0,0 0,0zm-1 0c0,0 0,0 0,0 0,0 0,0 0,0zm-2 0c0,0 0,0 0,0 0,0 0,0 0,0zm-1 0c0,0 0,0 0,0 0,0 0,0 0,0zm-1 0c0,0 0,0 0,0 0,0 0,0 0,0z"/>
   <path class="fil61" d="M5058 3403c0,0 0,0 0,0 0,0 0,0 0,0zm0 -1c0,0 0,0 0,0 0,0 0,0 0,0zm0 -1c0,0 0,0 0,0 0,0 0,0 0,0zm0 0c0,0 0,0 0,0 0,0 0,0 0,0z"/>
   <path class="fil62" d="M4713 3674l0 0c-1,0 -1,0 -1,0 0,0 0,0 0,0 -1,0 -1,0 -1,0 0,0 0,0 0,0 -1,0 -1,0 -1,0 0,0 0,0 0,0 -1,0 -1,0 -1,0 0,0 0,0 0,0 -1,0 -1,0 -1,0 0,0 0,0 0,0 -1,0 -1,0 -1,0 0,0 0,0 0,0 -1,0 -1,0 -1,0 0,0 0,0 0,0 -1,0 -1,0 -1,0 0,0 0,0 0,0 -1,0 -2,0 -2,0 0,0 0,0 0,0 -1,0 -1,0 -1,0 0,0 0,0 0,0 -1,0 -1,0 -1,0 0,0 0,0 0,0 -1,0 -2,0 -2,0 0,0 0,0 0,0 -1,0 -1,0 -1,0 0,0 0,0 0,0 -1,0 -1,0 -1,0 0,0 0,0 0,0 -161,-6 -294,-98 -323,-219 59,81 171,135 299,135 158,0 292,-83 332,-197l52 0c1,2 1,5 1,8 0,0 0,0 0,0 0,0 0,0 0,0 0,0 0,0 0,0 0,1 0,1 0,1 0,0 0,0 0,0 0,1 0,1 0,1 0,0 0,0 0,0 0,0 0,0 0,1 0,1 0,2 0,4 -1,12 -2,25 -4,37l0 0c-26,130 -169,229 -341,229z"/>
   <path class="fil19" d="M3840 1991c23,-480 357,-851 838,-850 13,0 26,0 40,1 13,-1 26,-1 40,-1 480,-1 800,370 823,850 12,241 -72,462 -217,629 -64,74 -117,157 -162,245l-110 214 -763 0 -110 -214c-45,-88 -98,-171 -162,-245 -145,-167 -229,-388 -217,-629z"/>
   <path class="fil59" d="M4226 3252l972 0c46,0 83,-37 83,-83l0 -7c0,-46 -37,-83 -83,-83l-972 0c-46,0 -83,37 -83,83l0 7c0,46 37,83 83,83z"/>
   <path class="fil61" d="M5201 3252l-37 0 34 0c19,0 37,-6 51,-17 -1,0 -1,1 -1,1 -13,10 -29,16 -47,16z"/>
   <path class="fil60" d="M5248 3236c0,0 0,-1 1,-1 3,-3 6,-5 8,-8 -3,3 -6,6 -9,9z"/>
   <path class="fil63" d="M4184 3241c-6,-3 -11,-7 -16,-13 5,5 10,9 16,13 0,0 0,0 0,0z"/>
   <path class="fil61" d="M4261 3252l-39 0c-13,0 -26,-4 -38,-11 0,0 0,0 0,0 12,7 27,11 42,11l35 0 0 0z"/>
   <path class="fil63" d="M5256 3102c-9,-8 -20,-15 -32,-19 0,0 -1,0 -1,-1 13,4 24,11 33,20z"/>
   <path class="fil62" d="M5198 3252l-34 0c-4,-2 -8,-4 -12,-5 0,0 0,0 0,0 -7,-2 -15,-3 -22,-3l-836 0c-12,0 -23,3 -33,8l-35 0c-15,0 -30,-4 -42,-11 -6,-4 -11,-8 -16,-13 -7,-6 -12,-14 -16,-23 7,2 14,4 22,4l978 0c45,0 80,-39 80,-87 0,-14 -3,-27 -8,-39 12,4 23,11 32,19 15,16 25,39 25,63l0 0c0,25 -9,47 -24,62 -2,3 -5,5 -8,8 -14,11 -32,17 -51,17z"/>
   <path class="fil59" d="M4294 3393l836 0c39,0 71,-32 71,-72l0 -6c0,-39 -32,-71 -71,-71l-836 0c-40,0 -72,32 -72,71l0 6c0,40 32,72 72,72z"/>
   <path class="fil61" d="M5133 3393l-76 0 73 0c20,0 38,-8 51,-22 -13,14 -30,22 -48,22z"/>
   <path class="fil63" d="M4263 3386c-7,-3 -13,-8 -19,-13 6,5 12,9 19,13 0,0 0,0 0,0z"/>
   <path class="fil61" d="M4368 3393l-77 0c-10,0 -20,-3 -28,-7 0,0 0,0 0,0 9,4 20,7 31,7l74 0 0 0z"/>
   <path class="fil61" d="M5176 3261l0 0c-4,-4 -8,-7 -13,-9l1 0c4,2 8,5 12,9z"/>
   <path class="fil60" d="M5180 3264c-2,-1 -3,-2 -4,-3l0 0c1,1 3,2 4,3z"/>
   <path class="fil64" d="M5164 3252l-1 0c-4,-2 -7,-3 -11,-5 0,0 0,0 0,0 4,1 8,3 12,5z"/>
   <path class="fil62" d="M5130 3393l-73 0 -763 0c-11,0 -22,-3 -31,-7 -7,-4 -13,-8 -19,-13 -5,-6 -10,-13 -14,-20 6,2 13,3 19,3l842 0c38,0 68,-34 68,-75 0,-12 -2,-23 -7,-34 4,2 7,3 11,5l0 0c5,2 9,5 13,9 1,1 2,2 4,3 13,14 21,33 21,54l0 0c0,21 -8,40 -20,53 -13,14 -31,22 -51,22z"/>
   <path class="fil65" d="M4212 2851c0,-1 0,-1 -1,-1 1,0 1,0 1,1zm-1 -1c0,0 0,-1 0,-1 0,0 0,1 0,1zm0 -1c-11,-20 -22,-39 -33,-59l0 0c11,20 22,39 33,59z"/>
   <path class="fil66" d="M4178 2790c-17,-29 -35,-57 -55,-85 0,1 0,1 1,1 19,27 37,55 54,84l0 0z"/>
   <path class="fil67" d="M4122 2704l0 0c-12,-18 -26,-35 -39,-52 0,0 0,0 0,0 14,17 27,34 39,52z"/>
   <path class="fil68" d="M4124 2706c-1,0 -1,0 -1,-1 0,0 0,0 -1,-1 1,1 1,1 1,1 0,0 0,1 1,1z"/>
   <path class="fil69" d="M4123 2705c0,0 0,0 -1,-1 0,0 0,0 0,0l0 0c0,0 1,1 1,1z"/>
   <path class="fil70" d="M5581 1991c-1,-18 -2,-35 -4,-52 2,17 3,34 4,52zm-4 -52c0,0 0,-1 0,-1 0,0 0,1 0,1zm0 -1c0,-1 0,-1 0,-2 0,1 0,1 0,2zm0 -2c0,0 0,-1 0,-1 0,0 0,0 0,1zm0 -2c0,0 0,0 0,0 0,0 0,0 0,0zm0 -1c0,-1 0,-1 0,-1 0,0 0,0 0,1z"/>
   <path class="fil71" d="M5092 3079l-763 0 -110 -214 0 0c-2,-5 -5,-10 -7,-14 0,-1 0,-1 -1,-1 0,0 0,0 0,0 0,0 0,-1 0,-1 0,0 0,0 0,0 -11,-20 -22,-39 -33,-59 -17,-29 -35,-57 -54,-84 -1,0 -1,-1 -1,-1 0,0 -1,-1 -1,-1 -12,-18 -25,-35 -39,-52 97,20 191,30 281,30 779,0 1288,-710 978,-1295 130,140 213,330 235,545 0,0 0,0 0,1 0,0 0,0 0,1 0,0 0,0 0,0 0,0 0,1 0,1 0,0 0,1 0,1 0,0 0,0 0,0 0,1 0,1 0,2 0,0 0,0 0,0 0,0 0,1 0,1l0 0c2,17 3,34 4,52l0 0c1,15 1,30 1,45 0,223 -82,427 -218,584 -64,74 -117,157 -162,245l-110 214z"/>
   <polygon class="fil72" points="5092,3079 4329,3079 "/>
   <path class="fil73" d="M4114 2449c0,0 -346,-487 -44,-890 197,-261 440,-307 587,-307 80,0 131,14 131,14 -851,404 -674,1183 -674,1183z"/>
   <path class="fil59" d="M5108 1923l-244 1121 7 2 -7 -2c-12,48 -56,82 -106,82l-93 0c-53,0 -99,-38 -108,-91l0 0 -257 -1186 -14 3 257 1186 7 -1 -7 1c10,59 62,102 122,102l93 0c57,0 106,-38 120,-93l0 0 244 -1121 -14 -3z"/>
   <path class="fil59" d="M5187 2237c0,0 -24,-48 -57,-96 -17,-24 -36,-48 -56,-66 -20,-18 -42,-31 -64,-31 -11,-1 -22,3 -32,10 -10,7 -19,18 -28,33 -11,20 -21,33 -30,40 -9,8 -17,11 -25,11 -7,0 -15,-3 -23,-7 -12,-5 -25,-15 -39,-23 -15,-8 -31,-15 -48,-15 -18,0 -38,8 -58,26 -28,24 -51,45 -72,60 -21,15 -38,23 -54,23 -12,0 -24,-5 -37,-18 -13,-12 -27,-33 -41,-63 -34,-71 -112,-107 -184,-107 -36,0 -70,9 -98,27 -28,18 -49,45 -56,82l14 3c7,-33 25,-57 50,-73 25,-16 57,-24 90,-24 68,0 140,34 171,98 15,31 29,53 44,67 15,15 31,22 47,22 21,0 41,-10 62,-25 22,-16 46,-37 73,-61 19,-17 34,-22 49,-22 18,0 36,10 54,21 9,5 18,11 27,15 9,5 19,8 29,8 11,0 23,-4 34,-13 11,-10 22,-24 34,-45 8,-14 15,-23 23,-28 8,-6 16,-8 24,-8 16,0 35,10 54,28 29,25 56,65 77,98 10,17 18,31 24,42 3,5 5,10 6,13 2,3 3,4 3,4l13 -6z"/>
   <polygon class="fil24" points="3332,3924 3339,3924 3339,2395 3332,2395 "/>
   <polygon class="fil24" points="3288,2449 3381,2449 3381,2441 3288,2441 "/>
   <polygon class="fil24" points="3288,2568 3381,2568 3381,2561 3288,2561 "/>
   <polygon class="fil24" points="3288,2688 3381,2688 3381,2680 3288,2680 "/>
   <polygon class="fil24" points="3288,2807 3381,2807 3381,2800 3288,2800 "/>
   <polygon class="fil24" points="3262,2930 3407,2930 3407,2917 3262,2917 "/>
   <polygon class="fil24" points="3288,3046 3381,3046 3381,3039 3288,3039 "/>
   <polygon class="fil24" points="3288,3166 3381,3166 3381,3158 3288,3158 "/>
   <polygon class="fil24" points="3288,3285 3381,3285 3381,3278 3288,3278 "/>
   <polygon class="fil24" points="3288,3405 3381,3405 3381,3397 3288,3397 "/>
   <polygon class="fil24" points="3249,3527 3420,3527 3420,3514 3249,3514 "/>
   <polygon class="fil24" points="3288,3644 3381,3644 3381,3636 3288,3636 "/>
   <polygon class="fil24" points="3288,3763 3381,3763 3381,3755 3288,3755 "/>
   <polygon class="fil24" points="3288,3883 3381,3883 3381,3875 3288,3875 "/>
   <path class="fil0" d="M3155 2932l10 -1c1,5 2,9 5,11 2,2 6,3 9,3 5,0 9,-1 12,-5 3,-3 4,-7 4,-13 0,-5 -1,-9 -4,-12 -3,-3 -7,-5 -12,-5 -3,0 -5,1 -8,2 -2,2 -4,3 -5,6l-9 -2 7 -38 37 0 0 9 -29 0 -4 20c4,-3 9,-5 14,-5 6,0 12,2 16,7 5,4 7,10 7,17 0,7 -2,13 -6,18 -5,6 -11,9 -20,9 -6,0 -12,-2 -16,-6 -5,-4 -7,-9 -8,-15z"/>
   <path class="fil0" d="M3145 3548l-9 0 0 -59c-2,2 -5,5 -8,7 -4,2 -7,3 -10,4l0 -9c5,-2 10,-5 13,-8 4,-4 7,-7 9,-10l5 0 0 75z"/>
   <path id="1" class="fil0" d="M3169 3511c0,-9 1,-16 3,-21 2,-6 4,-10 8,-13 3,-3 8,-4 13,-4 4,0 8,1 11,2 3,2 5,4 7,7 2,3 4,7 5,11 1,5 2,10 2,18 0,9 -1,16 -3,21 -2,6 -5,10 -8,13 -4,3 -8,4 -14,4 -7,0 -12,-3 -17,-8 -4,-6 -7,-16 -7,-30zm9 0c0,12 2,20 5,24 3,4 6,6 10,6 5,0 8,-2 11,-6 3,-4 4,-12 4,-24 0,-12 -1,-21 -4,-25 -3,-4 -6,-6 -11,-6 -4,0 -7,2 -10,6 -3,4 -5,13 -5,25z"/>
   <path class="fil0" d="M2399 1840l412 0 0 -519 408 0c69,0 132,28 178,74 45,45 73,108 73,178l0 758 17 0 0 -758c0,-148 -120,-268 -268,-268l-424 0 0 519 -396 0 0 16z"/>
   <path class="fil0" d="M2323 1397l-248 -126 -124 93 42 282 352 152 -156 -207c-14,-19 -34,-33 -57,-38 -16,-3 -31,-14 -40,-32 -9,-20 -6,-44 8,-61 25,-29 69,-27 91,2 9,13 13,28 11,42 -3,24 5,49 20,68l152 203 -51 -378z"/>
   <path class="fil20" d="M2054 1273l-95 71c-14,11 -33,10 -46,-2l-75 -68c-17,-15 -16,-42 2,-55l126 -95c18,-14 44,-7 54,13l44 91c8,15 4,34 -10,45z"/>
   <path class="fil74" d="M2345 1798l0 0 -13 -18 0 0 13 18zm-33 -44l-123 -163 123 163 0 0z"/>
   <polygon class="fil75" points="2332,1780 2312,1754 2312,1754 2332,1780 "/>
   <path class="fil74" d="M2087 1497c0,-13 4,-26 13,-37 3,-3 6,-6 9,-8l0 0c-3,2 -6,5 -9,8 -9,11 -13,24 -13,37z"/>
   <path class="fil76" d="M2345 1798l-352 -152 -28 -185 -2 -15 -12 -82 59 -44 99 132c-3,2 -6,5 -9,8 -9,11 -13,24 -13,37 0,8 2,16 5,24 9,18 24,29 40,32 23,5 43,19 57,38l0 0 123 163 20 26 13 18z"/>
   <path class="fil77" d="M1937 1351c-9,0 -17,-3 -24,-9l-75 -68c-8,-7 -12,-17 -12,-27 0,-10 5,-21 14,-28l126 -95c6,-5 14,-7 21,-7 14,0 26,7 33,20l44 91c3,5 4,10 4,16 0,11 -5,22 -14,29l-95 71c-7,5 -14,7 -22,7z"/>
   <path class="fil7" d="M2090 1259l-156 118c-8,6 -18,4 -23,-3 -6,-7 -4,-18 3,-23l156 -118c7,-5 18,-3 23,4 5,7 4,17 -3,22z"/>
   <path class="fil0" d="M2836 1832c0,18 -15,33 -33,33 -18,0 -33,-15 -33,-33 0,-18 15,-33 33,-33 18,0 33,15 33,33z"/>
   <path class="fil0" d="M2432 1832c0,18 -15,33 -33,33 -18,0 -33,-15 -33,-33 0,-18 15,-33 33,-33 18,0 33,15 33,33z"/>
   <path class="fil0" d="M2836 1313c0,18 -15,33 -33,33 -18,0 -33,-15 -33,-33 0,-18 15,-33 33,-33 18,0 33,15 33,33z"/>
   <path class="fil0" d="M3270 1313c0,18 -15,33 -33,33 -19,0 -33,-15 -33,-33 0,-18 14,-33 33,-33 18,0 33,15 33,33z"/>
   <path class="fil0" d="M3512 1548c0,18 -15,33 -33,33 -19,0 -33,-15 -33,-33 0,-18 14,-33 33,-33 18,0 33,15 33,33z"/>
   <path class="fil0" d="M3512 2331c0,18 -15,33 -33,33 -19,0 -33,-15 -33,-33 0,-18 14,-33 33,-33 18,0 33,15 33,33z"/>
   <path class="fil0" d="M3496 1367c0,9 -8,17 -17,17 -10,0 -18,-8 -18,-17 0,-10 8,-17 18,-17 9,0 17,7 17,17z"/>
   <polygon class="fil0" points="3477,1548 3481,1548 3481,1367 3477,1367 "/>
   <path class="fil0" d="M3416 1313c0,10 -8,17 -17,17 -10,0 -18,-7 -18,-17 0,-10 8,-17 18,-17 9,0 17,7 17,17z"/>
   <polygon class="fil0" points="3237,1315 3400,1315 3400,1311 3237,1311 "/>
   <path class="fil17" d="M2441 5224c-10,0 -21,-2 -30,-6l-16 -7c16,-1 32,-7 45,-18l70 -62 23 -6 -23 54c-12,28 -40,45 -69,45zm-113 -41l-78 -34 23 -4c12,16 30,27 50,30l5 5 0 3z"/>
   <polygon class="fil18" points="2331,5184 2328,5183 2328,5180 "/>
   <path class="fil17" d="M2226 5139l-152 -66 152 66 0 0zm24 -5l9 -21 2 7c1,4 3,8 4,12l-15 2z"/>
   <path class="fil18" d="M2250 5149l-24 -10 0 0 19 8 5 -13 15 -2c3,4 5,9 8,13l-23 4z"/>
   <path class="fil17" d="M2452 5076c-9,0 -17,-2 -25,-6 6,3 13,4 19,4 18,0 36,-9 47,-24 -6,10 -15,18 -25,24 -6,1 -11,2 -16,2zm-438 -29l-28 -12 70 -163 23 26 -65 149z"/>
   <path class="fil15" d="M1449 4804l-387 -167 0 0 147 63 90 -209c6,13 11,27 16,40l-78 181 212 92 0 0zm-403 -174l-58 -25c0,0 0,0 -1,0l59 25 0 0z"/>
   <polygon class="fil16" points="1062,4637 1046,4630 1046,4630 1062,4637 "/>
   <path class="fil15" d="M1228 4272l-82 -35c0,0 0,0 1,0l81 35 0 0z"/>
   <path class="fil17" d="M1826 4966l-123 -53 0 0 24 11 69 -162 37 -6 -78 180 71 30zm-139 -60l-205 -88 18 -3 -4 9 191 82 0 0z"/>
   <polygon class="fil18" points="1703,4913 1687,4906 1687,4906 1703,4913 "/>
   <path class="fil17" d="M1458 4807l-9 -3 0 0 9 3 0 0zm13 -2l140 -326 10 55 -114 265 -36 6zm332 -59l47 -108 22 26 -32 76 -37 6zm-488 -215c-5,-13 -10,-27 -16,-40l51 -117 36 -6 -71 163zm317 -21l-10 -55 5 -11 -8 -3 0 0 91 39 0 0 -55 -24 -23 54zm-29 -76l-172 -74 0 0 172 74 0 0z"/>
   <path class="fil18" d="M1621 4534l-10 -55 11 -24 10 55 -11 24zm-2 -93l-16 -7 0 0 16 7 0 0z"/>
   <polygon class="fil17" points="1357,4358 1368,4332 1228,4272 1228,4272 1407,4349 1407,4349 1396,4345 1393,4352 "/>
   <path class="fil18" d="M1482 4818l-24 -11 0 0 10 5 3 -7 36 -6 -7 16 -18 3zm314 -56l7 -16 37 -6 -7 16 -37 6z"/>
   <path class="fil18" d="M1350 4374l7 -16 36 -6 -7 16 -36 6zm81 -14l-24 -11 0 0 24 11 0 0z"/>
   <path class="fil15" d="M979 4600c-32,-19 -46,-59 -31,-94l29 -66 34 -6 12 64 -44 102zm54 -126l-7 -42 28 -5 -21 47z"/>
   <polygon class="fil16" points="1023,4498 1011,4434 1026,4432 1033,4474 "/>
   <path class="fil15" d="M984 4424l18 -42 7 38 -25 4zm39 -7l-10 -60 34 -80c13,-29 40,-46 70,-46 6,0 13,1 20,3l-77 176 -37 7z"/>
   <polygon class="fil16" points="1009,4420 1002,4382 1013,4357 1023,4417 "/>
   <polygon class="fil16" points="977,4440 984,4424 1009,4420 1023,4417 1060,4410 1054,4427 1026,4432 1011,4434 "/>
   <polygon class="fil17" points="2226,5139 2074,5073 2014,5047 2079,4898 2088,4908 2255,5098 2259,5113 2250,5134 "/>
   <polygon class="fil18" points="2245,5147 2226,5139 2250,5134 "/>
   <path class="fil17" d="M1986 5035l-160 -69 -71 -30 78 -180 104 -19 110 125 0 0 9 10 -70 163zm-146 -295l32 -76 54 60 -86 16z"/>
   <polygon class="fil18" points="1833,4756 1840,4740 1926,4724 1937,4737 "/>
   <path class="fil17" d="M1727 4924l-24 -11 -23 -130 116 -21 -69 162zm-40 -18l-191 -82 4 -9 166 -30 21 121z"/>
   <polygon class="fil18" points="1703,4913 1687,4906 1666,4785 1680,4783 "/>
   <path class="fil17" d="M1507 4799l114 -265 42 237 -156 28zm171 -31l-46 -258 23 -54 55 24 130 147 1 1 9 10 -47 108 -125 22z"/>
   <polygon class="fil18" points="1663,4771 1621,4534 1632,4510 1678,4768 "/>
   <polygon class="fil18" points="1500,4815 1507,4799 1663,4771 1678,4768 1803,4746 1796,4762 1680,4783 1666,4785 "/>
   <path class="fil15" d="M1449 4804l-212 -92 78 -181c39,94 83,185 134,273z"/>
   <path class="fil17" d="M1458 4807l-9 -3c-51,-88 -95,-179 -134,-273l71 -163 45 -8 172 74 8 45 -140 326 -13 2zm164 -352l-3 -14 8 3 -5 11z"/>
   <polygon class="fil18" points="1611,4479 1603,4434 1619,4441 1622,4455 "/>
   <polygon class="fil17" points="1393,4352 1396,4345 1407,4349 "/>
   <polygon class="fil18" points="1468,4812 1458,4807 1471,4805 "/>
   <polygon class="fil18" points="1386,4368 1393,4352 1407,4349 1431,4360 "/>
   <path class="fil15" d="M1209 4700l-147 -63 -29 -163 21 -47 209 -38c11,34 24,68 36,102l-90 209zm-163 -70l-59 -25 -9 -4 1 -1 44 -102 23 132z"/>
   <polygon class="fil16" points="1062,4637 1046,4630 1023,4498 1033,4474 "/>
   <path class="fil15" d="M1060 4410l77 -176 0 -1 9 4 82 35c9,35 20,69 31,103l-199 35z"/>
   <path class="fil16" d="M1054 4427l6 -17 199 -35c1,5 3,10 4,14l-209 38z"/>
   <path class="fil17" d="M1299 4491c-12,-34 -25,-68 -36,-102l87 -15 -51 117zm-40 -116c-11,-34 -22,-68 -31,-103l140 60 -11 26 -98 17z"/>
   <path class="fil18" d="M1263 4389c-1,-4 -3,-9 -4,-14l98 -17 -7 16 -87 15z"/>
   <path class="fil17" d="M2390 5212c-16,0 -31,-5 -44,-15l-4 -22c4,0 8,-1 12,-2l156 -42 -70 62c-13,11 -29,17 -45,18 -2,1 -3,1 -5,1zm-62 -32l-5 -5c1,0 3,0 4,0l1 5z"/>
   <path class="fil18" d="M2346 5197c-5,-3 -9,-7 -13,-11l-2 -2 -3 -4 -1 -5c2,1 5,1 7,1 3,0 5,-1 8,-1l4 22z"/>
   <path class="fil17" d="M2255 5098l-167 -190 126 143 23 -21 18 68zm187 -18c-26,0 -49,-18 -56,-44 -8,-30 10,-62 40,-71 -5,3 -9,5 -13,9 -24,21 -26,58 -5,82 6,6 12,11 19,14 8,4 16,6 25,6 5,0 10,-1 16,-2 -4,1 -7,3 -11,4 -5,1 -10,2 -15,2zm203 -76l-27 -101 16 18c20,24 24,56 11,83zm-598 -142l-110 -125 0 0 90 102 128 -113 9 33 -117 103m-121 -138l-54 -60 -22 -26 -9 -10 232 -205 9 33 -221 195 65 73 0 0z"/>
   <polygon class="fil18" points="1937,4737 1926,4724 1926,4724 1937,4737 "/>
   <path class="fil17" d="M1840 4627l-130 -147 0 0 -56 -64 136 -120 59 -10 -175 153 166 188zm-229 -260l-6 -6 6 6zm-24 -27l-6 -7 0 0 6 7 0 0z"/>
   <polygon class="fil18" points="1605,4361 1587,4340 1587,4340 "/>
   <path class="fil17" d="M1569 4320l-165 -186 63 71 83 -73 6 36 -68 60 81 92 0 0zm243 -43l142 -126 -166 -188 -219 193 -6 -35 205 -181 -82 -93 0 0 289 327 -105 93 -58 10z"/>
   <polygon class="fil18" points="1556,4168 1550,4132 1563,4121 1569,4156 "/>
   <path class="fil17" d="M1675 3834l-67 -75c0,0 0,0 0,0l67 75 0 0z"/>
   <path class="fil18" d="M1581 4333l-12 -13 0 0 12 13 0 0zm209 -37l22 -19 58 -10 -21 19 -59 10z"/>
   <polygon class="fil18" points="1686,3847 1675,3834 1675,3834 1686,3847 "/>
   <path class="fil17" d="M1302 4016c-21,-31 -16,-73 13,-98l6 -6 124 -22 -143 126zm41 -123l142 -126 13 76 -32 28 -123 22zm168 -62l-13 -75 4 -3c14,-13 32,-19 50,-19 17,0 35,6 49,18l-90 79z"/>
   <polygon class="fil18" points="1498,3843 1485,3767 1498,3756 1511,3831 "/>
   <polygon class="fil18" points="1321,3912 1343,3893 1466,3871 1445,3890 "/>
   <polygon class="fil17" points="2214,5051 2088,4908 2079,4898 2056,4872 2047,4862 2164,4759 2190,4857 2237,5030 "/>
   <path class="fil17" d="M2027 4839l-90 -102 211 -37 1 3 0 0 6 23 -128 113zm-101 -115l-65 -73 221 -195 62 230 -218 38z"/>
   <polygon class="fil18" points="1937,4737 1926,4724 2144,4686 2148,4700 "/>
   <path class="fil17" d="M1841 4628l-1 -1 -166 -188 175 -153 179 -32 39 147 6 22 -232 205zm29 -361l105 -93 45 52 4 14 -154 27z"/>
   <polygon class="fil18" points="1849,4286 1870,4267 2024,4240 2028,4254 "/>
   <path class="fil17" d="M1654 4416l-43 -49 -6 -6 -5 -31 190 -34 -136 120zm-67 -76l-6 -7 4 -1 2 8z"/>
   <polygon class="fil18" points="1605,4361 1587,4340 1585,4332 1600,4330 "/>
   <path class="fil17" d="M1569 4320l-81 -92 68 -60 27 150 -14 2zm28 -5l-28 -159 219 -193 166 188 -142 126 -215 38z"/>
   <polygon class="fil18" points="1583,4318 1556,4168 1569,4156 1597,4315 "/>
   <polygon class="fil18" points="1581,4333 1569,4320 1583,4318 1597,4315 1812,4277 1790,4296 1600,4330 1585,4332 "/>
   <path class="fil17" d="M1467 4205l-63 -71 -103 -117 1 -1 143 -126 60 -11 45 253 -83 73zm96 -84l-44 -244 167 -30 82 93 -205 181z"/>
   <polygon class="fil18" points="1550,4132 1505,3879 1519,3877 1563,4121 "/>
   <path class="fil17" d="M1466 3871l32 -28 4 22 -36 6zm51 -9l-6 -31 90 -79 1 0 6 7 67 75 -158 28z"/>
   <polygon class="fil18" points="1502,3865 1498,3843 1511,3831 1517,3862 "/>
   <polygon class="fil18" points="1445,3890 1466,3871 1502,3865 1517,3862 1675,3834 1686,3847 1519,3877 1505,3879 "/>
   <path class="fil17" d="M2327 5175c-1,0 -3,0 -4,0 -20,-3 -38,-14 -50,-30l47 -8 7 38zm15 0l-7 -41 300 -53c-10,13 -24,22 -40,27l-62 17 -23 6 -156 42c-4,1 -8,2 -12,2z"/>
   <path class="fil18" d="M2334 5176c-2,0 -5,0 -7,-1l-7 -38 15 -3 7 41c-3,0 -5,1 -8,1z"/>
   <path class="fil17" d="M2265 5132c-1,-4 -3,-8 -4,-12l-2 -7 -4 -15 -18 -68 -47 -173 24 88 69 -18 35 195 -53 10zm67 -12l-35 -197 304 -82 17 62 27 101 3 11c5,17 3,34 -3,49l-313 56zm94 -155c-30,9 -48,41 -40,71 7,26 30,44 56,44 5,0 10,-1 15,-2 4,-1 7,-3 11,-4 10,-6 19,-14 25,-24 7,-13 10,-28 5,-44 -7,-26 -30,-43 -56,-43 -5,0 -10,1 -15,2 0,0 -1,0 -1,0z"/>
   <polygon class="fil18" points="2318,5122 2283,4927 2297,4923 2332,5120 "/>
   <path class="fil18" d="M2273 5145c-3,-4 -5,-9 -8,-13l53 -10 14 -2 313 -56c-3,6 -6,12 -10,17l-300 53 -15 3 -47 8z"/>
   <path class="fil17" d="M2149 4703l-1 -3 33 -6 -32 9zm-5 -17l-62 -230 -9 -33 -6 -22 117 -32 5 31 -114 31 66 242 92 -25 4 21 -93 17zm108 -19l-4 -23 279 -75 9 29 -194 53 -90 16zm-48 -271l-6 -30 256 -69 8 29 -258 70z"/>
   <path class="fil18" d="M2237 4669l-4 -21 15 -4 4 23 -15 2zm-48 -269l-5 -31 14 -3 6 30 -15 4z"/>
   <polygon class="fil18" points="2148,4700 2144,4686 2237,4669 2252,4667 2342,4651 2181,4694 "/>
   <path class="fil17" d="M2002 4158l-8 -29 141 -38 5 30 -138 37zm152 -41l-5 -30 232 -63 16 60 -8 -30 -235 63z"/>
   <polygon class="fil18" points="2140,4121 2135,4091 2149,4087 2154,4117 "/>
   <path class="fil17" d="M1928 3886l-8 -30 165 -44 6 30 -163 44zm177 -47l-6 -31 208 -56 -4 -14 0 0 12 44 -210 57z"/>
   <polygon class="fil18" points="2091,3842 2085,3812 2099,3808 2105,3839 "/>
   <polygon class="fil17" points="2299,3723 2255,3559 2299,3723 "/>
   <polygon class="fil18" points="2303,3738 2299,3723 2299,3723 2303,3738 "/>
   <path class="fil17" d="M1879 3702l-21 -78c0,0 -1,-1 -1,-1l22 79zm-23 -88c-5,-37 18,-73 55,-83l119 -32 11 65 -185 50zm199 -54l-11 -65 108 -29c6,-2 13,-2 20,-2 29,0 57,18 69,46l-186 50z"/>
   <polygon class="fil18" points="2041,3564 2030,3499 2044,3495 2055,3560 "/>
   <path class="fil17" d="M2214 4945l-24 -88 -26 -98 -9 -33 -6 -23 32 -9 59 -10 43 243 -69 18zm83 -22l-43 -242 290 -51 57 211 -304 82z"/>
   <polygon class="fil18" points="2283,4927 2240,4684 2254,4681 2297,4923 "/>
   <polygon class="fil17" points="2342,4651 2536,4598 2540,4615 "/>
   <polygon class="fil18" points="2181,4694 2342,4651 2540,4615 2544,4630 2254,4681 2240,4684 "/>
   <path class="fil17" d="M2141 4673l-66 -242 114 -31 44 248 -92 25zm107 -29l-44 -248 258 -70 65 243 -279 75z"/>
   <polygon class="fil18" points="2233,4648 2189,4400 2204,4396 2248,4644 "/>
   <path class="fil17" d="M2067 4401l-39 -147 131 -23 25 138 -117 32zm131 -35l-24 -138 250 -44 30 113 -256 69z"/>
   <polygon class="fil18" points="2184,4369 2159,4231 2174,4228 2198,4366 "/>
   <path class="fil17" d="M2024 4240l-4 -14 -18 -68 138 -37 17 95 -133 24zm147 -26l-17 -97 235 -63 8 30 23 85 -249 45z"/>
   <polygon class="fil18" points="2157,4216 2140,4121 2154,4117 2171,4214 "/>
   <polygon class="fil18" points="2028,4254 2024,4240 2157,4216 2171,4214 2420,4169 2424,4184 2174,4228 2159,4231 "/>
   <path class="fil17" d="M1994 4129l-66 -243 163 -44 44 249 -141 38zm155 -42l-44 -248 210 -57 66 242 -232 63z"/>
   <polygon class="fil18" points="2135,4091 2091,3842 2105,3839 2149,4087 "/>
   <path class="fil17" d="M1920 3856l-13 -48 172 -31 6 35 -165 44zm179 -48l-5 -33 209 -37 4 14 -208 56z"/>
   <polygon class="fil18" points="2085,3812 2079,3777 2094,3775 2099,3808 "/>
   <path class="fil17" d="M1903 3794l-24 -92 -22 -79 -2 -9 1 0 185 -50 35 199 -173 31zm188 -34l-36 -200 186 -50 1 0 13 49 44 164 -208 37z"/>
   <polygon class="fil18" points="2076,3763 2041,3564 2055,3560 2091,3760 "/>
   <polygon class="fil18" points="1907,3808 1903,3794 2076,3763 2091,3760 2299,3723 2303,3738 2094,3775 2079,3777 "/>
   <path class="fil78" d="M2427 4906c29,12 43,47 30,76 -12,30 -47,43 -76,31 -30,-13 -43,-47 -31,-77 13,-29 47,-43 77,-30zm-1481 -357l1422 613c39,17 83,-1 100,-39l99 -230c16,-38 -2,-82 -40,-99l-1423 -613c-38,-17 -82,1 -99,39l-99 229c-16,39 1,83 40,100z"/>
   <polygon class="fil79" points="2130,4623 2361,4723 2203,5090 1972,4991 "/>
   <polygon class="fil19" points="1872,4512 2102,4611 1944,4979 1713,4879 "/>
   <polygon class="fil80" points="1613,4400 1843,4499 1685,4867 1454,4768 "/>
   <polygon class="fil81" points="1354,4288 1584,4388 1426,4756 1195,4656 "/>
   <polygon class="fil82" points="1095,4177 1326,4276 1167,4644 936,4545 "/>
   <path class="fil78" d="M2453 4923c21,24 19,61 -5,82 -24,21 -61,19 -82,-5 -21,-24 -19,-61 5,-82 24,-22 61,-19 82,5zm-1187 -955l1025 1162c28,31 75,34 107,7l187 -166c31,-27 34,-75 6,-106l-1025 -1162c-27,-31 -75,-34 -106,-7l-187 166c-32,27 -35,75 -7,106z"/>
   <polygon class="fil83" points="2306,4541 2472,4729 2171,4994 2005,4806 "/>
   <polygon class="fil7" points="2119,4330 2285,4518 1985,4783 1819,4595 "/>
   <polygon class="fil84" points="1933,4118 2099,4306 1798,4572 1632,4383 "/>
   <polygon class="fil85" points="1746,3907 1912,4095 1612,4360 1446,4172 "/>
   <polygon class="fil86" points="1559,3695 1726,3884 1425,4149 1259,3960 "/>
   <path class="fil78" d="M2456 4950c9,31 -10,63 -41,71 -31,9 -63,-10 -71,-41 -9,-31 10,-63 41,-71 31,-9 63,10 71,41zm-641 -1382l404 1495c11,41 52,65 93,54l241 -65c40,-11 64,-53 53,-93l-404 -1496c-11,-40 -52,-64 -92,-53l-241 65c-41,11 -64,52 -54,93z"/>
   <polygon class="fil87" points="2493,4542 2559,4785 2172,4889 2107,4647 "/>
   <polygon class="fil12" points="2420,4270 2485,4512 2099,4617 2033,4374 "/>
   <polygon class="fil88" points="2346,3998 2412,4240 2025,4345 1960,4102 "/>
   <polygon class="fil89" points="2273,3726 2338,3968 1952,4072 1886,3830 "/>
   <polygon class="fil90" points="2200,3453 2265,3696 1878,3800 1813,3558 "/>
   <path class="fil91" d="M6817 6177l-4359 0c-60,0 -134,-106 -100,-156l602 -816c14,-19 37,-31 61,-31l3233 0c24,0 47,12 61,31l602 803c34,49 -40,169 -100,169z"/>
   <path class="fil0" d="M6856 6112l-4437 0c-60,0 -95,-68 -61,-117l561 -797c40,-56 104,-89 173,-89l3091 0c69,0 133,33 173,89l561 797c34,49 -1,117 -61,117z"/>
   <path class="fil92" d="M3182 5917l3384 0 -69 -102c-3,-1 -6,-1 -9,-2l0 0c-2,-1 -5,-1 -7,-2 0,0 0,0 0,0 -1,0 -1,0 -1,0 0,0 0,0 -1,0 0,0 0,0 0,0 0,-1 -1,-1 -1,-1 0,0 0,0 0,0 -1,0 -1,0 -1,0 -1,0 -1,0 -1,0 -1,0 -1,-1 -2,-1 0,0 -1,0 -2,0 -2,-1 -5,-2 -7,-2 -1,0 -1,0 -1,0 0,0 0,0 0,0 -1,-1 -1,-1 -1,-1 0,0 -1,0 -1,0 -1,0 -1,0 -1,0 0,0 0,0 0,0 -1,0 -1,0 -1,0 0,-1 -1,-1 -1,-1 -1,0 -1,0 -1,0 -1,0 -2,-1 -3,-1 -1,0 -1,0 -1,0 0,0 0,0 0,0 -1,0 -1,0 -1,0 0,0 -1,-1 -1,-1 0,0 -1,0 -1,0 0,0 -1,0 -1,0 0,0 0,0 0,0 0,0 0,0 -1,0 0,0 0,0 0,0 -1,-1 -1,-1 -1,-1l0 0c0,0 0,0 0,0 -1,0 -2,0 -3,-1 0,0 0,0 0,0 0,0 -1,0 -1,0 0,0 0,0 -1,0 0,0 0,0 0,0 0,0 0,0 -1,0 0,0 -1,-1 -1,-1 0,0 -1,0 -1,0 0,0 0,0 -1,0 0,0 0,0 0,0 -1,0 -2,-1 -3,-1 0,0 -1,0 -1,0 0,0 0,0 0,0 0,0 -1,0 -1,-1 0,0 -1,0 -1,0 0,0 0,0 0,0 -1,0 -1,0 -1,0 -1,0 -1,0 -1,0 0,0 -1,-1 -1,-1 -1,0 -2,0 -3,0 -1,-1 -1,-1 -2,-1 0,0 -1,0 -1,0 0,0 0,0 0,0 -1,-1 -1,-1 -2,-1 0,0 0,0 0,0 -1,0 -1,0 -2,0 0,0 -1,-1 -1,-1 0,0 -1,0 -1,0 0,0 0,0 -1,0 0,0 0,0 0,0 0,0 -1,0 -1,-1 0,0 0,0 -1,0 -2,0 -4,-1 -6,-1l46 66 -3158 0 0 -6 6 3 -6 -3 0 6 -11 0 329 -547 2464 0 236 343c20,5 51,12 86,21l-291 -423 -2528 0 -400 665zm3248 -72l-3121 0 313 -521 2450 0 224 325c-5,-1 -8,-2 -8,-2l-626 -167c-35,-10 -72,-14 -109,-14 -4,0 -8,0 -11,0l-126 3 117 69c0,0 0,0 0,0l28 16c14,9 30,15 46,19l218 58 546 149c0,1 1,1 1,1 0,0 1,0 1,0 2,0 3,1 4,1 1,0 1,1 2,1 2,1 5,1 8,2 1,0 1,0 1,1 0,0 1,0 1,0 0,0 0,0 1,0l40 59 0 0z"/>
   <path class="fil93" d="M6455 5858l-3158 0 0 -6 6 3 -6 -3 0 6 -11 0 329 -547 2464 0 236 343c-8,-2 -15,-4 -19,-5l-224 -325 -2450 0 -313 521 3121 0 -40 -59c2,1 5,2 8,2 0,0 1,0 1,1 1,0 1,0 2,0 1,0 1,0 1,1 2,0 4,1 6,1 1,0 1,0 1,1 0,0 0,0 0,0l46 66z"/>
   <path class="fil94" d="M2983 5420c-12,0 -22,-5 -28,-12 -7,-7 -11,-17 -11,-27 0,-8 3,-17 9,-24l74 -91c10,-13 26,-20 43,-20l346 0c23,0 39,18 39,38 0,7 -2,15 -6,21l-56 89c-11,16 -28,26 -48,26l0 -7c17,0 32,-9 41,-23l57 -89c3,-5 5,-11 5,-17 0,-8 -4,-15 -9,-21 -6,-6 -13,-10 -23,-10l-346 0c-14,0 -28,7 -37,18l-74 91c-5,6 -7,12 -7,19 0,8 3,16 8,22 6,6 13,10 23,10l362 0 0 7 -362 0c0,0 0,0 0,0z"/>
   <path class="fil94" d="M2816 5657c-12,0 -21,-5 -28,-12 -7,-8 -11,-17 -11,-27 0,-9 3,-17 9,-25l74 -90c10,-13 26,-21 43,-21l346 0c23,0 39,19 39,39 0,7 -2,14 -6,21l-56 89c-11,16 -28,26 -48,26l0 -8c17,0 32,-8 41,-22l57 -89c3,-6 5,-11 5,-17 0,-8 -4,-16 -9,-22 -6,-6 -13,-9 -23,-9l-346 0c-14,0 -28,6 -37,18l-74 90c-5,6 -7,13 -7,20 0,8 3,16 8,21 6,6 14,10 23,10l362 0 0 8 -362 0c0,0 0,0 0,0z"/>
   <path class="fil94" d="M3036 5904l-397 0c-12,0 -23,-5 -30,-12 -8,-7 -12,-17 -12,-27 0,-9 3,-17 10,-25l81 -90c11,-14 29,-21 47,-21l379 0c25,0 42,18 42,39 0,7 -2,14 -6,21l-62 89c-11,16 -31,26 -52,26l0 -8 0 0c19,0 36,-9 45,-23l62 -89c4,-5 6,-11 6,-16 0,-16 -14,-31 -35,-31l-379 0c0,0 0,0 0,0 -16,0 -31,7 -42,18l-80 90c-6,6 -8,13 -8,20 0,15 14,31 34,31l397 0 0 8z"/>
   <path class="fil17" d="M7487 5581c-123,0 -242,-25 -351,-81l0 0c109,56 228,81 351,81 0,0 0,0 0,0zm-367 -90c-81,-45 -156,-108 -220,-193 -8,-10 -15,-21 -23,-32 1,1 2,2 3,3 6,10 13,20 21,29 64,84 138,147 219,193l0 0z"/>
   <path class="fil18" d="M7136 5500c-5,-3 -11,-6 -16,-9l0 0c5,3 11,6 16,9l0 0z"/>
   <path class="fil17" d="M8061 4759c-24,-17 -40,-39 -45,-66 -6,-41 17,-82 58,-109l67 -12 9 50c-61,25 -99,76 -91,127 0,3 1,7 2,10zm264 -124c-26,-18 -60,-28 -97,-28 -10,0 -21,1 -32,3 -11,1 -22,4 -32,7l-8 -48 74 -13c48,11 84,40 95,79z"/>
   <path class="fil18" d="M8150 4622l-9 -50 15 -3 8 48c-5,2 -9,3 -14,5z"/>
   <path class="fil17" d="M8127 4560c3,-2 7,-3 11,-4l1 1 -12 3zm26 -5l0 -1c0,0 0,0 1,0 6,-1 12,-2 18,-3l-19 4zm-386 -151c-42,-44 -69,-108 -104,-164 43,46 70,109 104,164z"/>
   <path class="fil18" d="M8139 4557l-1 -1c5,-1 10,-2 15,-2l0 1 -14 2z"/>
   <path class="fil18" d="M8074 4584c15,-10 33,-19 53,-24l12 -3 14 -2 19 -4c5,0 10,0 14,0 16,0 30,2 44,5l-74 13 -15 3 -67 12z"/>
   <path class="fil95" d="M8045 5425c0,0 0,0 0,0 29,-17 58,-34 86,-53 45,-30 91,-64 134,-101l0 0c-43,37 -89,71 -134,101 -28,19 -57,36 -86,53zm233 -165l0 -1c85,-75 161,-164 209,-264 3,-6 6,-12 8,-19l1 0c-3,7 -6,13 -9,19 -48,100 -124,189 -209,265z"/>
   <path class="fil96" d="M8265 5271l0 0c4,-4 9,-8 13,-12l0 1c-4,4 -9,7 -13,11z"/>
   <path class="fil95" d="M8502 4960c5,-12 10,-24 14,-37 1,-4 2,-9 4,-13 37,-125 18,-278 -73,-377 0,-1 -1,-2 -2,-3 0,0 0,-1 0,-1 1,1 2,2 3,4 91,99 109,252 72,377 -1,4 -3,9 -4,13 -4,12 -8,25 -13,37l-1 0z"/>
   <path class="fil96" d="M8495 4976c3,-5 5,-10 7,-16l1 0c-3,6 -5,11 -7,16l-1 0z"/>
   <path class="fil97" d="M7487 5581c0,0 0,0 0,0 78,0 157,-10 236,-29l0 0c-78,19 -158,29 -236,29zm250 -32l0 0c107,-27 211,-70 308,-124 0,0 0,0 0,0 -97,54 -201,97 -308,124z"/>
   <path class="fil98" d="M7723 5552l0 0c5,-1 9,-2 14,-3l0 0c-5,1 -9,2 -14,3z"/>
   <path class="fil99" d="M8045 5425c40,-49 76,-100 109,-155 33,-24 66,-51 97,-80l14 81c-43,37 -89,71 -134,101 -28,19 -57,36 -86,53zm233 -166l-14 -81c59,-56 112,-119 153,-188l78 -14c-2,7 -5,13 -8,19 -48,100 -124,189 -209,264z"/>
   <path class="fil100" d="M8265 5271l-14 -81c4,-4 8,-8 13,-12l14 81c-4,4 -9,8 -13,12z"/>
   <path class="fil99" d="M8427 4974c6,-12 12,-23 18,-35 11,-24 21,-48 29,-72 1,-5 3,-9 4,-13 31,-105 23,-228 -33,-324 1,1 2,2 2,3 91,99 110,252 73,377 -2,4 -3,9 -4,13 -4,13 -9,25 -14,37l-75 14z"/>
   <path class="fil100" d="M8417 4990c4,-5 7,-11 10,-16l75 -14c-2,6 -4,11 -7,16l-78 14z"/>
   <path class="fil101" d="M7487 5581c-123,0 -242,-25 -351,-81l-7 -39c99,44 206,64 316,64 0,0 0,0 0,0 0,0 0,0 0,0 88,0 178,-13 266,-37l12 64c-79,19 -158,29 -236,29zm250 -32l-11 -65c128,-36 252,-95 363,-168 22,-15 43,-30 65,-46 -33,55 -69,106 -109,155 -97,54 -201,97 -308,124zm-617 -58c-81,-46 -155,-109 -219,-193 -8,-9 -15,-19 -21,-29 68,83 148,143 233,184l7 38z"/>
   <path class="fil102" d="M7136 5500c-5,-3 -11,-6 -16,-9l-7 -38c6,3 11,5 16,8l7 39z"/>
   <path class="fil102" d="M7723 5552l-12 -64c5,-1 10,-2 15,-4l11 65c-5,1 -9,2 -14,3z"/>
   <path class="fil19" d="M8189 4784c-85,13 -163,-28 -173,-91 -10,-64 52,-126 138,-139 85,-14 163,27 173,90 10,64 -52,126 -138,140zm284 83c2,-5 3,-9 4,-13 38,-126 19,-278 -72,-378 -112,-122 -299,-84 -438,-40 -34,11 -69,21 -104,17 -156,-19 -161,-239 -292,-307 -76,-40 -169,-31 -252,-8 -454,128 -776,691 -461,1104 308,404 851,326 1231,74 139,-93 281,-221 356,-377 11,-24 21,-48 28,-72z"/>
   <path class="fil103" d="M8445 4529c-1,0 -1,-1 -2,-1 -1,-3 -3,-6 -5,-9l1 0c2,3 4,7 6,10zm-16 -23c-7,-10 -15,-20 -24,-30 -15,-17 -32,-30 -50,-42 0,0 0,0 0,0 18,11 35,25 51,42 8,10 16,20 24,30l-1 0z"/>
   <path class="fil104" d="M8438 4519c-3,-4 -6,-9 -9,-13l1 0c3,4 6,9 9,13l-1 0z"/>
   <path class="fil105" d="M8445 4530c0,0 0,-1 -1,-1 0,0 0,-1 -1,-1 1,0 1,1 2,1 0,0 0,1 0,1z"/>
   <path class="fil106" d="M8154 5270c0,0 0,0 0,0 33,-25 66,-52 97,-80l0 0c-31,29 -64,56 -97,80zm110 -92l-1 0c60,-56 113,-119 154,-188l0 0c-41,69 -94,132 -153,188z"/>
   <path class="fil107" d="M8251 5190l0 0c4,-4 8,-8 12,-12l1 0c-5,4 -9,8 -13,12z"/>
   <path class="fil106" d="M8426 4974c7,-12 13,-23 19,-35 11,-24 21,-48 28,-72 2,-5 3,-9 4,-13 32,-105 24,-229 -33,-325 1,0 1,1 1,1 56,96 64,219 33,324 -1,4 -3,8 -4,13 -8,24 -18,48 -29,72 -6,12 -12,23 -18,35l-1 0z"/>
   <path class="fil107" d="M8417 4990c3,-5 6,-11 9,-16l1 0c-3,5 -6,11 -10,16l0 0z"/>
   <path class="fil108" d="M7445 5525c0,0 0,0 0,0 88,0 178,-13 266,-37l0 0c-88,24 -178,37 -266,37zm281 -41l0 0c128,-36 252,-95 363,-168 21,-15 43,-30 65,-46 0,0 0,0 0,0 -22,16 -43,31 -65,46 -111,73 -235,132 -363,168z"/>
   <path class="fil109" d="M7711 5488l0 0c5,-1 10,-2 15,-4l0 0c-5,2 -10,3 -15,4z"/>
   <path class="fil110" d="M7445 5525c-221,0 -433,-82 -586,-283 -59,-77 -96,-159 -113,-242 50,50 104,92 161,128 5,5 10,11 16,16 20,17 45,28 70,31 66,32 135,55 205,71 -7,44 9,90 45,121 26,22 57,33 88,33 38,0 75,-16 102,-47 21,-24 32,-54 32,-84 52,-2 103,-7 154,-16 5,29 20,56 44,77 25,22 57,33 88,33 37,0 75,-16 102,-47 33,-39 41,-92 23,-138 47,-19 92,-42 135,-67 21,13 46,20 70,20 38,0 75,-16 102,-47 31,-36 39,-84 27,-126 145,-149 213,-335 145,-524 18,12 35,25 50,42 9,10 17,20 24,30 3,4 6,9 9,13 2,3 4,6 5,9 1,0 1,1 1,1 57,96 65,220 33,325 -1,4 -2,8 -4,13 -7,24 -17,48 -28,72 -6,12 -12,23 -19,35 -3,5 -6,11 -9,16 -41,69 -94,132 -154,188 -4,4 -8,8 -12,12 -31,28 -64,55 -97,80 -22,16 -44,31 -65,46 -111,73 -235,132 -363,168 -5,2 -10,3 -15,4 -88,24 -178,37 -266,37z"/>
   <path class="fil87" d="M7454 4472c-48,56 -133,62 -189,14 -57,-49 -63,-134 -14,-190 48,-56 133,-63 189,-14 56,48 63,133 14,190z"/>
   <path class="fil12" d="M7127 4721c-49,56 -134,62 -190,14 -56,-49 -63,-133 -14,-190 48,-56 133,-62 190,-14 56,49 62,134 14,190z"/>
   <path class="fil83" d="M7112 5130c-48,56 -133,62 -189,14 -57,-49 -63,-134 -14,-190 48,-56 133,-63 189,-14 57,48 63,133 14,190z"/>
   <path class="fil7" d="M7433 5353c-49,57 -134,63 -190,14 -56,-48 -62,-133 -14,-189 49,-57 134,-63 190,-14 56,48 62,133 14,189z"/>
   <path class="fil20" d="M7853 5316c-49,56 -134,63 -190,14 -56,-48 -63,-133 -14,-190 48,-56 133,-62 190,-14 56,49 62,134 14,190z"/>
   <path class="fil59" d="M8183 5084c-49,57 -134,63 -190,14 -56,-48 -62,-133 -14,-189 49,-57 134,-63 190,-14 56,48 62,133 14,189z"/>
   <path class="fil111" d="M7251 4296c26,-31 64,-47 101,-47 -37,0 -75,16 -101,47zm191 -13c0,0 0,0 0,0 0,0 0,0 0,0zm-1 0c0,0 0,0 0,0 0,0 0,0 0,0zm0 0c0,0 0,0 0,0 0,0 0,0 0,0zm0 -1c0,0 0,0 0,0 0,0 0,0 0,0zm-88 -33c0,0 -1,0 -1,0l0 0c0,0 1,0 1,0z"/>
   <path class="fil112" d="M7218 4394c-2,-34 8,-70 33,-98l0 0c26,-31 64,-47 101,-47 0,0 0,0 0,0 0,0 1,0 1,0 31,0 62,11 87,33 0,0 0,0 1,0 0,0 0,0 0,0 0,0 0,1 0,1 0,0 0,0 0,0 0,0 0,0 0,0 0,0 0,0 0,0 1,0 1,0 1,0 0,0 0,0 0,0 32,29 47,69 44,109 -2,-34 -18,-67 -46,-92 -25,-21 -56,-32 -88,-32 -37,0 -75,16 -101,47 -20,23 -31,51 -33,79z"/>
   <path class="fil113" d="M7148 4580c-8,-18 -20,-35 -35,-49 -26,-22 -57,-32 -88,-32 0,0 0,0 0,0 31,0 62,10 88,32 16,14 27,31 35,49z"/>
   <path class="fil114" d="M6891 4643c-3,-34 8,-69 32,-98 27,-31 64,-46 102,-46 31,0 62,10 88,32 15,14 27,31 35,49 9,19 12,40 11,61 -3,-34 -18,-67 -46,-91 -26,-22 -57,-33 -88,-33 -38,0 -75,16 -102,47 -20,23 -31,51 -32,79z"/>
   <path class="fil115" d="M6877 5052c-3,-34 7,-70 32,-98 26,-31 64,-47 102,-47 31,0 62,11 87,33 34,29 49,70 47,110 -3,-34 -19,-67 -47,-91 -25,-22 -56,-33 -87,-33 -38,0 -76,16 -102,47 -20,23 -31,51 -32,79z"/>
   <path class="fil113" d="M7453 5209c-8,-17 -19,-32 -34,-45 -26,-22 -57,-33 -88,-33 0,0 0,0 0,0 31,0 62,11 88,33 15,13 26,28 34,45z"/>
   <path class="fil116" d="M7197 5276c-3,-35 8,-70 32,-98 27,-31 64,-47 102,-47 31,0 62,11 88,33 15,13 26,28 34,45 9,21 13,43 12,65 -2,-34 -18,-68 -46,-92 -26,-22 -57,-32 -88,-32 -38,0 -75,15 -102,46 -20,23 -30,51 -32,80z"/>
   <path class="fil113" d="M7634 5162c0,0 0,0 0,0 0,0 0,0 0,0zm0 -1c0,0 0,0 0,0 0,0 0,0 0,0zm0 0c0,0 0,0 0,0 0,0 0,0 0,0zm0 0c0,0 0,0 1,0 -1,0 -1,0 -1,0zm1 -1c0,0 0,0 0,0 0,0 0,0 0,0zm0 0c4,-7 9,-13 14,-20 -5,7 -10,13 -14,20zm14 -20c26,-30 64,-46 102,-46 -38,0 -76,16 -102,46zm191 -13c0,0 0,0 0,0 0,0 0,0 0,0zm-1 0c0,0 0,0 0,0 0,0 0,0 0,0zm0 0c0,0 0,0 0,0 0,0 0,0 0,0zm0 -1c-1,0 -1,0 -2,-1 1,1 1,1 2,1zm-88 -32c0,0 0,0 0,0l0 0c0,0 0,0 0,0z"/>
   <path class="fil117" d="M7617 5238c-2,-26 3,-53 17,-76 0,0 0,0 0,0 0,0 0,0 0,-1 0,0 0,0 0,0 0,0 0,0 0,0 0,0 0,0 0,0 0,0 0,0 0,0 0,0 0,0 1,0 0,0 0,0 0,-1 0,0 0,0 0,0 0,0 0,0 0,0 4,-7 9,-13 14,-20l0 0c26,-30 64,-46 102,-46 0,0 0,0 0,0 0,0 0,0 0,0 31,0 61,10 86,31 1,1 1,1 2,1l0 0c0,1 0,1 0,1 0,0 0,0 0,0 0,0 0,0 0,0 0,0 0,0 0,0 0,0 1,0 1,0 0,0 0,0 0,0 32,29 47,70 45,110 -3,-35 -18,-68 -46,-92 -26,-22 -57,-33 -88,-33 -38,0 -75,16 -102,47 -20,23 -31,51 -32,79z"/>
   <path class="fil118" d="M7980 4908c0,0 0,0 0,0 0,0 0,0 0,0zm0 -1c27,-30 64,-45 101,-45 -37,0 -74,15 -101,45zm190 -12l0 0 0 0zm-1 0c0,0 0,0 0,0 0,0 0,0 0,0zm0 0c0,0 -1,-1 -1,-1 0,0 1,1 1,1zm-1 -1c0,0 0,0 0,0 0,0 0,0 0,0zm-87 -32c0,0 0,0 0,0l0 0c0,0 0,0 0,0z"/>
   <path class="fil119" d="M7947 5007c-3,-35 8,-70 32,-98 0,-1 1,-1 1,-1 0,0 0,0 0,0 0,0 0,0 0,-1 27,-30 64,-45 101,-45 0,0 0,0 0,0 0,0 0,0 0,0 31,0 62,10 87,32 0,0 0,0 0,0 0,0 0,0 0,0 0,0 1,1 1,1l0 0c0,0 0,0 0,0 0,0 0,0 0,0 0,0 0,0 1,0l0 0c32,29 48,70 45,110 -3,-34 -18,-68 -46,-92 -26,-22 -57,-32 -88,-32 -38,0 -75,15 -102,46 -20,23 -30,51 -32,80z"/>
   <path class="fil20" d="M5416 5469l126 -3c40,-1 81,4 120,14l626 167c0,0 345,83 390,112l71 17c0,0 6,67 -28,89l-64 -21c0,0 -67,1 -286,-64l-546 -149 -218 -58c-16,-4 -32,-10 -46,-19l-145 -85z"/>
   <path class="fil20" d="M6721 5864c0,0 0,0 1,0 -1,0 -1,0 -1,0zm1 0c0,0 0,0 0,0 0,0 0,0 0,0zm0 0c0,0 0,0 0,0 0,0 0,0 0,0zm0 0c0,0 0,0 0,0 0,0 0,0 0,0zm0 0c0,0 0,0 0,0 0,0 0,0 0,0zm1 0l0 0c0,0 0,0 0,0zm-66 -20l0 0 0 0 0 0zm-1 0c0,0 0,0 0,0 0,0 0,0 0,0zm0 0c0,0 0,0 0,0 0,0 0,0 0,0zm0 0c0,0 0,0 0,0 0,0 0,0 0,0zm-1 0l0 0zm-1 0c0,0 0,0 0,0 0,0 0,0 0,0zm0 0c0,0 0,0 0,0 0,0 0,0 0,0zm0 0c0,0 0,0 0,0 0,0 0,0 0,0zm-1 0l0 0 0 0zm0 0c0,0 0,0 -1,0 1,0 1,0 1,0zm-1 0c0,0 0,0 0,0 0,0 0,0 0,0zm-1 0l0 0 0 0zm0 0c0,0 0,0 0,0 0,0 0,0 0,0zm0 0c0,0 0,0 0,0 0,0 0,0 0,0zm-1 0c0,0 0,0 0,0 0,0 0,0 0,0zm0 0c0,0 0,0 0,0 0,0 0,0 0,0zm0 0c0,0 -1,0 -1,0 0,0 1,0 1,0zm-1 0l0 0 0 0zm0 0c0,0 0,0 0,0 0,0 0,0 0,0zm-2 0c0,0 0,0 0,0 0,0 0,0 0,0zm-12 -1c0,0 0,0 0,0 0,0 0,0 0,0zm-10 -2c0,0 0,0 0,0 0,0 0,0 0,0zm-5 0c0,0 0,0 0,0 0,0 0,0 0,0zm-19 -3c0,0 0,0 0,0 0,0 0,0 0,0zm-12 -3c0,0 0,0 0,0 0,0 0,0 0,0zm-5 -1l0 0 0 0zm-9 -1c-1,-1 -2,-1 -3,-1 1,0 2,0 3,1zm-4 -1c0,0 0,0 0,0 0,0 0,0 0,0zm-1 0l0 0zm-7 -2c0,0 -1,0 -1,0 0,0 1,0 1,0zm-3 0c-1,0 -1,-1 -2,-1 1,0 1,1 2,1zm-2 -1c-1,0 -2,0 -3,0 1,0 2,0 3,0zm-3 -1l0 0 0 0zm-6 -1c0,0 0,0 0,0 0,0 0,0 0,0zm0 0c0,0 0,0 0,0 0,0 0,0 0,0zm-1 0c0,0 -1,0 -1,0 0,0 1,0 1,0zm-7 -2c0,0 0,0 0,0 0,0 0,0 0,0zm-2 0l0 0 0 0zm-16 -4c0,0 0,0 0,0 0,0 0,0 0,0zm-2 0c0,0 -1,0 -1,0 0,0 1,0 1,0zm-1 0c0,0 0,0 0,0 0,0 0,0 0,0zm0 0c0,0 0,0 0,0 0,0 0,0 0,0zm-2 -1c-1,0 -3,-1 -4,-1 1,0 3,1 4,1zm-5 -1c0,0 0,0 0,0 0,0 0,0 0,0zm-1 0c0,0 0,0 -1,0 1,0 1,0 1,0zm-1 0c0,0 0,0 0,0 0,0 0,0 0,0zm-1 -1c0,0 0,0 -1,0 1,0 1,0 1,0zm-2 0c-1,0 -1,0 -1,-1 0,1 0,1 1,1zm-1 -1c0,0 0,0 0,0 0,0 0,0 0,0z"/>
   <path class="fil120" d="M6488 5813l0 0 0 0zm-7 -2c0,0 0,0 0,0 0,0 0,0 0,0zm-1 0c0,0 0,0 -1,0 1,0 1,0 1,0zm-1 0c0,-1 -1,-1 -1,-1 0,0 1,0 1,1zm-1 -1c-1,0 -1,0 -1,0 0,0 0,0 1,0zm-2 0c-1,0 -1,-1 -2,-1 1,0 1,1 2,1zm-4 -1c-2,-1 -5,-2 -7,-2 2,0 5,1 7,2zm-8 -2c0,0 0,0 0,0 0,0 0,0 0,0zm-1 -1c0,0 -1,0 -1,0 0,0 1,0 1,0zm-2 0c0,0 0,0 0,0 0,0 0,0 0,0zm-1 0c0,-1 -1,-1 -1,-1 0,0 1,0 1,1zm-2 -1c-1,0 -2,-1 -3,-1 1,0 2,1 3,1zm-4 -1c0,0 0,0 0,0 0,0 0,0 0,0zm-1 0c0,0 -1,-1 -1,-1 0,0 1,1 1,1zm-2 -1c0,0 -1,0 -1,0 0,0 1,0 1,0zm-1 0c0,0 0,0 -1,0 1,0 1,0 1,0zm-1 0c-1,-1 -1,-1 -1,-1 0,0 0,0 1,1zm-1 -1c0,0 0,0 0,0 0,0 0,0 0,0zm-3 -1c0,0 0,0 0,0 0,0 0,0 0,0zm-1 0c0,0 0,0 -1,0 1,0 1,0 1,0zm-1 0c0,0 0,0 -1,0 1,0 1,0 1,0zm-2 -1c0,0 -1,0 -1,0 0,0 1,0 1,0zm-2 0c0,0 0,0 0,0 0,0 0,0 0,0zm-3 -1c0,0 -1,0 -1,0 0,0 1,0 1,0zm-1 0c0,0 -1,0 -1,-1 0,1 1,1 1,1zm-2 -1c0,0 0,0 0,0 0,0 0,0 0,0zm-1 0c-1,0 -1,0 -1,0 0,0 0,0 1,0zm-2 -1c-1,0 -2,0 -3,0 1,0 2,0 3,0zm-5 -1c0,0 -1,0 -1,0 0,0 1,0 1,0zm-1 0c-1,-1 -1,-1 -2,-1 1,0 1,0 2,1zm-2 -1c-1,0 -1,0 -2,0 1,0 1,0 2,0zm-3 -1c0,0 -1,0 -1,0 0,0 1,0 1,0zm-2 0c0,0 0,0 0,0 0,0 0,0 0,0zm-1 -1c0,0 0,0 -1,0 1,0 1,0 1,0z"/>
   <path class="fil120" d="M6389 5786c0,0 -1,0 -1,0 0,0 1,0 1,0zm-2 -1c-3,-1 -6,-1 -8,-2 2,1 5,1 8,2zm-10 -3c-1,0 -2,-1 -4,-1 2,0 3,1 4,1zm-5 -1c0,0 -1,0 -1,-1l-546 -149 546 149c0,1 1,1 1,1zm-839 -243c0,0 0,0 0,0l-117 -69 117 69z"/>
   <path class="fil121" d="M6721 5865l-64 -21 0 0c0,0 0,0 0,0l0 0c0,0 -1,0 -1,0 0,0 0,0 0,0 0,0 0,0 0,0 0,0 0,0 0,0l0 0c0,0 0,0 0,0 -1,0 -1,0 -1,0l0 0c-1,0 -1,0 -1,0 0,0 0,0 0,0l0 0c0,0 0,0 0,0 0,0 0,0 0,0 0,0 0,0 0,0 0,0 -1,0 -1,0l0 0c0,0 0,0 0,0 0,0 0,0 -1,0 0,0 0,0 0,0 0,0 0,0 0,0 0,0 0,0 -1,0l0 0c0,0 0,0 0,0 0,0 0,0 0,0 0,0 0,0 0,0 0,0 0,0 0,0 -1,0 -1,0 -1,0 0,0 0,0 0,0 0,0 0,0 0,0 0,0 0,0 0,0l0 0c0,0 -1,0 -1,0 0,0 0,0 0,0l0 0c0,0 0,0 0,0 0,0 0,0 0,0 -1,0 -1,0 -2,0 0,0 0,0 0,0 -3,0 -7,-1 -12,-1 0,0 0,0 0,0 -3,-1 -7,-1 -10,-2 0,0 0,0 0,0 -2,0 -3,0 -5,0 0,0 0,0 0,0 -5,-1 -12,-2 -19,-3 0,0 0,0 0,0 -4,-1 -8,-2 -12,-3 0,0 0,0 0,0 -2,0 -3,0 -5,-1l0 0c-3,0 -6,-1 -9,-1 -1,-1 -2,-1 -3,-1 0,0 0,0 -1,0 0,0 0,0 0,0 0,0 -1,0 -1,0l0 0c-2,-1 -5,-1 -7,-2 0,0 -1,0 -1,0 0,0 -1,0 -2,0 -1,0 -1,-1 -2,-1 0,0 0,0 0,0 -1,0 -2,0 -3,0 0,0 0,0 0,-1l0 0c-2,0 -4,0 -6,-1 0,0 0,0 0,0 0,0 0,0 0,0 0,0 0,0 0,0 0,0 -1,0 -1,0 0,0 -1,0 -1,0 -2,-1 -4,-1 -6,-2 0,0 0,0 0,0 -1,0 -2,0 -2,0l0 0c-5,-1 -11,-2 -16,-4 0,0 0,0 0,0 -1,0 -1,0 -2,0 0,0 -1,0 -1,0 0,0 0,0 0,0 0,0 0,0 0,0 0,0 0,0 0,0 0,0 0,0 0,0 -1,-1 -1,-1 -2,-1 -1,0 -3,-1 -4,-1 0,0 -1,0 -1,0 0,0 0,0 0,0 0,0 -1,0 -1,0 0,0 0,0 -1,0 0,0 0,0 0,0 0,0 0,0 0,0 0,-1 0,-1 -1,-1 0,0 0,0 -1,0 0,0 -1,0 -1,0 -1,0 -1,0 -1,-1 0,0 0,0 0,0 0,0 0,0 0,0 -6,-1 -12,-3 -19,-4l0 0c-2,-1 -5,-1 -7,-2 0,0 0,0 0,0 -1,0 -1,0 -1,0 0,0 0,0 -1,0 0,0 0,0 0,0 0,-1 -1,-1 -1,-1 0,0 0,0 0,0 -1,0 -1,0 -1,0 -1,0 -1,0 -1,0 -1,0 -1,-1 -2,-1 0,0 -1,0 -2,0 -2,-1 -5,-2 -7,-2 -1,0 -1,0 -1,0 0,0 0,0 0,0 -1,-1 -1,-1 -1,-1 0,0 -1,0 -1,0 -1,0 -1,0 -1,0 0,0 0,0 0,0 -1,0 -1,0 -1,0 0,-1 -1,-1 -1,-1 -1,0 -1,0 -1,0 -1,0 -2,-1 -3,-1 -1,0 -1,0 -1,0 0,0 0,0 0,0 -1,0 -1,0 -1,0 0,0 -1,-1 -1,-1 0,0 -1,0 -1,0 0,0 -1,0 -1,0 0,0 0,0 0,0 0,0 0,0 -1,0 0,0 0,0 0,0 -1,-1 -1,-1 -1,-1l0 0c0,0 0,0 0,0 -1,0 -2,0 -3,-1 0,0 0,0 0,0 0,0 -1,0 -1,0 0,0 0,0 -1,0 0,0 0,0 0,0 0,0 0,0 -1,0 0,0 -1,-1 -1,-1 0,0 -1,0 -1,0 0,0 0,0 -1,0 0,0 0,0 0,0 -1,0 -2,-1 -3,-1 0,0 -1,0 -1,0 0,0 0,0 0,0 0,0 -1,0 -1,-1 0,0 -1,0 -1,0 0,0 0,0 0,0 -1,0 -1,0 -1,0 -1,0 -1,0 -1,0 0,0 -1,-1 -1,-1 -1,0 -2,0 -3,0 -1,-1 -1,-1 -2,-1 0,0 -1,0 -1,0 0,0 0,0 0,0 -1,-1 -1,-1 -2,-1 0,0 0,0 0,0 -1,0 -1,0 -2,0 0,0 -1,-1 -1,-1 0,0 -1,0 -1,0 0,0 0,0 -1,0 0,0 0,0 0,0 0,0 -1,0 -1,-1 0,0 0,0 -1,0 -2,0 -4,-1 -6,-1 0,-1 0,-1 -1,-1 -2,0 -4,-1 -6,-1 0,-1 0,-1 -1,-1 -1,0 -1,0 -2,0 0,-1 -1,-1 -1,-1 -3,-1 -6,-1 -9,-2 0,0 -1,0 -1,0 0,-1 0,-1 -1,-1 -3,-1 -6,-1 -8,-2 -1,0 -1,-1 -2,-1 -1,0 -2,-1 -4,-1 0,0 -1,0 -1,0 0,0 -1,0 -1,-1l-546 -149 -187 -49c-36,-10 -72,-25 -105,-44l-117 -69 188 72 242 64 546 149c215,64 284,64 286,64 0,0 0,0 0,0l63 20c-4,10 -10,19 -18,26l0 0c-1,0 -1,0 -1,0 0,0 0,0 0,0 0,0 0,0 0,0 0,0 0,0 0,0 0,0 0,0 0,0 0,0 0,0 0,0 0,0 0,0 0,0 0,0 0,0 0,0 0,0 0,0 0,0 -1,0 -1,0 -1,0 0,0 0,0 0,1l0 0z"/>
  </g>
 </g>
</svg>
