<?xml version="1.0" standalone="no"?>
<svg viewBox="0 0 200 200" xmlns="http://www.w3.org/2000/svg">
  <path fill="#BAE6FF" d="M26.2,-38.3C39.4,-26.5,59.1,-26.1,62.7,-19.4C66.3,-12.7,53.6,0.3,47.1,13.7C40.6,27.1,40.1,40.9,33.3,46.8C26.5,52.8,13.2,50.9,-0.4,51.5C-14.1,52.2,-28.3,55.2,-43.9,52.1C-59.5,49.1,-76.7,39.8,-74.1,28.6C-71.5,17.4,-49.1,4.4,-40.9,-11C-32.7,-26.3,-38.7,-43.9,-34.3,-58.5C-29.8,-73.1,-14.9,-84.6,-4.2,-78.8C6.5,-73.1,13.1,-50,26.2,-38.3Z" transform="translate(100 100)" />
</svg>
