<?xml version="1.0" standalone="no"?>
<svg viewBox="0 0 200 200" xmlns="http://www.w3.org/2000/svg">
  <path fill="#BAE6FF" d="M40.3,-74.8C47.7,-65.5,46,-45.6,50.3,-31.3C54.6,-17.1,64.8,-8.5,71.7,4C78.7,16.6,82.4,33.1,76,43.8C69.7,54.4,53.2,59,38.9,64.9C24.5,70.7,12.3,77.8,-1,79.5C-14.3,81.2,-28.5,77.7,-40.4,70.4C-52.3,63.1,-61.8,52.1,-70.7,39.8C-79.7,27.4,-88.2,13.7,-90.1,-1.1C-92.1,-15.9,-87.5,-31.9,-75.8,-39.6C-64.1,-47.2,-45.3,-46.6,-31.5,-52.2C-17.7,-57.8,-8.8,-69.6,3.8,-76.2C16.4,-82.8,32.9,-84.1,40.3,-74.8Z" transform="translate(100 100)" />
</svg>
