<?xml version="1.0" encoding="UTF-8"?>
<!DOCTYPE svg PUBLIC "-//W3C//DTD SVG 1.1//EN" "http://www.w3.org/Graphics/SVG/1.1/DTD/svg11.dtd">
<!-- Creator: CorelDRAW X6 -->
<svg xmlns="http://www.w3.org/2000/svg" xml:space="preserve" width="18.8262in" height="10.9526in" version="1.1" style="shape-rendering:geometricPrecision; text-rendering:geometricPrecision; image-rendering:optimizeQuality; fill-rule:evenodd; clip-rule:evenodd"
viewBox="0 0 18512 10770"
 xmlns:xlink="http://www.w3.org/1999/xlink">
 <defs>
  <style type="text/css">
   <![CDATA[
    .fil16 {fill:#322E3F;fill-rule:nonzero}
    .fil13 {fill:#343044;fill-rule:nonzero}
    .fil4 {fill:#393745;fill-rule:nonzero}
    .fil7 {fill:#3970B6;fill-rule:nonzero}
    .fil6 {fill:#397EC0;fill-rule:nonzero}
    .fil8 {fill:#3D60AA;fill-rule:nonzero}
    .fil14 {fill:#46425E;fill-rule:nonzero}
    .fil15 {fill:#5C5787;fill-rule:nonzero}
    .fil0 {fill:#CCE2F0;fill-rule:nonzero}
    .fil18 {fill:#F16258;fill-rule:nonzero}
    .fil2 {fill:#F1823C;fill-rule:nonzero}
    .fil3 {fill:#F3BF5A;fill-rule:nonzero}
    .fil17 {fill:#F47F69;fill-rule:nonzero}
    .fil12 {fill:#F4A588;fill-rule:nonzero}
    .fil1 {fill:#F9A13C;fill-rule:nonzero}
    .fil5 {fill:#FEFEFE;fill-rule:nonzero}
    .fil10 {fill:#373435;fill-rule:nonzero}
    .fil11 {fill:#4B4B4D;fill-rule:nonzero}
    .fil9 {fill:#F58634;fill-rule:nonzero}
   ]]>
  </style>
 </defs>
 <g id="Layer_x0020_1">
  <metadata id="CorelCorpID_0Corel-Layer"/>
  <path class="fil0" d="M15179 10246c-698,-531 -1893,-1848 -320,-3915 1946,-2557 -384,-3606 -2618,-3496 -1796,88 -3819,-2171 -5836,-1768 -2677,536 -939,2842 -2754,4084 -1548,1060 -884,4288 1131,5095l10397 0z"/>
  <path class="fil0" d="M15879 5492c-10,-379 -363,-526 -599,-252 -135,158 -264,384 -288,686 -54,676 537,480 758,118 94,-155 135,-360 129,-552z"/>
  <path class="fil0" d="M3774 4407c149,-349 -110,-630 -439,-480 -189,87 -401,238 -549,502 -333,591 286,661 639,425 150,-101 273,-271 349,-447z"/>
  <path class="fil0" d="M16099 10349c0,232 -2859,421 -6387,421 -3528,0 -6387,-189 -6387,-421 0,-232 2859,-420 6387,-420 3528,0 6387,188 6387,420z"/>
  <polygon class="fil1" points="4366,10215 14146,10215 14146,3459 4366,3459 "/>
  <polygon class="fil2" points="14146,3460 14146,3893 9256,8226 4366,3893 4366,3460 9256,7808 "/>
  <polygon class="fil2" points="8281,6955 4617,10215 4334,10215 4334,10043 8071,6719 "/>
  <polygon class="fil2" points="14146,10065 14146,10215 13837,10215 10173,6955 10383,6719 "/>
  <polygon class="fil3" points="4366,3459 9256,7808 14146,3459 "/>
  <polygon class="fil4" points="11786,823 11786,823 11786,822 "/>
  <path class="fil1" d="M13386 2556l-585 0c-45,0 -81,-37 -81,-82l0 -584c0,-45 36,-81 81,-81l585 0c45,0 81,36 81,81l0 584c0,45 -36,82 -81,82z"/>
  <path class="fil3" d="M13348 2182c0,62 -22,118 -58,162 -47,56 -118,92 -196,92 -79,0 -150,-36 -197,-92 -36,-44 -58,-100 -58,-162 0,-140 114,-254 255,-254 140,0 254,114 254,254z"/>
  <path class="fil5" d="M13290 2344c-47,56 -118,92 -196,92 -79,0 -150,-36 -197,-92l4 -7c5,-11 13,-20 22,-28 9,-7 20,-13 32,-17 41,-13 79,-25 101,-62 -26,-13 -44,-37 -51,-55 -29,6 -49,-47 -34,-61 6,-5 12,-7 17,-6 5,-55 50,-103 106,-103 55,0 100,48 105,103 5,-1 11,1 17,6 15,14 -5,67 -34,61 -6,20 -28,43 -47,51 21,37 56,53 97,66 12,4 23,10 32,17 9,8 17,17 22,28l4 7z"/>
  <path class="fil1" d="M3709 6540l-584 0c-45,0 -81,-36 -81,-81l0 -584c0,-45 36,-81 81,-81l584 0c45,0 82,36 82,81l0 584c0,45 -37,81 -82,81z"/>
  <path class="fil5" d="M3417 6132c-38,0 -69,-31 -69,-69 0,-38 31,-69 69,-69 38,0 69,31 69,69 0,38 -31,69 -69,69zm11 -213c-95,-6 -174,70 -174,164 0,30 8,58 23,83 21,36 44,72 64,109l78 140 118 -213c7,-13 14,-25 21,-37 15,-25 23,-55 23,-86 -2,-84 -69,-154 -153,-160z"/>
  <path class="fil6" d="M14834 3077c63,0 115,-51 115,-115 0,-63 -52,-114 -115,-114 -63,0 -114,51 -114,114 0,64 51,115 114,115zm0 -281c92,0 167,74 167,166 0,92 -75,167 -167,167 -92,0 -166,-75 -166,-167 0,-92 74,-166 166,-166z"/>
  <path class="fil1" d="M14234 2492c63,0 115,-51 115,-114 0,-64 -52,-115 -115,-115 -63,0 -114,51 -114,115 0,63 51,114 114,114zm0 -281c92,0 167,75 167,167 0,91 -75,166 -167,166 -92,0 -167,-75 -167,-166 0,-92 75,-167 167,-167z"/>
  <path class="fil6" d="M14028 1669c15,0 26,12 26,26l0 116c0,14 -11,26 -26,26 -14,0 -26,-12 -26,-26l0 -116c0,-14 12,-26 26,-26z"/>
  <path class="fil6" d="M14028 1467c15,0 26,12 26,26l0 116c0,14 -11,26 -26,26 -14,0 -26,-12 -26,-26l0 -116c0,-14 12,-26 26,-26z"/>
  <path class="fil6" d="M13866 1626l104 0c14,0 26,12 26,26 0,14 -12,26 -26,26l-104 0c-14,0 -26,-12 -26,-26 0,-14 12,-26 26,-26z"/>
  <path class="fil6" d="M14086 1626l104 0c15,0 26,12 26,26 0,14 -11,26 -26,26l-104 0c-14,0 -26,-12 -26,-26 0,-14 12,-26 26,-26z"/>
  <path class="fil1" d="M14949 2315c14,0 26,12 26,26l0 116c0,14 -12,26 -26,26 -15,0 -26,-12 -26,-26l0 -116c0,-14 11,-26 26,-26z"/>
  <path class="fil1" d="M14949 2113c14,0 26,12 26,27l0 115c0,14 -12,26 -26,26 -15,0 -26,-12 -26,-26l0 -115c0,-15 11,-27 26,-27z"/>
  <path class="fil1" d="M14787 2272l103 0c15,0 27,12 27,26 0,15 -12,26 -27,26l-103 0c-15,0 -26,-11 -26,-26 0,-14 11,-26 26,-26z"/>
  <path class="fil1" d="M15007 2272l104 0c14,0 26,12 26,26 0,15 -12,26 -26,26l-104 0c-14,0 -26,-11 -26,-26 0,-14 12,-26 26,-26z"/>
  <path class="fil6" d="M5656 739c-63,0 -114,51 -114,114 0,63 51,115 114,115 63,0 115,-52 115,-115 0,-63 -52,-114 -115,-114zm0 -53c92,0 167,75 167,167 0,92 -75,167 -167,167 -92,0 -166,-75 -166,-167 0,-92 74,-167 166,-167z"/>
  <path class="fil1" d="M5049 188c-63,0 -114,51 -114,114 0,64 51,115 114,115 63,0 115,-51 115,-115 0,-63 -52,-114 -115,-114zm0 -52c92,0 167,75 167,166 0,92 -75,167 -167,167 -92,0 -166,-75 -166,-167 0,-91 74,-166 166,-166z"/>
  <path class="fil6" d="M4829 1089c0,14 12,26 26,26l116 0c14,0 26,-12 26,-26 0,-15 -12,-26 -26,-26l-116 0c-14,0 -26,11 -26,26z"/>
  <path class="fil6" d="M4628 1089c0,14 11,26 26,26l115 0c14,0 26,-12 26,-26 0,-15 -12,-26 -26,-26l-115 0c-15,0 -26,11 -26,26z"/>
  <path class="fil6" d="M4786 927l0 103c0,15 12,27 26,27 15,0 26,-12 26,-27l0 -103c0,-15 -11,-26 -26,-26 -14,0 -26,11 -26,26z"/>
  <path class="fil6" d="M4786 1147l0 104c0,14 12,26 26,26 15,0 26,-12 26,-26l0 -104c0,-14 -11,-26 -26,-26 -14,0 -26,12 -26,26z"/>
  <path class="fil1" d="M6051 188c0,14 11,26 26,26l115 0c14,0 26,-12 26,-26 0,-14 -12,-26 -26,-26l-115 0c-15,0 -26,12 -26,26z"/>
  <path class="fil1" d="M5849 188c0,14 11,26 26,26l115 0c15,0 26,-12 26,-26 0,-14 -11,-26 -26,-26l-115 0c-15,0 -26,12 -26,26z"/>
  <path class="fil1" d="M6007 26l0 104c0,14 12,26 26,26 15,0 27,-12 27,-26l0 -104c0,-14 -12,-26 -27,-26 -14,0 -26,12 -26,26z"/>
  <path class="fil1" d="M6007 246l0 104c0,14 12,26 26,26 15,0 27,-12 27,-26l0 -104c0,-14 -12,-26 -27,-26 -14,0 -26,12 -26,26z"/>
  <path class="fil0" d="M12975 979c3,1 7,1 11,0 39,-10 62,-14 63,-14 12,-2 19,-12 17,-24 -2,-11 -13,-18 -25,-16 -1,0 -25,4 -66,14 -12,3 -19,14 -16,25 2,8 8,13 16,15z"/>
  <path class="fil0" d="M11721 1942c-21,35 -41,71 -59,108 -5,9 -15,14 -25,11l-4 -1c-11,-5 -16,-17 -11,-27 19,-38 39,-75 60,-111 6,-10 19,-14 30,-8 11,5 15,18 9,28z"/>
  <path class="fil0" d="M11610 2162c-16,37 -31,75 -45,114 -4,10 -15,16 -26,13l-2 0c-11,-4 -18,-15 -14,-26 14,-40 30,-79 46,-117 5,-10 18,-15 29,-11 11,4 17,16 12,27z"/>
  <path class="fil0" d="M11423 2768c-11,-2 -18,-12 -16,-22 5,-42 12,-83 19,-123 2,-11 14,-19 26,-17 12,2 20,13 18,24 -8,40 -14,80 -20,121 -1,11 -12,19 -24,18l-3 -1z"/>
  <path class="fil0" d="M11512 2367c11,3 18,14 15,25 -5,19 -11,37 -16,55 -5,21 -11,42 -16,64 -2,11 -14,18 -26,15l-1 0c-11,-3 -18,-14 -16,-24 5,-22 11,-44 17,-65 5,-19 10,-37 15,-56 4,-11 16,-17 27,-14l1 0z"/>
  <path class="fil0" d="M11759 1823c-5,8 -15,12 -24,9l-6 -2c-10,-6 -14,-19 -7,-29 23,-35 48,-69 74,-103 7,-9 21,-11 31,-4 10,7 12,19 5,29 -25,32 -50,66 -73,100z"/>
  <path class="fil0" d="M12862 1014c-40,13 -81,28 -121,43 -5,2 -10,2 -14,1 -7,-1 -12,-6 -15,-12 -5,-10 0,-22 12,-27 41,-16 83,-31 124,-44 11,-3 24,2 28,13 4,11 -2,23 -14,26z"/>
  <path class="fil0" d="M12507 1163c-5,3 -11,4 -16,2 -6,-1 -11,-4 -14,-10 -6,-10 -2,-22 9,-28 38,-20 77,-39 117,-57 11,-5 24,-1 29,10 6,10 1,22 -10,27 -39,18 -77,37 -115,56z"/>
  <path class="fil0" d="M12089 1449c-6,5 -14,7 -21,5 -4,-1 -8,-3 -11,-6 -8,-8 -7,-21 2,-29 32,-28 65,-56 99,-82 9,-7 23,-6 31,3 8,9 6,22 -3,29 -33,26 -66,53 -97,80z"/>
  <path class="fil0" d="M12288 1295c-5,3 -12,4 -18,3 -5,-1 -9,-4 -12,-8 -8,-9 -5,-22 5,-29 35,-24 72,-48 109,-70 10,-6 24,-3 30,6 7,10 4,23 -6,29 -37,22 -73,45 -108,69z"/>
  <path class="fil0" d="M11911 1627c-5,6 -14,8 -22,6 -3,0 -6,-2 -9,-4 -9,-7 -11,-20 -3,-29 28,-32 58,-63 88,-93 8,-8 22,-9 31,-1 9,8 9,21 1,29 -30,30 -58,60 -86,92z"/>
  <polygon class="fil6" points="12997,839 12952,494 14121,662 "/>
  <polygon class="fil7" points="14121,662 13041,927 13038,928 12984,990 12997,839 "/>
  <polygon class="fil8" points="12984,990 13081,989 13038,928 "/>
  <polygon class="fil6" points="13174,894 13038,928 13259,1242 14121,662 "/>
  <g id="_334484608">
   <g>
    <path class="fil9" d="M2649 8357l-2434 0c41,-244 234,-421 460,-421l757 3 758 -3c225,0 419,177 459,421z"/>
    <polygon class="fil10" points="407,10592 539,10592 539,8322 407,8322 "/>
    <polygon class="fil10" points="2325,10592 2458,10592 2458,8322 2325,8322 "/>
    <polygon class="fil11" points="539,9086 2325,9086 2325,8958 539,8958 "/>
    <path class="fil7" d="M836 5303c0,0 -406,542 -460,1014 -38,334 460,833 460,833l172 -85 -171 -386c-61,-188 -136,-263 -81,-453l125 -267 -45 -656z"/>
    <path class="fil7" d="M2117 5294c0,0 402,578 435,1053 28,409 -463,803 -463,803l-142 -70 197 -390c61,-189 90,-302 7,-507l-106 -224 72 -665z"/>
    <path class="fil6" d="M919 6537l-269 857c0,0 1166,149 1523,53l-181 -934 125 -1219c-174,-73 -359,-120 -548,-134 -276,-20 -450,26 -733,143l83 1234z"/>
    <path class="fil7" d="M1211 5561c257,-30 497,-207 508,-215 6,-5 7,-14 2,-20 -4,-7 -13,-8 -20,-3 -2,2 -284,210 -555,214 -8,0 -14,6 -14,14 0,8 6,14 14,14 22,0 43,-2 65,-4z"/>
    <polygon class="fil12" points="1418,10153 1439,10342 1641,10347 1657,10190 "/>
    <path class="fil13" d="M1387 7153c0,0 -522,-29 -698,115 -177,145 -141,559 39,673 180,113 486,335 486,335l195 1939 258 9c0,0 237,-1948 117,-2325 -120,-377 -397,-746 -397,-746z"/>
    <path class="fil14" d="M1691 10127c14,46 7,90 -7,133l-297 -6c-10,-44 -12,-87 -5,-130l309 3z"/>
    <path class="fil5" d="M2124 7138l-1368 0 -126 -739c-11,-64 38,-123 103,-123l1414 0c65,0 115,59 104,123l-127 739z"/>
    <path class="fil0" d="M2014 7299l-1146 0c-62,0 -112,-50 -112,-112l0 -49 1370 0 0 49c0,62 -50,112 -112,112z"/>
    <path class="fil0" d="M1562 6738c0,65 -53,118 -119,118 -65,0 -118,-53 -118,-118 0,-66 53,-119 118,-119 66,0 119,53 119,119z"/>
    <polygon class="fil12" points="563,9621 519,9808 699,9844 773,9677 "/>
    <path class="fil14" d="M1651 7121c0,0 -349,-121 -553,132 -205,253 -548,2387 -548,2387l235 96 756 -1895c0,0 614,351 689,-148 59,-394 -579,-572 -579,-572z"/>
    <path class="fil15" d="M839 9639c-1,49 -22,90 -50,128l-288 -102c3,-46 16,-89 36,-130l302 104z"/>
    <path class="fil6" d="M657 9777c0,0 -110,-55 -142,-62 -32,-6 -299,183 -374,181 -137,-3 -180,198 -103,225 225,79 641,69 641,69 0,0 92,-250 94,-334 2,-84 -57,-41 -116,-79z"/>
    <path class="fil5" d="M417 9956c4,2 9,2 13,0 9,-3 13,-12 9,-21 -1,-2 -28,-68 -72,-98 -59,-40 -113,-12 -115,-11 -8,4 -11,14 -7,22 4,8 14,10 22,6 2,-1 40,-19 81,9 37,25 61,83 61,84 2,4 5,7 8,9z"/>
    <path class="fil5" d="M472 9918c4,2 9,2 13,0 8,-3 12,-12 9,-21 -1,-2 -28,-68 -72,-98 -59,-40 -114,-12 -116,-11 -8,4 -11,14 -6,22 4,8 14,11 22,6 1,0 39,-19 81,9 36,25 60,84 61,84 1,4 4,7 8,9z"/>
    <path class="fil5" d="M347 9983c4,2 8,2 13,0 8,-3 12,-12 9,-21 -1,-2 -28,-68 -73,-98 -58,-40 -113,-12 -115,-11 -8,4 -11,14 -6,22 4,7 14,10 22,6 1,-1 39,-19 81,9 36,25 60,83 60,84 2,4 5,7 9,9z"/>
    <path class="fil6" d="M1517 10334c0,0 112,-34 143,-34 32,-1 250,221 321,232 129,19 137,215 60,228 -225,37 -614,-42 -614,-42 0,0 -45,-250 -33,-329 13,-80 61,-29 123,-55z"/>
    <path class="fil5" d="M1712 10542c-4,1 -8,0 -12,-2 -8,-4 -10,-14 -5,-21 1,-3 37,-59 84,-80 62,-29 108,7 110,8 7,6 8,15 3,22 -6,6 -16,8 -22,2 -2,-1 -34,-25 -78,-5 -38,18 -70,68 -71,69 -2,3 -5,6 -9,7z"/>
    <path class="fil5" d="M1667 10497c-4,1 -8,1 -12,-2 -8,-4 -10,-14 -5,-21 1,-2 37,-59 84,-80 62,-28 108,7 110,9 7,5 8,15 3,21 -6,7 -16,8 -22,3 -2,-1 -34,-25 -78,-5 -38,17 -70,68 -71,68 -2,4 -5,6 -9,7z"/>
    <path class="fil5" d="M1774 10579c-4,1 -9,0 -12,-2 -8,-4 -10,-14 -6,-21 2,-2 38,-59 85,-80 62,-29 108,7 110,8 7,6 8,15 2,22 -5,6 -15,8 -21,2 -2,-1 -34,-25 -78,-5 -38,18 -71,68 -71,69 -2,3 -6,6 -9,7z"/>
    <path class="fil14" d="M1821 4080c0,0 166,257 148,525 -18,267 24,576 -215,563 -240,-14 -667,96 -802,-113 -136,-208 869,-975 869,-975z"/>
    <path class="fil16" d="M1883 4552c0,0 43,388 -141,495 -184,107 -318,-12 -318,-12 0,0 388,-541 459,-483z"/>
    <path class="fil17" d="M1799 4551c0,0 66,-88 116,-16 49,73 -21,289 -141,236l25 -220z"/>
    <path class="fil18" d="M1800 4704c5,0 9,-2 10,-7 19,-66 87,-93 88,-94 5,-2 8,-7 6,-13 -2,-5 -8,-8 -13,-6 -3,2 -79,31 -101,108 -1,5 2,11 7,12l3 0z"/>
    <path class="fil18" d="M1870 4671l5 -2c5,-3 6,-9 3,-14 0,0 -13,-19 -38,-30 -5,-3 -11,0 -13,5 -3,5 0,11 5,13 19,9 29,23 29,23 2,3 5,5 9,5z"/>
    <path class="fil12" d="M1621 4954l0 214c0,0 -63,109 -150,116 -86,8 -163,-94 -163,-94l0 -221 313 -15z"/>
    <path class="fil17" d="M1621 4954l0 95c-58,64 -160,87 -313,64l0 -144 313 -15z"/>
    <path class="fil12" d="M1847 4404c-4,83 -12,187 -28,270 -4,21 -8,40 -13,58 -45,158 -158,428 -473,316 -140,-50 -204,-205 -233,-363 -19,-107 -22,-216 -21,-293 2,-79 45,-151 113,-190 187,-106 383,-66 512,-17 90,35 148,123 143,219z"/>
    <path class="fil14" d="M1320 4584c0,23 -12,41 -27,41 -14,0 -26,-18 -26,-41 0,-23 12,-42 26,-42 15,0 27,19 27,42z"/>
    <path class="fil14" d="M1645 4584c0,23 -12,41 -27,41 -14,0 -26,-18 -26,-41 0,-23 12,-42 26,-42 15,0 27,19 27,42z"/>
    <path class="fil14" d="M1241 4446c22,-6 66,-17 113,-17 12,0 21,11 19,23l0 0c-1,10 -10,17 -20,16 -31,-1 -115,3 -154,19 -1,-7 3,-14 9,-21 9,-10 21,-16 33,-20z"/>
    <path class="fil14" d="M1666 4447c-22,-6 -66,-17 -112,-17 -12,0 -22,11 -20,23l0 0c2,10 11,17 21,16 31,-1 114,3 154,19 0,-7 -4,-14 -9,-21 -9,-10 -21,-17 -34,-20z"/>
    <path class="fil17" d="M1462 4752c-8,0 -15,-1 -22,-5 -6,-4 -13,-11 -15,-25 -4,-37 6,-155 6,-160 1,-5 6,-9 11,-9 6,1 10,5 10,11 0,1 -10,120 -6,156 0,6 3,8 5,9 9,6 31,0 40,-4 6,-2 11,1 14,6 2,5 -1,11 -6,13 -3,1 -20,8 -37,8z"/>
    <path class="fil5" d="M1333 4816c8,39 33,110 119,110 87,0 111,-65 119,-110l-238 0z"/>
    <path class="fil17" d="M1451 4985c-25,0 -47,-13 -48,-14 -4,-3 -6,-9 -3,-14 3,-4 9,-6 14,-3 0,0 18,11 37,11 21,0 39,-11 39,-11 5,-3 11,-1 14,4 3,4 2,11 -3,13 -1,1 -24,14 -50,14z"/>
    <path class="fil14" d="M1888 4387c-3,10 -12,15 -24,19 0,22 -2,49 -4,75 -13,147 -50,173 -58,137 -6,-24 -5,-163 -3,-208 -29,-2 -54,-7 -54,-7l-34 -142 -12 141c-51,17 -170,-11 -170,-11l-40 -141 -25 136c-76,37 -172,12 -172,12l-22 -146 -51 146c0,0 -164,59 -166,0 -1,-34 24,-130 45,-205 23,-81 77,-150 149,-189 203,-108 418,-51 491,-7 156,94 150,390 150,390z"/>
    <path class="fil14" d="M1144 4091c0,0 -135,160 -180,446 -44,286 -105,498 67,592 187,102 171,-107 168,-164 -3,-57 -161,-213 -55,-652 34,-141 0,-222 0,-222z"/>
    <path class="fil16" d="M1112 4682l0 1c0,2 0,13 1,31 0,11 1,24 2,40 6,96 25,262 80,320 22,23 64,34 113,39l0 -76c-52,-24 -92,-65 -124,-115 -19,-42 -53,-108 -68,-211l-4 -29z"/>
    <path class="fil5" d="M1849 4776c0,13 -10,24 -23,24 -14,0 -24,-11 -24,-24 0,-13 10,-24 24,-24 13,0 23,11 23,24z"/>
   </g>
   <g>
    <path class="fil5" d="M14462 3616c-4,1 -9,1 -13,-1 -7,-5 -10,-14 -6,-22 2,-3 37,-63 83,-86 63,-32 111,3 113,5 7,5 9,15 3,22 -5,7 -15,9 -22,3 -1,-1 -35,-24 -79,-2 -39,19 -70,73 -70,74 -2,3 -5,6 -9,7z"/>
    <path class="fil12" d="M16358 4927c0,0 -135,256 -293,458 -47,60 -96,115 -144,157 -78,69 -154,105 -216,75 -230,-114 -742,-1017 -742,-1017l126 -146c0,0 228,258 395,412 153,142 272,249 272,249 21,-32 44,-67 67,-104 25,-39 51,-80 78,-123 192,-308 423,-646 423,-646l34 685z"/>
    <path class="fil12" d="M15123 4542c0,0 52,-85 31,-161 -20,-77 -39,-250 -123,-245 -30,2 14,74 -6,141 0,0 -90,-43 -149,-87 -53,-39 -162,-103 -213,-131 -14,-8 -30,7 -22,20 13,23 45,55 119,101 0,0 -183,-102 -214,-79 -30,22 201,146 201,146 0,0 -187,-75 -202,-48 -9,17 173,124 173,124 0,0 -181,-56 -147,-13 9,12 354,168 426,349 0,0 101,-55 126,-117z"/>
    <path class="fil17" d="M16065 5385c-47,60 -96,115 -144,157l-98 -531c25,-39 51,-80 78,-123l164 497z"/>
    <path class="fil6" d="M16331 4218l-486 700 155 624 381 -607c0,0 71,-407 -50,-717z"/>
    <g>
     <path class="fil6" d="M16633 10422c0,0 -43,-59 -78,-57 -35,2 -309,206 -402,221 -93,16 -77,83 -60,117 16,35 737,3 737,3 0,0 25,-209 2,-274 -22,-65 -127,7 -199,-10z"/>
     <path class="fil5" d="M16480 10566c4,1 7,0 11,-1 6,-4 8,-11 5,-18 -1,-2 -29,-50 -66,-70 -50,-26 -90,1 -92,2 -6,4 -7,12 -3,18 4,6 12,7 18,3 1,-1 29,-19 65,0 30,16 55,59 55,60 2,2 4,5 7,6z"/>
     <path class="fil5" d="M16520 10531c3,1 7,0 10,-1 6,-4 9,-11 5,-17 -1,-3 -28,-51 -66,-71 -50,-26 -90,1 -91,2 -6,5 -8,12 -3,18 4,6 12,7 18,3 1,-1 29,-19 64,0 31,16 55,59 55,60 2,3 5,5 8,6z"/>
     <path class="fil5" d="M16427 10593c4,1 7,1 11,-1 6,-3 8,-11 5,-17 -1,-2 -28,-50 -66,-70 -50,-26 -90,1 -92,2 -6,4 -7,12 -3,18 4,6 12,7 18,3 1,-1 29,-19 65,-1 31,16 55,60 55,60 2,3 4,5 7,6z"/>
    </g>
    <g>
     <polygon class="fil12" points="16580,10209 16580,10430 16786,10427 16800,10193 "/>
     <polygon class="fil12" points="17585,10209 17607,10430 17791,10427 17805,10193 "/>
     <g>
      <path class="fil14" d="M17104 6980c-2,26 -9,152 -20,328 -29,483 -83,1342 -115,1535 -33,198 -18,847 -7,1186 1,58 -21,111 -59,149 -14,14 -30,27 -48,37 -30,17 -66,27 -103,27l-158 0c-118,0 -213,-97 -210,-213 9,-287 20,-811 -1,-1216 -19,-385 9,-1066 31,-1491l1 0c8,-170 16,-298 19,-351l670 9z"/>
      <path class="fil13" d="M16434 6971l670 9c-2,26 -9,152 -20,328 -227,27 -464,39 -669,14 8,-170 16,-298 19,-351z"/>
      <path class="fil13" d="M16901 9423c5,218 12,442 8,623 -2,51 -3,95 -6,132 -14,14 -30,27 -48,37 4,-44 7,-99 9,-169 4,-181 -3,-405 -8,-621 -8,-265 -14,-515 0,-622 32,-233 104,-1497 123,-1834l45 2c-19,337 -91,1603 -123,1838 -14,103 -7,351 0,614z"/>
      <path class="fil14" d="M17964 8813c-21,405 -10,929 -1,1216 4,116 -91,213 -210,213l-157 0c-35,0 -68,-9 -97,-23 -17,-9 -33,-20 -47,-34 -43,-39 -68,-94 -66,-156 10,-339 25,-988 -8,-1186 -32,-197 -88,-1081 -117,-1560 -9,-159 -16,-273 -17,-302l670 9c2,34 6,87 9,153 22,382 64,1225 41,1670z"/>
      <path class="fil13" d="M17923 7143c-126,34 -376,96 -662,140 -9,-159 -16,-273 -17,-302l670 9c2,34 6,87 9,153z"/>
      <path class="fil13" d="M17491 10046c1,72 4,129 8,173 -17,-9 -33,-21 -47,-34 -3,-39 -5,-84 -6,-139 -4,-181 2,-405 8,-623 7,-263 14,-511 -1,-614 -32,-235 -104,-1502 -123,-1838l45 -2c19,337 91,1601 123,1834 15,107 8,357 1,622 -6,216 -12,440 -8,621z"/>
     </g>
    </g>
    <g>
     <path class="fil6" d="M17679 10396c0,0 94,-24 120,-24 26,1 200,191 258,202 106,21 107,183 42,191 -187,24 -507,-54 -507,-54 0,0 -29,-208 -16,-274 12,-65 51,-22 103,-41z"/>
     <path class="fil5" d="M17834 10574c-4,1 -7,0 -10,-2 -6,-4 -8,-12 -4,-17 1,-2 33,-48 73,-64 52,-21 89,9 91,11 5,4 6,12 1,17 -5,6 -13,6 -18,2 -1,-1 -27,-22 -65,-7 -32,13 -60,54 -60,55 -2,3 -5,4 -8,5z"/>
     <path class="fil5" d="M17798 10536c-3,0 -7,0 -10,-2 -6,-4 -8,-12 -4,-18 2,-2 33,-48 73,-64 52,-21 89,10 91,11 5,5 6,13 1,18 -5,5 -13,6 -18,1 -1,0 -27,-21 -64,-6 -33,13 -61,54 -61,54 -2,3 -5,5 -8,6z"/>
     <path class="fil5" d="M17884 10607c-4,0 -7,0 -10,-2 -6,-4 -8,-12 -4,-18 1,-2 33,-48 73,-64 52,-21 89,10 91,11 5,5 6,13 1,18 -5,5 -13,6 -18,1 -1,0 -27,-21 -65,-6 -32,13 -60,54 -60,54 -2,3 -5,5 -8,6z"/>
    </g>
    <path class="fil6" d="M18067 7047c-606,150 -1211,150 -1816,0 -3,-221 -6,-1105 11,-1832 1,-14 1,-28 1,-42 1,-7 1,-14 1,-21l0 -1c0,-9 0,-18 1,-27 13,-479 35,-870 74,-922l0 0c90,-122 543,-316 669,-402 10,16 72,108 153,114 89,8 167,-94 167,-94l0 -20c126,87 537,266 627,388 99,132 116,2483 112,2859z"/>
    <path class="fil7" d="M16447 4874c-52,69 -128,225 -162,298 -5,9 -9,18 -11,24 -4,8 -6,13 -7,14l-5 5c1,-14 1,-28 1,-42 1,-7 1,-14 1,-21l0 -1c7,-15 15,-32 24,-51 39,-79 95,-186 136,-242 5,-6 14,-7 20,-3 6,5 8,13 3,19z"/>
    <path class="fil7" d="M17607 4340l0 0c-241,-7 -427,-106 -540,-187 -123,-87 -188,-172 -191,-176 -5,-6 -3,-14 3,-19 6,-4 15,-3 19,3 3,3 263,338 709,352 8,0 14,6 14,14 0,7 -6,13 -14,13z"/>
    <path class="fil7" d="M16796 6586c-7,0 -13,-6 -14,-13 0,-8 5,-14 13,-15 395,-25 631,-221 759,-381 139,-174 185,-344 186,-346 2,-7 9,-12 17,-10 7,2 12,9 10,17 -2,7 -48,177 -190,355 -132,165 -374,367 -780,393l-1 0z"/>
    <path class="fil7" d="M17008 6340c-6,0 -12,-4 -13,-10 -2,-7 2,-15 9,-17 344,-91 410,-372 411,-374 1,-8 9,-13 16,-11 8,2 13,9 11,16 -1,3 -17,77 -79,162 -56,79 -163,184 -351,234l-4 0z"/>
    <path class="fil12" d="M18511 7023c-8,120 -82,210 -83,289 0,79 -93,27 -50,-129 43,-156 -21,-308 -55,-306 -34,1 11,176 -25,234 -36,58 -63,-64 -95,-139 -33,-79 -14,-241 15,-356 30,-114 -116,-840 -97,-1044l-52 -266 -31 -154 -6 -162 281 -109c11,52 21,106 32,160 5,24 10,48 14,72 38,193 71,383 85,506 38,337 -24,1027 -24,1027 0,0 99,264 91,377z"/>
    <path class="fil17" d="M18359 5113c-63,70 -164,161 -290,193l-31 -154 -6 -162 281 -109c11,52 21,106 32,160 5,24 10,48 14,72z"/>
    <path class="fil6" d="M18437 4959c0,0 -33,39 -92,82 -71,52 -178,110 -306,111 -16,-448 -39,-826 -72,-937 59,71 343,424 470,744z"/>
    <path class="fil7" d="M17846 4830c52,68 128,224 162,297 5,10 8,18 11,24 4,8 6,13 7,14 2,5 7,8 12,8l1 0c0,-7 -1,-14 -1,-21 4,0 8,0 12,0 -1,-4 -6,-14 -13,-28 -8,-18 -19,-42 -32,-69 -39,-79 -95,-186 -136,-242 -5,-6 -14,-7 -20,-3 -6,5 -8,13 -3,20z"/>
    <path class="fil14" d="M17592 3081c0,242 -152,409 -400,409 -247,0 -420,-179 -420,-422 0,-242 147,-426 394,-426 297,0 426,196 426,439z"/>
    <path class="fil17" d="M17537 3185c0,0 68,-90 120,-16 51,75 -22,294 -147,241l27 -225z"/>
    <path class="fil18" d="M17538 3342c4,0 8,-3 10,-8 19,-68 91,-95 91,-95 6,-2 9,-8 7,-14 -2,-5 -9,-8 -14,-6 -3,2 -82,32 -105,110 -1,5 2,11 8,12l3 1z"/>
    <path class="fil18" d="M17610 3308l6 -2c4,-3 6,-10 3,-14 -1,-1 -13,-20 -40,-32 -5,-2 -12,0 -14,6 -2,5 0,11 5,13 21,9 31,24 31,24 2,3 5,5 9,5z"/>
    <path class="fil17" d="M16828 3185c0,0 -69,-90 -120,-16 -51,75 21,294 146,241l-26 -225z"/>
    <path class="fil18" d="M16827 3342c-5,0 -9,-3 -10,-8 -20,-68 -91,-95 -92,-95 -5,-2 -8,-8 -6,-14 2,-5 8,-8 14,-6 3,2 82,32 104,110 2,5 -1,11 -7,12l-3 1z"/>
    <path class="fil18" d="M16755 3308l-6 -2c-5,-3 -6,-10 -3,-14 0,-1 13,-20 40,-32 5,-2 11,0 14,6 2,5 0,11 -6,13 -20,9 -30,24 -30,24 -2,3 -6,5 -9,5z"/>
    <path class="fil12" d="M17013 3596l0 218c0,0 66,111 156,119 90,7 170,-96 170,-96l0 -226 -326 -15z"/>
    <path class="fil17" d="M17013 3596l0 96c60,66 167,82 326,59l0 -140 -326 -15z"/>
    <path class="fil12" d="M17573 3178c-3,46 -8,95 -18,144 -29,161 -97,319 -242,369 -328,115 -445,-160 -492,-321 -5,-18 -10,-38 -14,-59 -7,-38 -13,-81 -18,-124 -5,-52 -9,-105 -11,-152 -5,-97 55,-187 149,-222 134,-51 339,-91 532,16 72,40 117,114 118,194 1,44 1,97 -4,155z"/>
    <path class="fil14" d="M17356 3527l0 0 0 0c-14,13 -29,25 -44,33 -83,44 -92,37 -125,38 -33,2 -79,-8 -126,-33 -15,-8 -36,-24 -60,-45 0,0 -34,-113 180,-85 215,-36 179,70 175,92zm177 -340c-11,20 -73,205 -90,231 -39,-83 -226,-22 -226,-22 -12,3 -24,5 -36,5 -12,0 -24,-2 -35,-5l-1 0c0,0 -190,-59 -227,29 -17,-26 -71,-208 -81,-238l-48 0c5,43 11,86 18,124 4,21 9,41 14,59 47,161 164,436 492,321 145,-50 213,-208 242,-369 10,-49 15,-98 18,-144l-40 9z"/>
    <path class="fil14" d="M17323 3213c0,24 12,43 27,43 16,0 28,-19 28,-43 0,-23 -12,-42 -28,-42 -15,0 -27,19 -27,42z"/>
    <path class="fil14" d="M17000 3213c0,23 13,42 28,42 15,0 27,-19 27,-42 0,-24 -12,-43 -27,-43 -15,0 -28,19 -28,43z"/>
    <path class="fil14" d="M17459 3094c0,0 -105,-40 -186,-6l8 44c0,0 119,-10 179,14 5,-17 6,-34 -1,-52z"/>
    <path class="fil14" d="M16938 3094c0,0 104,-40 185,-6l-8 44c0,0 -118,-10 -178,14 -6,-17 -6,-34 1,-52z"/>
    <path class="fil17" d="M17179 3377c-18,0 -36,-7 -39,-8 -5,-2 -8,-8 -5,-14 2,-5 8,-8 13,-5 10,3 33,9 43,4 2,-2 4,-4 5,-10 4,-36 -6,-158 -6,-159 -1,-6 3,-11 9,-11 6,-1 11,4 12,9 0,6 10,125 6,163 -2,14 -9,22 -15,25 -7,4 -15,6 -23,6z"/>
    <path class="fil5" d="M17323 3453c-9,42 -37,121 -134,121 -97,0 -124,-72 -134,-121l268 0z"/>
    <path class="fil14" d="M16789 3187l48 0c-5,-47 -13,-130 27,-142 125,-38 -37,-124 19,-168 57,-43 197,-24 295,-27 98,-3 256,-2 294,7 39,8 18,71 3,119 -14,48 48,102 58,152 3,14 2,36 0,59l40 0c5,-61 5,-118 4,-164 -1,-80 -46,-154 -118,-194 -193,-107 -398,-67 -532,-16 -94,35 -154,125 -149,222 2,47 6,100 11,152z"/>
   </g>
  </g>
 </g>
</svg>
