<?xml version="1.0" encoding="UTF-8"?>
<!DOCTYPE svg PUBLIC "-//W3C//DTD SVG 1.1//EN" "http://www.w3.org/Graphics/SVG/1.1/DTD/svg11.dtd">
<!-- Creator: CorelDRAW X6 -->
<svg xmlns="http://www.w3.org/2000/svg" xml:space="preserve" width="7.22009in" height="2.43735in" version="1.1" style="shape-rendering:geometricPrecision; text-rendering:geometricPrecision; image-rendering:optimizeQuality; fill-rule:evenodd; clip-rule:evenodd"
viewBox="0 0 6920 2336"
 xmlns:xlink="http://www.w3.org/1999/xlink">
 <defs>
  <style type="text/css">
   <![CDATA[
    .fil1 {fill:#848688;fill-rule:nonzero}
    .fil0 {fill:#FEFEFE;fill-rule:nonzero}
   ]]>
  </style>
 </defs>
 <g id="Layer_x0020_1">
  <metadata id="CorelCorpID_0Corel-Layer"/>
  <path class="fil0" d="M0 36l0 -14 413 0c146,0 253,17 319,49 67,33 116,74 146,123 31,48 46,113 46,192 0,123 -43,215 -127,276 -85,62 -199,91 -344,89l0 -14c92,0 166,-29 223,-85 58,-56 87,-130 87,-222 0,-71 -14,-135 -42,-190 -28,-56 -67,-97 -117,-126 -51,-29 -128,-44 -231,-44l-103 0 0 1239c0,70 7,112 23,126 15,13 44,20 87,20l0 14 -380 0 0 -14c68,0 103,-31 103,-93l0 -1199c0,-51 -7,-85 -20,-102 -13,-16 -41,-25 -83,-25z"/>
  <path id="1" class="fil0" d="M1666 803l-426 0 -217 547c-15,39 -23,63 -23,72 0,22 16,33 48,33l0 14 -215 0 0 -14c29,0 53,-7 73,-21 19,-14 41,-51 64,-110l526 -1324 26 0 514 1279c0,7 14,37 40,93 27,55 67,83 121,83l0 14 -338 0 0 -14c31,0 46,-12 46,-36 0,-17 -7,-43 -22,-79 -3,-3 -5,-7 -7,-13 -1,-6 -3,-10 -3,-10l-207 -514zm-410 -40l392 0 -196 -494 -196 494z"/>
  <path id="2" class="fil0" d="M3511 1493l-23 0 -401 -1105 -392 1105 -23 0 -470 -1294c-20,-52 -40,-92 -62,-121 -21,-28 -53,-42 -94,-42l0 -14 342 0 0 14c-33,0 -50,12 -50,36 0,15 5,37 16,67l383 1053 316 -889 -31 -86c-27,-74 -52,-123 -77,-146 -25,-23 -53,-35 -84,-35l0 -14 338 0 0 14c-32,0 -48,14 -48,42 0,9 7,32 20,68l383 1050 380 -1069c1,-3 2,-4 2,-5l15 -50c0,-24 -17,-36 -49,-36l0 -14 211 0 0 14c-58,1 -103,48 -137,141l-465 1316z"/>
  <path id="3" class="fil0" d="M4833 803l-426 0 -217 547c-15,39 -23,63 -23,72 0,22 16,33 48,33l0 14 -215 0 0 -14c29,0 53,-7 73,-21 19,-14 41,-51 64,-110l526 -1324 26 0 515 1279c0,7 13,37 39,93 27,55 67,83 121,83l0 14 -338 0 0 -14c31,0 46,-12 46,-36 0,-17 -7,-43 -22,-79 -3,-3 -5,-7 -7,-13 -1,-6 -2,-10 -3,-10l-207 -514zm-410 -40l392 0 -196 -494 -196 494z"/>
  <path id="4" class="fil0" d="M6642 22l278 0 0 14c-42,2 -71,11 -87,27 -16,17 -24,52 -24,106l0 1318 -1157 -1229 0 1070c0,34 3,60 8,76 5,16 12,27 22,33 10,6 34,12 73,18l0 14 -276 0 0 -14c50,0 80,-9 93,-27 12,-17 18,-60 18,-126l0 -980c0,-86 -12,-156 -36,-210 -24,-55 -79,-80 -166,-76l0 -14 272 0 1087 1155 0 -1022c0,-55 -10,-89 -29,-101 -20,-12 -45,-18 -76,-18l0 -14z"/>
  <polygon class="fil1" points="60,1650 443,1650 443,1715 127,1715 127,1925 440,1925 440,1990 127,1990 127,2254 440,2254 440,2319 60,2319 "/>
  <polygon id="1" class="fil1" points="712,2319 712,1650 726,1650 1171,2162 1171,1650 1238,1650 1238,2319 1223,2319 781,1812 781,2319 "/>
  <polygon id="2" class="fil1" points="1486,1715 1486,1650 1853,1650 1853,1715 1704,1715 1704,2319 1636,2319 1636,1715 "/>
  <polygon id="3" class="fil1" points="2103,1650 2486,1650 2486,1715 2170,1715 2170,1925 2483,1925 2483,1990 2170,1990 2170,2254 2483,2254 2483,2319 2103,2319 "/>
  <path id="4" class="fil1" d="M2758 1650l133 0c75,0 125,3 152,9 40,9 72,28 97,58 25,30 37,67 37,111 0,36 -8,68 -26,96 -17,27 -41,48 -73,62 -32,14 -76,22 -132,22l241 311 -83 0 -241 -311 -38 0 0 311 -67 0 0 -669zm67 65l0 228 115 1c45,0 78,-5 100,-13 21,-9 38,-22 50,-41 12,-19 18,-39 18,-63 0,-22 -6,-42 -18,-61 -12,-18 -28,-31 -48,-39 -20,-8 -53,-12 -99,-12l-118 0z"/>
  <path id="5" class="fil1" d="M3472 1650l134 0c76,0 128,3 154,10 39,9 70,29 94,58 25,29 37,66 37,110 0,45 -12,81 -36,111 -24,28 -56,48 -98,58 -30,7 -87,11 -170,11l-48 0 0 311 -67 0 0 -669zm67 65l0 228 114 1c45,0 79,-4 100,-13 22,-8 38,-21 51,-40 12,-19 18,-40 18,-63 0,-22 -6,-43 -18,-61 -13,-19 -29,-32 -49,-40 -20,-8 -52,-12 -97,-12l-119 0z"/>
  <path id="6" class="fil1" d="M4180 1650l133 0c75,0 125,3 152,9 40,9 72,28 97,58 25,30 37,67 37,111 0,36 -8,68 -25,96 -18,27 -42,48 -74,62 -32,14 -76,22 -132,22l241 311 -83 0 -241 -311 -38 0 0 311 -67 0 0 -669zm67 65l0 228 116 1c44,0 78,-5 99,-13 21,-9 38,-22 50,-41 12,-19 18,-39 18,-63 0,-22 -6,-42 -18,-61 -12,-18 -28,-31 -48,-39 -20,-8 -53,-12 -99,-12l-118 0z"/>
  <polygon id="7" class="fil1" points="4885,1650 4952,1650 4952,2319 4885,2319 "/>
  <path id="8" class="fil1" d="M5188 2194l57 -34c40,74 86,111 139,111 23,0 44,-6 63,-16 20,-10 35,-25 45,-42 11,-18 16,-36 16,-56 0,-22 -8,-44 -23,-66 -21,-30 -59,-65 -115,-107 -56,-43 -91,-73 -104,-92 -24,-31 -36,-65 -36,-102 0,-29 7,-56 21,-80 14,-24 34,-42 59,-56 26,-14 53,-21 83,-21 32,0 62,8 89,24 28,15 57,44 87,86l-54 41c-26,-33 -47,-55 -65,-66 -18,-11 -37,-16 -58,-16 -27,0 -50,8 -67,25 -17,16 -26,36 -26,60 0,15 3,29 9,42 6,14 18,29 34,45 8,8 37,31 87,67 58,43 98,81 119,114 22,33 33,67 33,101 0,48 -19,90 -56,126 -37,36 -82,54 -134,54 -41,0 -78,-11 -111,-33 -33,-21 -64,-58 -92,-109z"/>
  <polygon id="9" class="fil1" points="5875,1650 6258,1650 6258,1715 5942,1715 5942,1925 6255,1925 6255,1990 5942,1990 5942,2254 6255,2254 6255,2319 5875,2319 "/>
  <path id="10" class="fil1" d="M6457 2194l57 -34c40,74 86,111 139,111 22,0 43,-6 63,-16 20,-10 35,-25 45,-42 10,-18 16,-36 16,-56 0,-22 -8,-44 -23,-66 -21,-30 -59,-65 -115,-107 -56,-43 -91,-73 -105,-92 -23,-31 -35,-65 -35,-102 0,-29 7,-56 21,-80 14,-24 33,-42 59,-56 25,-14 53,-21 83,-21 31,0 61,8 89,24 27,15 56,44 87,86l-55 41c-25,-33 -46,-55 -64,-66 -18,-11 -38,-16 -59,-16 -27,0 -49,8 -66,25 -18,16 -26,36 -26,60 0,15 3,29 9,42 6,14 17,29 33,45 9,8 38,31 87,67 58,43 98,81 120,114 21,33 32,67 32,101 0,48 -18,90 -55,126 -37,36 -82,54 -135,54 -40,0 -77,-11 -110,-33 -34,-21 -64,-58 -92,-109z"/>
 </g>
</svg>
